<?xml version="1.0" encoding="utf-8"?>
<svg id="master-artboard" viewBox="0 0 321.75 195.76" xmlns="http://www.w3.org/2000/svg" width="321.75px" height="195.75999450683594px" xmlns:xlink="http://www.w3.org/1999/xlink"><defs><pattern id="Új_mintázatos_színtár_1" data-name="Új mintázatos színtár 1" x="-7.09" y="-22.34" width="38.25" height="55" patternUnits="userSpaceOnUse" viewBox="0 0 38.24 55"><path d="M 0 0 H 38.25 V 55 H 0 V 0 Z" class="cls-1" style="fill: none;"/><path d="M 0 0 H 38.25 V 55 H 0 V 0 Z" class="cls-2" style="fill: rgb(255, 255, 255);"/></pattern><radialGradient id="Névtelen_színátmenet_3" cx="2.41" cy="76.96" r="43.7" gradientTransform="matrix(-0.87, 0, 0, 1, 250.78, 0)" gradientUnits="userSpaceOnUse"><stop offset="0.33" stop-color="#fad2bc"/><stop offset="0.6" stop-color="#f4c9b4"/><stop offset="1" stop-color="#e6b4a1"/></radialGradient><linearGradient id="Névtelen_színátmenet_29" x1="249.69" y1="122.29" x2="249.69" y2="91.49" gradientUnits="userSpaceOnUse"><stop offset="0.16" stop-color="#fad2bc"/><stop offset="0.46" stop-color="#f7cdb7"/><stop offset="0.82" stop-color="#edbeaa"/><stop offset="1" stop-color="#e6b4a1"/></linearGradient><linearGradient id="Névtelen_színátmenet_7" x1="253.35" y1="66.91" x2="270.11" y2="66.91" gradientUnits="userSpaceOnUse"><stop offset="0" stop-color="#fff" stop-opacity="0.4"/><stop offset="1" stop-color="#fff"/></linearGradient><linearGradient id="Névtelen_színátmenet_7-2" x1="228.07" y1="66.91" x2="244.83" y2="66.91" xlink:href="#Névtelen_színátmenet_7"/><linearGradient id="Névtelen_színátmenet_29-2" x1="230.37" y1="177.79" x2="266.93" y2="177.79" xlink:href="#Névtelen_színátmenet_29"/><pattern id="Új_mintázatos_színtár_1-9" data-name="Új mintázatos színtár 1" width="38.25" height="55" patternTransform="translate(-2.92 -2.92) scale(0.95)" patternUnits="userSpaceOnUse" viewBox="0 0 38.24 55"><path d="M 0 0 H 38.25 V 55 H 0 V 0 Z" class="cls-1" style="fill: none;"/><path d="M 0 0 H 38.25 V 55 H 0 V 0 Z" class="cls-2" style="fill: rgb(255, 255, 255);"/></pattern></defs><title>eezy_12</title><g id="_Csoport_" data-name="&lt;Csoport&gt;" class="cls-3" style="opacity: 0.3;"><g id="_Csoport_2" data-name="&lt;Csoport&gt;"><path id="_Görbe_" data-name="&lt;Görbe&gt;" class="cls-4" d="M168,22.34A160.86,160.86,0,0,0,7.09,183.21H328.83A160.86,160.86,0,0,0,168,22.34Z" transform="translate(-7.09 -22.34)" style="fill: rgb(113, 229, 173);"/></g></g><path d="M 27.66 116.129997 H 38.41 V 160.869999 H 27.66 V 116.129997 Z" class="cls-5" style="fill: rgb(114, 214, 254); isolation: isolate;"/><path d="M 0 160.869995 H 321.75 V 170.589995 H 0 V 160.869995 Z" class="cls-6" style="fill: rgb(163, 172, 180);"/><path d="M 28.16 170.520004 H 290.700008 V 179.530005 H 28.16 V 170.520004 Z" class="cls-7" style="fill: rgb(53, 69, 87);"/><path d="M 13.84 170.520004 H 28.16 V 195.760004 H 13.84 V 170.520004 Z" class="cls-8" style="fill: rgb(200, 225, 246);"/><path d="M 290.700012 170.520004 H 305.020012 V 195.760004 H 290.700012 V 170.520004 Z" class="cls-8" style="fill: rgb(200, 225, 246);"/><path d="M 13.84 116.129997 H 24.59 V 160.869999 H 13.84 V 116.129997 Z" class="cls-9" style="isolation: isolate; fill: rgb(253, 137, 87);"/><path d="M 41.470001 116.129997 H 52.220001 V 160.869999 H 41.470001 V 116.129997 Z" class="cls-10" style="isolation: isolate; fill: rgb(53, 69, 87);"/><path d="M 55.290001 116.129997 H 66.040001 V 160.869999 H 55.290001 V 116.129997 Z" class="cls-5" style="fill: rgb(114, 214, 254); isolation: isolate;"/><path d="M 13.84 124.580002 H 24.59 V 126.880002 H 13.84 V 124.580002 Z" class="cls-11" style="isolation: isolate; fill: url('#Új_mintázatos_színtár_1');"/><path d="M 13.84 152.210007 H 24.59 V 154.510007 H 13.84 V 152.210007 Z" class="cls-11" style="isolation: isolate; fill: url('#Új_mintázatos_színtár_1');"/><path d="M 27.66 124.580002 H 38.41 V 126.880002 H 27.66 V 124.580002 Z" class="cls-12" style="isolation: isolate; fill: rgb(200, 225, 246);"/><path d="M 27.66 152.210007 H 38.41 V 154.510007 H 27.66 V 152.210007 Z" class="cls-12" style="isolation: isolate; fill: rgb(200, 225, 246);"/><path d="M 41.470001 124.580002 H 52.220001 V 126.880002 H 41.470001 V 124.580002 Z" class="cls-13" style="isolation: isolate; fill: rgb(163, 172, 180);"/><path d="M 41.470001 152.210007 H 52.220001 V 154.510007 H 41.470001 V 152.210007 Z" class="cls-13" style="isolation: isolate; fill: rgb(163, 172, 180);"/><path d="M 55.290001 124.580002 H 66.040001 V 126.880002 H 55.290001 V 124.580002 Z" class="cls-11" style="isolation: isolate; fill: url('#Új_mintázatos_színtár_1');"/><path d="M 55.290001 152.210007 H 66.040001 V 154.510007 H 55.290001 V 152.210007 Z" class="cls-11" style="isolation: isolate; fill: url('#Új_mintázatos_színtár_1');"/><path d="M 82.330002 138.460007 H 93.080002 V 182.980007 H 82.330002 V 138.460007 Z" class="cls-14" transform="translate(-66.49 29.37) rotate(-24.84)" style="isolation: isolate; fill: rgb(2, 138, 253);"/><path d="M 114.519997 23.25 H 140.809998 V 36.9 H 114.519997 V 23.25 Z" class="cls-15" style="fill: rgb(113, 229, 173); opacity: 0.2;"/><path d="M 177.039993 23.25 H 203.329994 V 36.9 H 177.039993 V 23.25 Z" class="cls-15" style="fill: rgb(113, 229, 173); opacity: 0.2;"/><path d="M 146.289993 8.53 H 172.579994 V 22.179999 H 146.289993 V 8.53 Z" class="cls-15" style="fill: rgb(113, 229, 173); opacity: 0.2;"/><path d="M 71.610001 40.34 H 97.900002 V 53.99 H 71.610001 V 40.34 Z" class="cls-15" style="fill: rgb(113, 229, 173); opacity: 0.2;"/><path class="cls-16" d="M313.37,163.34c-11-31.59-18.83-44.78-23-50.14a8.4,8.4,0,0,0-.76-.89,16.28,16.28,0,0,0-5.5-3.72c-.21-.09-2.92-1.13-4.18-1.56-3.68-1.26-8.34-2.68-14.84-5.26h-.06c-3.61,6.21-10.15,20-15.21,20.53h-.4c-5.07-.54-11.61-14.32-15.22-20.53l.22-.15c-6.7,2.69-11.48,4.13-15.24,5.42a25.64,25.64,0,0,0-17.09,20.19c-1.19,7.41-1,55.32-1,55.81l93,.17h4.06v0H304C320.44,183.17,313.37,163.34,313.37,163.34Z" transform="translate(-7.09 -22.34)" style="fill: rgb(194, 80, 84); fill-rule: evenodd;"/><path class="cls-4" d="M201.45,139.51H304.31c-.46-1.09-.91-2.15-1.35-3.16H201.55C201.51,137.35,201.48,138.41,201.45,139.51Z" transform="translate(-7.09 -22.34)" style="fill: rgb(255, 177, 175);"/><path class="cls-4" d="M201.45,147.27h106c-.46-1.09-.81-2.15-1.26-3.16H201.55C201.51,145.11,201.48,146.17,201.45,147.27Z" transform="translate(-7.09 -22.34)" style="fill: rgb(255, 177, 175);"/><path class="cls-4" d="M294.16,118.86H205a26.85,26.85,0,0,0-1.49,3.16H296A26.34,26.34,0,0,0,294.16,118.86Z" transform="translate(-7.09 -22.34)" style="fill: rgb(255, 177, 175);"/><path class="cls-4" d="M287.14,110.2H212.91a25.28,25.28,0,0,0-3.76,3.16l81.41,0A12.69,12.69,0,0,0,287.14,110.2Z" transform="translate(-7.09 -22.34)" style="fill: rgb(255, 177, 175);"/><path class="cls-17" d="M221.67,63.41c1.89-.63,4.31,1.52,5.38,4.8s.42,6.44-1.47,7.06-4.31-1.53-5.39-4.8S219.78,64,221.67,63.41Z" transform="translate(-7.09 -22.34)" style="fill-rule: evenodd; fill: rgb(230, 180, 161);"/><path class="cls-17" d="M277.06,63.41c-1.89-.63-4.3,1.52-5.38,4.8s-.42,6.44,1.47,7.06,4.31-1.53,5.39-4.8S279,64,277.06,63.41Z" transform="translate(-7.09 -22.34)" style="fill-rule: evenodd; fill: rgb(230, 180, 161);"/><path class="cls-18" d="M223.29,62.17c0,16.56,10.76,33.85,26.08,33.85,14.33,0,25.52-17.29,25.52-33.85s-11.66-30-26-30S223.29,45.61,223.29,62.17Z" transform="translate(-7.09 -22.34)" style="fill: url('#Névtelen_színátmenet_3');"/><path class="cls-19" d="M249.46,122.29h.4c5.06-.54,11.6-14.32,15.21-20.53h.06s-3.38-2-3.38-5.74a.93.93,0,0,0-.1-.51v-4A19.83,19.83,0,0,1,249.37,96a20.64,20.64,0,0,1-11.75-3.74V96c0,3.73-3.38,5.74-3.38,5.74C237.85,108,244.39,121.75,249.46,122.29Z" transform="translate(-7.09 -22.34)" style="fill: url('#Névtelen_színátmenet_29');"/><path class="cls-20" d="M261.65,91.49c-.42.33-.84.64-1.27.93l-.39.25c-.31.2-.62.4-.94.59l-.45.26c-.31.17-.63.34-1,.5l-.41.2a19.34,19.34,0,0,1-2.83,1.07l-.44.11c-.34.1-.69.18-1,.25l-.51.09c-.35.06-.7.11-1.06.15l-.46,0c-.51,0-1,.08-1.53.08s-1,0-1.52-.06l-.48,0-1-.13-.54-.09-.92-.19-.56-.14-.88-.25-.54-.17c-.29-.1-.59-.21-.88-.33l-.49-.19c-.31-.13-.62-.28-.92-.42l-.42-.2c-.36-.18-.72-.38-1.08-.58l-.21-.12c-.44-.26-.87-.53-1.29-.82V96a6,6,0,0,1-.05.75,20.65,20.65,0,0,0,11.8,3.77,19.92,19.92,0,0,0,12.38-4.6.9.9,0,0,0-.1-.43Z" transform="translate(-7.09 -22.34)" style="fill: rgb(230, 180, 161);"/><path class="cls-21" d="M237.36,66.91a.9.9,0,1,1-.89-.89A.89.89,0,0,1,237.36,66.91Z" transform="translate(-7.09 -22.34)" style="fill: rgb(45, 37, 33);"/><path class="cls-21" d="M262.35,66.91a.9.9,0,1,1-.89-.89A.89.89,0,0,1,262.35,66.91Z" transform="translate(-7.09 -22.34)" style="fill: rgb(45, 37, 33);"/><path class="cls-22" d="M269.72,40.79a5.32,5.32,0,0,0,0-1.13c-.26-4-4.49-6.65-8.45-6.83A8.4,8.4,0,0,0,262.73,24c-2.53,3.68-7.7,4.07-12.19,4.1l.33-.16a3.66,3.66,0,0,0,1.35-5c-4.67,6.26-13.78,7.42-19.33,12.91a16.94,16.94,0,0,0-1.56,1.83c-8.32,7.47-10.46,20.79-6.73,33.49,2.21-24.47,13-24,24.59-24,10.47,0,19.27-2.22,24.42,24C277.3,60.08,276,48.52,269.72,40.79Z" transform="translate(-7.09 -22.34)" style="fill: rgb(172, 100, 90);"/><path class="cls-2" d="M257.91,81a4.91,4.91,0,0,1-.09.77,5.87,5.87,0,0,1-1.89,3.16,10,10,0,0,1-6.65,2.34c-4.69,0-8.51-2.79-8.64-6.27Z" transform="translate(-7.09 -22.34)" style="fill: rgb(255, 255, 255);"/><path class="cls-23" d="M253.35,62.79a2.1,2.1,0,0,1,.08-.56s0-.07,0-.13,0,0,0-.09.05-.11.08-.18a1.74,1.74,0,0,1,.11-.18l.05-.07a2.25,2.25,0,0,1,.62-.58l.13-.08a2.54,2.54,0,0,1,1.2-.3h12.06a2.26,2.26,0,0,1,2.35,2.17V71a2,2,0,0,1-.35,1.13c0,.07-.1.14-.15.21a2.38,2.38,0,0,1-.52.44l-.12.07a1.38,1.38,0,0,1-.3.14.48.48,0,0,1-.12,0,2.35,2.35,0,0,1-.62.12H255.7A2.27,2.27,0,0,1,253.35,71Z" transform="translate(-7.09 -22.34)" style="opacity: 0.86; fill: url('#Névtelen_színátmenet_7');"/><path class="cls-24" d="M244.83,71a2.27,2.27,0,0,1-2.35,2.17H230.41a2.88,2.88,0,0,1-.59-.07l-.22-.07-.2-.08-.2-.1-.11-.07a2.43,2.43,0,0,1-.52-.44l-.16-.21a2.08,2.08,0,0,1-.34-1.13V62.79a2.26,2.26,0,0,1,2.34-2.17h12.07a2.5,2.5,0,0,1,1.21.31l.1.06.13.08a2.38,2.38,0,0,1,.48.47l.08.11.11.18a1.89,1.89,0,0,1,.09.21.55.55,0,0,1,0,.12h0s0,.05,0,.1a1.8,1.8,0,0,1,.08.54Z" transform="translate(-7.09 -22.34)" style="opacity: 0.86; fill: url('#Névtelen_színátmenet_7-2');"/><path class="cls-7" d="M253.26,73.57a3.91,3.91,0,0,0,2.44.83h12.06a3.82,3.82,0,0,0,3.09-1.5,3.15,3.15,0,0,0,.62-1.87V62.79a3.56,3.56,0,0,0-3.71-3.38H255.7A3.56,3.56,0,0,0,252,62.79v.79l-.31-.07a14,14,0,0,0-5.18,0l-.31.08v-.78a3.56,3.56,0,0,0-3.71-3.38H230.41a3.57,3.57,0,0,0-3.71,3.38V71a3.08,3.08,0,0,0,.38,1.48,3.79,3.79,0,0,0,3.33,1.89h12.07a3.86,3.86,0,0,0,2.43-.83A3.23,3.23,0,0,0,246.19,71V64.86l.17-.06a10.69,10.69,0,0,1,2.65-.34,11.27,11.27,0,0,1,2.8.35l.18.06V71A3.25,3.25,0,0,0,253.26,73.57Zm.09-10.78a2.1,2.1,0,0,1,.08-.56s0-.07,0-.13,0,0,0-.09.05-.11.08-.18a1.74,1.74,0,0,1,.11-.18l.05-.07a2.25,2.25,0,0,1,.62-.58l.13-.08a2.54,2.54,0,0,1,1.2-.3h12.06a2.26,2.26,0,0,1,2.35,2.17V71a2,2,0,0,1-.35,1.13c0,.07-.1.14-.15.21a2.38,2.38,0,0,1-.52.44l-.12.07a1.38,1.38,0,0,1-.3.14.48.48,0,0,1-.12,0,2.35,2.35,0,0,1-.62.12H255.7A2.27,2.27,0,0,1,253.35,71ZM244.83,71a2.27,2.27,0,0,1-2.35,2.17H230.41a2.88,2.88,0,0,1-.59-.07l-.22-.07-.2-.08-.2-.1-.11-.07a2.43,2.43,0,0,1-.52-.44l-.16-.21a2.08,2.08,0,0,1-.34-1.13V62.79a2.26,2.26,0,0,1,2.34-2.17h12.07a2.5,2.5,0,0,1,1.21.31l.1.06.13.08a2.38,2.38,0,0,1,.48.47l.08.11.11.18a1.89,1.89,0,0,1,.09.21.55.55,0,0,1,0,.12h0s0,.05,0,.1a1.8,1.8,0,0,1,.08.54Z" transform="translate(-7.09 -22.34)" style="fill: rgb(53, 69, 87);"/><path class="cls-20" d="M268,79.14a1.25,1.25,0,1,0-1.25,1.25A1.25,1.25,0,0,0,268,79.14Z" transform="translate(-7.09 -22.34)" style="fill: rgb(230, 180, 161);"/><path class="cls-20" d="M269.45,77a.7.7,0,0,0-.7-.71.71.71,0,0,0,0,1.42A.7.7,0,0,0,269.45,77Z" transform="translate(-7.09 -22.34)" style="fill: rgb(230, 180, 161);"/><path class="cls-20" d="M266.25,76.08a.7.7,0,0,0-.71-.7.7.7,0,0,0-.7.7.7.7,0,0,0,.7.71A.71.71,0,0,0,266.25,76.08Z" transform="translate(-7.09 -22.34)" style="fill: rgb(230, 180, 161);"/><path class="cls-20" d="M230.37,79.14a1.25,1.25,0,1,1,1.25,1.25A1.25,1.25,0,0,1,230.37,79.14Z" transform="translate(-7.09 -22.34)" style="fill: rgb(230, 180, 161);"/><path class="cls-20" d="M229,77a.71.71,0,1,1,.71.71A.71.71,0,0,1,229,77Z" transform="translate(-7.09 -22.34)" style="fill: rgb(230, 180, 161);"/><path class="cls-20" d="M232.16,76.08a.7.7,0,0,1,.71-.7.7.7,0,0,1,.7.7.7.7,0,0,1-.7.71A.71.71,0,0,1,232.16,76.08Z" transform="translate(-7.09 -22.34)" style="fill: rgb(230, 180, 161);"/><path class="cls-20" d="M249.26,77.69a4.43,4.43,0,0,0,3.19-1.28.25.25,0,0,0,.08-.18.29.29,0,0,0-.07-.18c-.05,0-.14-.1-.19-.07a.22.22,0,0,0-.17.07,4,4,0,0,1-2.84,1.13,4,4,0,0,1-2.8-1.2.27.27,0,0,0-.36,0,.25.25,0,0,0,0,.36A4.5,4.5,0,0,0,249.26,77.69Z" transform="translate(-7.09 -22.34)" style="fill: rgb(230, 180, 161);"/><path class="cls-25" d="M266.77,183.21l.16-10.83h-23s-5.65-.24-9.7,5.6c-1.29,1.86-2.66,3.63-3.87,5.23Z" transform="translate(-7.09 -22.34)" style="fill: url('#Névtelen_színátmenet_29-2');"/><path class="cls-4" d="M201.82,130.48c0,.09,0,.19,0,.28h98.63c-.52-1.11-1-2.16-1.52-3.16H202.27C202.09,128.57,202,129.53,201.82,130.48Z" transform="translate(-7.09 -22.34)" style="fill: rgb(255, 177, 175);"/><path class="cls-4" d="M314.69,169.21H201.24c-.07,1.19-.11,2.26-.13,3.17H314.87A23.31,23.31,0,0,0,314.69,169.21Z" transform="translate(-7.09 -22.34)" style="fill: rgb(255, 177, 175);"/><path class="cls-4" d="M201.13,163.63H313.46c-.06-.18-.09-.29-.09-.29l-1-2.87H201.15C201.14,161.54,201.13,162.59,201.13,163.63Z" transform="translate(-7.09 -22.34)" style="fill: rgb(255, 177, 175);"/><path class="cls-4" d="M310.73,155.94c-.39-1.07-.78-2.13-1.17-3.16H201.24l0,.53c0,.88,0,1.76,0,2.63Z" transform="translate(-7.09 -22.34)" style="fill: rgb(255, 177, 175);"/><path class="cls-4" d="M235.12,176.9h-34v3.17h31.67c.5-.67,1-1.34,1.48-2C234.53,177.62,234.82,177.25,235.12,176.9Z" transform="translate(-7.09 -22.34)" style="fill: rgb(113, 229, 173);"/><path d="M 141.820007 143.130005 H 177.040009 V 160.880005 H 141.820007 V 143.130005 Z" class="cls-6" style="fill: rgb(163, 172, 180);"/><path class="cls-7" d="M110.1,81H222.94a3.64,3.64,0,0,1,3.64,3.64v69.52H106.46V84.66A3.64,3.64,0,0,1,110.1,81Z" transform="translate(-7.09 -22.34)" style="fill: rgb(53, 69, 87);"/><path class="cls-26" d="M222.94,165.47H110.1a3.64,3.64,0,0,1-3.64-3.64v-7.65H226.58v7.65A3.64,3.64,0,0,1,222.94,165.47Z" transform="translate(-7.09 -22.34)" style="fill: rgb(243, 245, 249);"/><path class="cls-2" d="M222.94,166.47H110.1a4.64,4.64,0,0,1-4.64-4.64V84.66A4.64,4.64,0,0,1,110.1,80H222.94a4.64,4.64,0,0,1,4.64,4.64v77.17A4.64,4.64,0,0,1,222.94,166.47ZM110.1,82a2.64,2.64,0,0,0-2.64,2.64v77.17a2.64,2.64,0,0,0,2.64,2.64H222.94a2.65,2.65,0,0,0,2.64-2.64V84.66A2.64,2.64,0,0,0,222.94,82Z" transform="translate(-7.09 -22.34)" style="fill: rgb(255, 255, 255);"/><path class="cls-26" d="M145.3,179h42.44a1.37,1.37,0,0,1,1.37,1.36v2.88H143.93v-2.88A1.36,1.36,0,0,1,145.3,179Z" transform="translate(-7.09 -22.34)" style="fill: rgb(243, 245, 249);"/><path d="M 124.149997 74.370003 H 194.709996 A 1.02 1.02 0 0 1 195.729996 75.390003 V 114.890004 A 1.02 1.02 0 0 1 194.709996 115.910004 H 124.149997 A 1.02 1.02 0 0 1 123.129997 114.890004 V 75.390003 A 1.02 1.02 0 0 1 124.149997 74.370003 Z" class="cls-2" style="fill: rgb(255, 255, 255);"/><path class="cls-27" d="M135.73,117.48H141a1,1,0,0,1,.9,1v5.17a1,1,0,0,1-.9,1h-5.27a1,1,0,0,1-.9-1V118.5A1,1,0,0,1,135.73,117.48Z" transform="translate(-7.09 -22.34)" style="fill: rgb(253, 170, 149);"/><path class="cls-27" d="M135.73,126.64H141a1,1,0,0,1,.9,1v5.17a1,1,0,0,1-.9,1h-5.27a1,1,0,0,1-.9-1v-5.17A1,1,0,0,1,135.73,126.64Z" transform="translate(-7.09 -22.34)" style="fill: rgb(253, 170, 149);"/><path class="cls-27" d="M135.73,108.32H141a1,1,0,0,1,.9,1v5.18a1,1,0,0,1-.9,1h-5.27a1,1,0,0,1-.9-1v-5.18A1,1,0,0,1,135.73,108.32Z" transform="translate(-7.09 -22.34)" style="fill: rgb(253, 170, 149);"/><path class="cls-8" d="M144.54,100.82h51.34a.47.47,0,0,1,.51.4s0,.4-.51.4H144.54a.47.47,0,0,1-.51-.4h0A.47.47,0,0,1,144.54,100.82Z" transform="translate(-7.09 -22.34)" style="fill: rgb(200, 225, 246);"/><path class="cls-8" d="M144.54,102.36h51.34a.47.47,0,0,1,.51.4s0,.4-.51.4H144.54a.47.47,0,0,1-.51-.4h0A.47.47,0,0,1,144.54,102.36Z" transform="translate(-7.09 -22.34)" style="fill: rgb(200, 225, 246);"/><path class="cls-8" d="M144.54,103.89h51.34a.47.47,0,0,1,.51.4s0,.4-.51.4H144.54a.47.47,0,0,1-.51-.4h0A.47.47,0,0,1,144.54,103.89Z" transform="translate(-7.09 -22.34)" style="fill: rgb(200, 225, 246);"/><path class="cls-8" d="M144.54,110h51.34a.47.47,0,0,1,.51.4s0,.4-.51.4H144.54a.47.47,0,0,1-.51-.4h0A.47.47,0,0,1,144.54,110Z" transform="translate(-7.09 -22.34)" style="fill: rgb(200, 225, 246);"/><path class="cls-8" d="M144.54,111.52h51.34a.47.47,0,0,1,.51.4s0,.4-.51.4H144.54a.47.47,0,0,1-.51-.4h0A.47.47,0,0,1,144.54,111.52Z" transform="translate(-7.09 -22.34)" style="fill: rgb(200, 225, 246);"/><path class="cls-8" d="M144.54,113.06h51.34a.47.47,0,0,1,.51.4s0,.4-.51.4H144.54a.47.47,0,0,1-.51-.4h0A.47.47,0,0,1,144.54,113.06Z" transform="translate(-7.09 -22.34)" style="fill: rgb(200, 225, 246);"/><path class="cls-8" d="M144.54,119.15h51.34a.47.47,0,0,1,.51.4s0,.4-.51.4H144.54a.47.47,0,0,1-.51-.4h0A.47.47,0,0,1,144.54,119.15Z" transform="translate(-7.09 -22.34)" style="fill: rgb(200, 225, 246);"/><path class="cls-8" d="M144.54,120.68h51.34a.47.47,0,0,1,.51.4s0,.4-.51.4H144.54a.47.47,0,0,1-.51-.4h0A.47.47,0,0,1,144.54,120.68Z" transform="translate(-7.09 -22.34)" style="fill: rgb(200, 225, 246);"/><path class="cls-8" d="M144.54,122.22h51.34a.47.47,0,0,1,.51.4s0,.4-.51.4H144.54a.47.47,0,0,1-.51-.4h0A.47.47,0,0,1,144.54,122.22Z" transform="translate(-7.09 -22.34)" style="fill: rgb(200, 225, 246);"/><path class="cls-8" d="M144.54,128.31h51.34a.47.47,0,0,1,.51.4s0,.4-.51.4H144.54a.47.47,0,0,1-.51-.4h0A.47.47,0,0,1,144.54,128.31Z" transform="translate(-7.09 -22.34)" style="fill: rgb(200, 225, 246);"/><path class="cls-8" d="M144.54,129.85h51.34a.47.47,0,0,1,.51.4s0,.4-.51.4H144.54a.47.47,0,0,1-.51-.4h0A.47.47,0,0,1,144.54,129.85Z" transform="translate(-7.09 -22.34)" style="fill: rgb(200, 225, 246);"/><path class="cls-8" d="M144.54,131.38h51.34a.47.47,0,0,1,.51.4s0,.4-.51.4H144.54a.47.47,0,0,1-.51-.4h0A.47.47,0,0,1,144.54,131.38Z" transform="translate(-7.09 -22.34)" style="fill: rgb(200, 225, 246);"/><path d="M 162.549993 137.360001 A 3.12 3.12 0 0 1 159.429993 140.48 A 3.12 3.12 0 0 1 156.309993 137.360001 A 3.12 3.12 0 0 1 159.429993 134.240001 A 3.12 3.12 0 0 1 162.549993 137.360001 Z" class="cls-8" style="fill: rgb(200, 225, 246);"/><path d="M 17.16 129.619995 H 21.26 V 149.369995 H 17.16 V 129.619995 Z" class="cls-27" style="fill: rgb(253, 170, 149);"/><path class="cls-28" d="M73.12,127.35V75.9h-25c-1.47,1.64-2.91,3.3-4.32,5H68.05v41.45H26V107.49c-1.81,3.38-3.51,6.84-5.07,10.36v9.5Z" transform="translate(-7.09 -22.34)" style="fill: rgb(113, 229, 173); isolation: isolate; opacity: 0.2;"/><path class="cls-29" d="M26,122.35H68.05V80.9H43.8A161.66,161.66,0,0,0,26,107.49Z" transform="translate(-7.09 -22.34)" style="fill: rgb(113, 229, 173); isolation: isolate; opacity: 0.4;"/><path class="cls-15" d="M105,45.58H84.62q-3,1.83-5.92,3.78v9.87H105Z" transform="translate(-7.09 -22.34)" style="fill: rgb(113, 229, 173); opacity: 0.2;"/><path class="cls-2" d="M119.55,173.89c-7.78,0-14.09,4.16-14.09,9.29h28.19C133.65,178.05,127.34,173.89,119.55,173.89Z" transform="translate(-7.09 -22.34)" style="fill: rgb(255, 255, 255);"/><g class="cls-30" style="isolation: isolate; opacity: 0.2;"><path d="M 82.519999 65.809998 A 0.99 0.99 0 0 1 81.529999 66.799998 A 0.99 0.99 0 0 1 80.539999 65.809998 A 0.99 0.99 0 0 1 81.529999 64.819998 A 0.99 0.99 0 0 1 82.519999 65.809998 Z" class="cls-4" style="fill: rgb(113, 229, 173);"/><path d="M 88.979998 65.809998 A 0.99 0.99 0 0 1 87.989998 66.799998 A 0.99 0.99 0 0 1 86.999998 65.809998 A 0.99 0.99 0 0 1 87.989998 64.819998 A 0.99 0.99 0 0 1 88.979998 65.809998 Z" class="cls-4" style="fill: rgb(113, 229, 173);"/><path d="M 85.619997 68.910004 A 0.99 0.99 0 0 1 84.629997 69.900004 A 0.99 0.99 0 0 1 83.639997 68.910004 A 0.99 0.99 0 0 1 84.629997 67.920004 A 0.99 0.99 0 0 1 85.619997 68.910004 Z" class="cls-4" style="fill: rgb(113, 229, 173);"/></g><g class="cls-30" style="isolation: isolate; opacity: 0.2;"><path d="M 189.269999 43.529999 A 0.99 0.99 0 0 1 188.279999 44.519999 A 0.99 0.99 0 0 1 187.289999 43.529999 A 0.99 0.99 0 0 1 188.279999 42.539999 A 0.99 0.99 0 0 1 189.269999 43.529999 Z" class="cls-4" style="fill: rgb(113, 229, 173);"/><path d="M 195.730006 43.529999 A 0.99 0.99 0 0 1 194.740005 44.519999 A 0.99 0.99 0 0 1 193.750005 43.529999 A 0.99 0.99 0 0 1 194.740005 42.539999 A 0.99 0.99 0 0 1 195.730006 43.529999 Z" class="cls-4" style="fill: rgb(113, 229, 173);"/></g><g class="cls-30" style="isolation: isolate; opacity: 0.2;"><path d="M 208.409998 19.450001 A 0.99 0.99 0 0 1 207.419998 20.440001 A 0.99 0.99 0 0 1 206.429998 19.450001 A 0.99 0.99 0 0 1 207.419998 18.460001 A 0.99 0.99 0 0 1 208.409998 19.450001 Z" class="cls-4" style="fill: rgb(113, 229, 173);"/></g><g class="cls-30" style="isolation: isolate; opacity: 0.2;"><path d="M 112.129999 19.450001 A 0.99 0.99 0 0 1 111.139999 20.440001 A 0.99 0.99 0 0 1 110.149999 19.450001 A 0.99 0.99 0 0 1 111.139999 18.460001 A 0.99 0.99 0 0 1 112.129999 19.450001 Z" class="cls-4" style="fill: rgb(113, 229, 173);"/></g><path class="cls-8" d="M119.62,178a1.4,1.4,0,0,0,1.4-1.39v-2.7c-.48,0-1-.05-1.47-.05s-.89,0-1.32,0v2.71A1.39,1.39,0,0,0,119.62,178Z" transform="translate(-7.09 -22.34)" style="fill: rgb(200, 225, 246);"/><path class="cls-6" d="M297.64,109.07a5.53,5.53,0,0,0-5.51-5.51H277.79a5.53,5.53,0,0,0-5.51,5.51v60h25.36Z" transform="translate(-7.09 -22.34)" style="fill: rgb(163, 172, 180);"/><path d="M 265.130005 155.970001 H 290.630005 V 160.870001 H 265.130005 V 155.970001 Z" class="cls-31" style="fill: url('#Új_mintázatos_színtár_1-9');"/><path class="cls-26" d="M293.44,118.31a8.48,8.48,0,1,1-8.48-8.48A8.48,8.48,0,0,1,293.44,118.31Z" transform="translate(-7.09 -22.34)" style="fill: rgb(243, 245, 249);"/><path class="cls-7" d="M287.82,118a2.86,2.86,0,1,1-2.86-2.86A2.86,2.86,0,0,1,287.82,118Z" transform="translate(-7.09 -22.34)" style="fill: rgb(53, 69, 87);"/><path class="cls-26" d="M293.44,140.86a8.48,8.48,0,1,1-8.48-8.47A8.48,8.48,0,0,1,293.44,140.86Z" transform="translate(-7.09 -22.34)" style="fill: rgb(243, 245, 249);"/><path class="cls-7" d="M287.82,140.58a2.86,2.86,0,1,1-2.86-2.86A2.86,2.86,0,0,1,287.82,140.58Z" transform="translate(-7.09 -22.34)" style="fill: rgb(53, 69, 87);"/><path class="cls-7" d="M292.77,172.38h0l-.39-3.3H277.57l-.39,3.3h0c-1.2,5.47-4.36,5.93-4.36,5.93h24.34S294,177.85,292.77,172.38Z" transform="translate(-7.09 -22.34)" style="fill: rgb(53, 69, 87);"/><g id="book"><path d="M 132.869995 159.130005 H 234.109993 V 160.870005 H 132.869995 V 159.130005 Z" class="cls-32" style="fill: rgb(2, 138, 253);"/><path class="cls-2" d="M214.27,173.21c-10.33-1.8-19.05-3.93-23.63,6.53-4.58-10.46-13.3-8.33-23.63-6.53s-24.53,5.12-24.53,5.12v3.14l48.16,0,48.16,0v-3.14S224.6,175,214.27,173.21Z" transform="translate(-7.09 -22.34)" style="fill: rgb(255, 255, 255);"/><path class="cls-33" d="M190.64,179.74c-4.55,0-5.27,3.47-5.27,3.47l5.27,0,5.27,0S195.19,179.74,190.64,179.74Z" transform="translate(-7.09 -22.34)" style="fill: rgb(114, 214, 254);"/></g><path d="M 156.399994 85.410004 H 210.369995 V 123.920002 H 156.399994 V 85.410004 Z" class="cls-32" style="fill: rgb(2, 138, 253);"/><path d="M 158.149994 86.839996 H 208.609993 V 117.559996 H 158.149994 V 86.839996 Z" class="cls-26" style="fill: rgb(243, 245, 249);"/><path class="cls-34" d="M197,124.91a6.55,6.55,0,1,1-6.55-6.55A6.55,6.55,0,0,1,197,124.91Z" transform="translate(-7.09 -22.34)" style="fill: rgb(253, 137, 87);"/><path d="M 181 98.75 L 181 106.38999938964844 L 187.3300018310547 102.56999969482422 L 181 98.75 Z" class="cls-2" style="fill: rgb(255, 255, 255);"/><path class="cls-34" d="M170.65,143a1.23,1.23,0,1,1-1.23-1.23A1.23,1.23,0,0,1,170.65,143Z" transform="translate(-7.09 -22.34)" style="fill: rgb(253, 137, 87);"/><path class="cls-34" d="M167.54,143.06a1.2,1.2,0,1,1-1.2-1.2A1.21,1.21,0,0,1,167.54,143.06Z" transform="translate(-7.09 -22.34)" style="fill: rgb(253, 137, 87);"/><path class="cls-2" d="M166,143.68h0a.07.07,0,0,1,0-.06v-1.09a.07.07,0,0,1,0-.06.11.11,0,0,1,.08,0l.89.54a.06.06,0,0,1,0,.06.08.08,0,0,1,0,.07l-.89.54Z" transform="translate(-7.09 -22.34)" style="fill: rgb(255, 255, 255);"/><path class="cls-2" d="M169.11,142.3a.13.13,0,0,0-.13.13v1.19a.13.13,0,0,0,.26,0v-1.19A.13.13,0,0,0,169.11,142.3Z" transform="translate(-7.09 -22.34)" style="fill: rgb(255, 255, 255);"/><path class="cls-2" d="M169.73,142.3a.13.13,0,0,0-.13.13v1.19a.13.13,0,1,0,.26,0v-1.19A.13.13,0,0,0,169.73,142.3Z" transform="translate(-7.09 -22.34)" style="fill: rgb(255, 255, 255);"/><path class="cls-2" d="M173.78,143a1.16,1.16,0,1,1-1.16-1.16A1.16,1.16,0,0,1,173.78,143Z" transform="translate(-7.09 -22.34)" style="fill: rgb(255, 255, 255);"/><path class="cls-34" d="M173.69,142.55a1.12,1.12,0,0,1,.09.44,1.2,1.2,0,0,1-.12.51H211v-.95Z" transform="translate(-7.09 -22.34)" style="fill: rgb(253, 137, 87);"/><path d="M 203.919998 120.209999 H 208.609998 V 121.159999 H 203.919998 V 120.209999 Z" class="cls-2" style="fill: rgb(255, 255, 255);"/><path class="cls-35" d="M146.36,90.23v12.31a.88.88,0,0,1-.88.88h-.92v6.51l-5.83-6.51H118.94a.88.88,0,0,1-.89-.88V90.23a.89.89,0,0,1,.89-.89h26.54A.89.89,0,0,1,146.36,90.23Z" transform="translate(-7.09 -22.34)" style="fill: rgb(0, 213, 123);"/><path d="M 116.18 69.949997 H 134.07 V 71.409997 H 116.18 V 69.949997 Z" class="cls-2" style="fill: rgb(255, 255, 255);"/><path d="M 116.18 73.419998 H 134.07 V 74.879998 H 116.18 V 73.419998 Z" class="cls-2" style="fill: rgb(255, 255, 255);"/><path d="M 116.18 76.889999 H 126.22 V 78.349999 H 116.18 V 76.889999 Z" class="cls-2" style="fill: rgb(255, 255, 255);"/><path d="M 30.889999 129.619995 H 35.25 V 133.979995 H 30.889999 V 129.619995 Z" class="cls-26" style="fill: rgb(243, 245, 249);"/></svg>