<?xml version="1.0" encoding="utf-8"?>
<svg id="master-artboard" viewBox="0 0 336 235.2" version="1.1" xmlns="http://www.w3.org/2000/svg" x="0px" y="0px" style="enable-background:new 0 0 336 235.2;" width="336px" height="235.1999969482422px"><defs><radialGradient id="gradient-0" gradientUnits="objectBoundingBox" cx="0.5" cy="0.5" r="0.5" gradientTransform="matrix(-0.9926631236448884, 0.0083848237991333, -0.004138946533203125, -0.999982476234436, 0.998400975484401, 0.9957988858222961)">
                <stop offset="0" style="stop-color: #ffffff"/>
                <stop offset="1" style="stop-color: rgb(204, 204, 204); stop-opacity: 0;"/>
              </radialGradient></defs>

<g transform="matrix(0.998534842706249, 0, 0, 0.998534842706249, 0, 0.17231023585143745)">
		<path d="M 0 0 H 336 V 235.199997 H 0 V 0 Z" class="st0" style="fill: url('#gradient-0');"/>
	</g>
<path d="M 66.800003 56.799999 H 79.700003 V 57.799999 H 66.800003 V 56.799999 Z" class="st1" style="fill: rgb(29, 29, 27);" transform="matrix(1, 0, 0, 1, 0, -7.105427357601002e-15)"/>
<path d="M 59.099998 61.700001 H 69.199999 V 62.700001 H 59.099998 V 61.700001 Z" class="st1" style="fill: rgb(29, 29, 27);" transform="matrix(1, 0, 0, 1, 0, -7.105427357601002e-15)"/>
<path d="M 201.800003 163.199997 H 214.700003 V 164.199997 H 201.800003 V 163.199997 Z" class="st1" style="fill: rgb(29, 29, 27);" transform="matrix(1, 0, 0, 1, 0, -7.105427357601002e-15)"/>
<path d="M 194.100006 168.199997 H 204.200006 V 169.199997 H 194.100006 V 168.199997 Z" class="st1" style="fill: rgb(29, 29, 27);" transform="matrix(1, 0, 0, 1, 0, -7.105427357601002e-15)"/>
<path d="M 311.399994 93.400002 H 324.299994 V 94.400002 H 311.399994 V 93.400002 Z" class="st1" style="fill: rgb(29, 29, 27);" transform="matrix(1, 0, 0, 1, 0, -7.105427357601002e-15)"/>
<path d="M 308.799988 102.5 H 321.699987 V 103.5 H 308.799988 V 102.5 Z" class="st1" style="fill: rgb(29, 29, 27);" transform="matrix(1, 0, 0, 1, 0, -7.105427357601002e-15)"/>
<path d="M 303.799988 98.400002 H 313.899988 V 99.400002 H 303.799988 V 98.400002 Z" class="st1" style="fill: rgb(29, 29, 27);" transform="matrix(1, 0, 0, 1, 0, -7.105427357601002e-15)"/>
<path d="M 252.899994 102.099998 H 265.799994 V 103.099998 H 252.899994 V 102.099998 Z" class="st1" style="fill: rgb(29, 29, 27);" transform="matrix(1, 0, 0, 1, 0, -7.105427357601002e-15)"/>
<path d="M 247.800003 106.199997 H 257.900003 V 107.199997 H 247.800003 V 106.199997 Z" class="st1" style="fill: rgb(29, 29, 27);" transform="matrix(1, 0, 0, 1, 0, -7.105427357601002e-15)"/>
<path d="M 65.5 215.5 H 78.4 V 216.5 H 65.5 V 215.5 Z" class="st1" style="fill: rgb(29, 29, 27);" transform="matrix(1, 0, 0, 1, 0, -7.105427357601002e-15)"/>
<path d="M 62.900002 224.5 H 75.800001 V 225.5 H 62.900002 V 224.5 Z" class="st1" style="fill: rgb(29, 29, 27);" transform="matrix(1, 0, 0, 1, 0, -7.105427357601002e-15)"/>
<path d="M 57.799999 220.399994 H 67.9 V 221.399994 H 57.799999 V 220.399994 Z" class="st1" style="fill: rgb(29, 29, 27);" transform="matrix(1, 0, 0, 1, 0, -7.105427357601002e-15)"/>
<path d="M 13.8 172.800003 H 26.7 V 173.800003 H 13.8 V 172.800003 Z" class="st1" style="fill: rgb(29, 29, 27);" transform="matrix(1, 0, 0, 1, 0, -7.105427357601002e-15)"/>
<path d="M 11.2 181.899994 H 24.099999 V 182.899994 H 11.2 V 181.899994 Z" class="st1" style="fill: rgb(29, 29, 27);" transform="matrix(1, 0, 0, 1, 0, -7.105427357601002e-15)"/>
<path d="M 6.1 177.800003 H 16.2 V 178.800003 H 6.1 V 177.800003 Z" class="st1" style="fill: rgb(29, 29, 27);" transform="matrix(1, 0, 0, 1, 0, -7.105427357601002e-15)"/>
<path d="M 298.799988 112.800003 H 313.899988 V 113.800003 H 298.799988 V 112.800003 Z" class="st1" style="fill: rgb(29, 29, 27);" transform="matrix(1, 0, 0, 1, 0, -7.105427357601002e-15)"/>
<path d="M 309.700012 117.099998 H 320.800013 V 118.099998 H 309.700012 V 117.099998 Z" class="st1" style="fill: rgb(29, 29, 27);" transform="matrix(1, 0, 0, 1, 0, -7.105427357601002e-15)"/>
<path d="M 250.199997 137.899994 H 261.299997 V 138.899994 H 250.199997 V 137.899994 Z" class="st1" style="fill: rgb(29, 29, 27);" transform="matrix(1, 0, 0, 1, 0, -7.105427357601002e-15)"/>
<path d="M 309.700012 70.5 H 320.800013 V 71.5 H 309.700012 V 70.5 Z" class="st1" style="fill: rgb(29, 29, 27);" transform="matrix(1, 0, 0, 1, 0, -7.105427357601002e-15)"/>
<path d="M 176.600006 52.5 H 195.200006 V 53.5 H 176.600006 V 52.5 Z" class="st1" style="fill: rgb(29, 29, 27);" transform="matrix(1, 0, 0, 1, 0, -7.105427357601002e-15)"/>
<path d="M 303.100006 141.800003 H 314.200006 V 142.800003 H 303.100006 V 141.800003 Z" class="st1" style="fill: rgb(29, 29, 27);" transform="matrix(1, 0, 0, 1, 0, -7.105427357601002e-15)"/>
<path d="M 308.100006 225 H 319.200006 V 226 H 308.100006 V 225 Z" class="st1" style="fill: rgb(29, 29, 27);" transform="matrix(1, 0, 0, 1, 0, -7.105427357601002e-15)"/>
<path d="M 234.800003 220.399994 H 245.900003 V 221.399994 H 234.800003 V 220.399994 Z" class="st1" style="fill: rgb(29, 29, 27);" transform="matrix(1, 0, 0, 1, 0, -7.105427357601002e-15)"/>
<path d="M 211.600006 208.5 H 222.700006 V 209.5 H 211.600006 V 208.5 Z" class="st1" style="fill: rgb(29, 29, 27);" transform="matrix(1, 0, 0, 1, 0, -7.105427357601002e-15)"/>
<path d="M 12.7 216.5 H 23.8 V 217.5 H 12.7 V 216.5 Z" class="st1" style="fill: rgb(29, 29, 27);" transform="matrix(1, 0, 0, 1, 0, -7.105427357601002e-15)"/>
<path d="M 63.700001 118.400002 H 74.800001 V 119.400002 H 63.700001 V 118.400002 Z" class="st1" style="fill: rgb(29, 29, 27);" transform="matrix(1, 0, 0, 1, 0, -7.105427357601002e-15)"/>
<path d="M 19.9 38.200001 H 31 V 39.200001 H 19.9 V 38.200001 Z" class="st1" style="fill: rgb(29, 29, 27);" transform="matrix(1, 0, 0, 1, 0, -7.105427357601002e-15)"/>
<path d="M 102.699997 12.1 H 113.799997 V 13.1 H 102.699997 V 12.1 Z" class="st1" style="fill: rgb(29, 29, 27);" transform="matrix(1, 0, 0, 1, 0, -7.105427357601002e-15)"/>
<path d="M 162.899994 18.4 H 173.999994 V 19.4 H 162.899994 V 18.4 Z" class="st1" style="fill: rgb(29, 29, 27);" transform="matrix(1, 0, 0, 1, 0, -7.105427357601002e-15)"/>
<path d="M 168.5 13.6 H 179.6 V 14.6 H 168.5 V 13.6 Z" class="st1" style="fill: rgb(29, 29, 27);" transform="matrix(1, 0, 0, 1, 0, -7.105427357601002e-15)"/>
<path d="M 252.899994 165.699997 H 267.999994 V 166.699997 H 252.899994 V 165.699997 Z" class="st1" style="fill: rgb(29, 29, 27);" transform="matrix(1, 0, 0, 1, 0, -7.105427357601002e-15)"/>
<path d="M 263.799988 170 H 274.899988 V 171 H 263.799988 V 170 Z" class="st1" style="fill: rgb(29, 29, 27);" transform="matrix(1, 0, 0, 1, 0, -7.105427357601002e-15)"/>
<path d="M 261.899994 8.5 H 276.999994 V 9.5 H 261.899994 V 8.5 Z" class="st1" style="fill: rgb(29, 29, 27);" transform="matrix(1, 0, 0, 1, 0, -7.105427357601002e-15)"/>
<path d="M 272.799988 12.8 H 283.899988 V 13.8 H 272.799988 V 12.8 Z" class="st1" style="fill: rgb(29, 29, 27);" transform="matrix(1, 0, 0, 1, 0, -7.105427357601002e-15)"/>
<path d="M 127.5 215.699997 H 142.6 V 216.699997 H 127.5 V 215.699997 Z" class="st1" style="fill: rgb(29, 29, 27);" transform="matrix(1, 0, 0, 1, 0, -7.105427357601002e-15)"/>
<path d="M 138.399994 219.899994 H 149.499994 V 220.899994 H 138.399994 V 219.899994 Z" class="st1" style="fill: rgb(29, 29, 27);" transform="matrix(1, 0, 0, 1, 0, -7.105427357601002e-15)"/>
<path d="M 14.6 10.6 H 29.700001 V 11.6 H 14.6 V 10.6 Z" class="st1" style="fill: rgb(29, 29, 27);" transform="matrix(1, 0, 0, 1, 0, -7.105427357601002e-15)"/>
<path d="M 25.5 14.9 H 36.6 V 15.9 H 25.5 V 14.9 Z" class="st1" style="fill: rgb(29, 29, 27);" transform="matrix(1, 0, 0, 1, 0, -7.105427357601002e-15)"/>
<path d="M 65.900002 68.199997 H 68.100002 V 69.199997 H 65.900002 V 68.199997 Z" class="st1" style="fill: rgb(29, 29, 27);" transform="matrix(1, 0, 0, 1, 0, -7.105427357601002e-15)"/>
<path d="M 72 68.199997 H 74.2 V 69.199997 H 72 V 68.199997 Z" class="st1" style="fill: rgb(29, 29, 27);" transform="matrix(1, 0, 0, 1, 0, -7.105427357601002e-15)"/>
<path d="M 16 197 H 18.2 V 198 H 16 V 197 Z" class="st1" style="fill: rgb(29, 29, 27);" transform="matrix(1, 0, 0, 1, 0, -7.105427357601002e-15)"/>
<path d="M 22.200001 197 H 24.400001 V 198 H 22.200001 V 197 Z" class="st1" style="fill: rgb(29, 29, 27);" transform="matrix(1, 0, 0, 1, 0, -7.105427357601002e-15)"/>
<path d="M 136.100006 50.799999 H 138.300006 V 51.799999 H 136.100006 V 50.799999 Z" class="st1" style="fill: rgb(29, 29, 27);" transform="matrix(1, 0, 0, 1, 0, -7.105427357601002e-15)"/>
<path d="M 142.300003 50.799999 H 144.500003 V 51.799999 H 142.300003 V 50.799999 Z" class="st1" style="fill: rgb(29, 29, 27);" transform="matrix(1, 0, 0, 1, 0, -7.105427357601002e-15)"/>
<path d="M 259.700012 60.5 H 261.900012 V 61.5 H 259.700012 V 60.5 Z" class="st1" style="fill: rgb(29, 29, 27);" transform="matrix(1, 0, 0, 1, 0, -7.105427357601002e-15)"/>
<path d="M 265.899994 60.5 H 268.099994 V 61.5 H 265.899994 V 60.5 Z" class="st1" style="fill: rgb(29, 29, 27);" transform="matrix(1, 0, 0, 1, 0, -7.105427357601002e-15)"/>
<path d="M 161.100006 171.199997 H 163.300006 V 172.199997 H 161.100006 V 171.199997 Z" class="st1" style="fill: rgb(29, 29, 27);" transform="matrix(1, 0, 0, 1, 0, -7.105427357601002e-15)"/>
<path d="M 167.300003 171.199997 H 169.500003 V 172.199997 H 167.300003 V 171.199997 Z" class="st1" style="fill: rgb(29, 29, 27);" transform="matrix(1, 0, 0, 1, 0, -7.105427357601002e-15)"/>
<path d="M 316.700012 56.799999 H 318.900012 V 57.799999 H 316.700012 V 56.799999 Z" class="st1" style="fill: rgb(29, 29, 27);" transform="matrix(1, 0, 0, 1, 0, -7.105427357601002e-15)"/>
<path d="M 322.799988 56.799999 H 324.999988 V 57.799999 H 322.799988 V 56.799999 Z" class="st1" style="fill: rgb(29, 29, 27);" transform="matrix(1, 0, 0, 1, 0, -7.105427357601002e-15)"/>
<path d="M 314.700012 162.100006 H 316.900012 V 163.100006 H 314.700012 V 162.100006 Z" class="st1" style="fill: rgb(29, 29, 27);" transform="matrix(1, 0, 0, 1, 0, -7.105427357601002e-15)"/>
<path d="M 320.899994 162.100006 H 323.099994 V 163.100006 H 320.899994 V 162.100006 Z" class="st1" style="fill: rgb(29, 29, 27);" transform="matrix(1, 0, 0, 1, 0, -7.105427357601002e-15)"/>
<path d="M 299.600006 128.899994 H 301.800006 V 129.899994 H 299.600006 V 128.899994 Z" class="st1" style="fill: rgb(29, 29, 27);" transform="matrix(1, 0, 0, 1, 0, -7.105427357601002e-15)"/>
<path d="M 305.700012 128.899994 H 307.900012 V 129.899994 H 305.700012 V 128.899994 Z" class="st1" style="fill: rgb(29, 29, 27);" transform="matrix(1, 0, 0, 1, 0, -7.105427357601002e-15)"/>
<path d="M 311.399994 128.899994 H 313.599994 V 129.899994 H 311.399994 V 128.899994 Z" class="st1" style="fill: rgb(29, 29, 27);" transform="matrix(1, 0, 0, 1, 0, -7.105427357601002e-15)"/>
<path d="M 317.100006 128.899994 H 319.300006 V 129.899994 H 317.100006 V 128.899994 Z" class="st1" style="fill: rgb(29, 29, 27);" transform="matrix(1, 0, 0, 1, 0, -7.105427357601002e-15)"/>
<path d="M 284.600006 225 H 286.800006 V 226 H 284.600006 V 225 Z" class="st1" style="fill: rgb(29, 29, 27);" transform="matrix(1, 0, 0, 1, 0, -7.105427357601002e-15)"/>
<path d="M 290.200012 225 H 292.400012 V 226 H 290.200012 V 225 Z" class="st1" style="fill: rgb(29, 29, 27);" transform="matrix(1, 0, 0, 1, 0, -7.105427357601002e-15)"/>
<path d="M 295.899994 225 H 298.099994 V 226 H 295.899994 V 225 Z" class="st1" style="fill: rgb(29, 29, 27);" transform="matrix(1, 0, 0, 1, 0, -7.105427357601002e-15)"/>
<path d="M 113.699997 220.399994 H 115.899997 V 221.399994 H 113.699997 V 220.399994 Z" class="st1" style="fill: rgb(29, 29, 27);" transform="matrix(1, 0, 0, 1, 0, -7.105427357601002e-15)"/>
<path d="M 119.400002 220.399994 H 121.600002 V 221.399994 H 119.400002 V 220.399994 Z" class="st1" style="fill: rgb(29, 29, 27);" transform="matrix(1, 0, 0, 1, 0, -7.105427357601002e-15)"/>
<path d="M 125.099998 220.399994 H 127.299999 V 221.399994 H 125.099998 V 220.399994 Z" class="st1" style="fill: rgb(29, 29, 27);" transform="matrix(1, 0, 0, 1, 0, -7.105427357601002e-15)"/>
<path class="st1" d="M18.2,51.2c-1.7,0-3-1.4-3-3c0-1.7,1.4-3,3-3c1.7,0,3,1.4,3,3C21.3,49.8,19.9,51.2,18.2,51.2z M18.2,46.2&#10;&#9;&#9;c-1.1,0-2,0.9-2,2c0,1.1,0.9,2,2,2c1.1,0,2-0.9,2-2C20.3,47.1,19.3,46.2,18.2,46.2z" style="fill: rgb(29, 29, 27);" transform="matrix(1, 0, 0, 1, 0, -7.105427357601002e-15)"/>
<path class="st1" d="M13.2,147.9c-1.7,0-3-1.4-3-3c0-1.7,1.4-3,3-3s3,1.4,3,3C16.2,146.6,14.9,147.9,13.2,147.9z M13.2,142.9&#10;&#9;&#9;c-1.1,0-2,0.9-2,2c0,1.1,0.9,2,2,2c1.1,0,2-0.9,2-2C15.2,143.8,14.3,142.9,13.2,142.9z" style="fill: rgb(29, 29, 27);" transform="matrix(1, 0, 0, 1, 0, -7.105427357601002e-15)"/>
<path class="st1" d="M49.8,223.4c-1.7,0-3-1.4-3-3c0-1.7,1.4-3,3-3c1.7,0,3,1.4,3,3C52.8,222.1,51.5,223.4,49.8,223.4z M49.8,218.4&#10;&#9;&#9;c-1.1,0-2,0.9-2,2c0,1.1,0.9,2,2,2c1.1,0,2-0.9,2-2C51.8,219.3,50.9,218.4,49.8,218.4z" style="fill: rgb(29, 29, 27);" transform="matrix(1, 0, 0, 1, 0, -7.105427357601002e-15)"/>
<path class="st1" d="M185.3,172.2c-1.7,0-3-1.4-3-3c0-1.7,1.4-3,3-3c1.7,0,3,1.4,3,3C188.3,170.8,187,172.2,185.3,172.2z&#10;&#9;&#9; M185.3,167.2c-1.1,0-2,0.9-2,2c0,1.1,0.9,2,2,2c1.1,0,2-0.9,2-2C187.3,168.1,186.4,167.2,185.3,167.2z" style="fill: rgb(29, 29, 27);" transform="matrix(1, 0, 0, 1, 0, -7.105427357601002e-15)"/>
<path class="st1" d="M223.4,223.4c-1.7,0-3-1.4-3-3c0-1.7,1.4-3,3-3s3,1.4,3,3C226.4,222.1,225,223.4,223.4,223.4z M223.4,218.4&#10;&#9;&#9;c-1.1,0-2,0.9-2,2c0,1.1,0.9,2,2,2c1.1,0,2-0.9,2-2C225.4,219.3,224.5,218.4,223.4,218.4z" style="fill: rgb(29, 29, 27);" transform="matrix(1, 0, 0, 1, 0, -7.105427357601002e-15)"/>
<path class="st1" d="M311.2,154.9c-1.7,0-3-1.4-3-3c0-1.7,1.4-3,3-3c1.7,0,3,1.4,3,3C314.2,153.5,312.8,154.9,311.2,154.9z&#10;&#9;&#9; M311.2,149.8c-1.1,0-2,0.9-2,2c0,1.1,0.9,2,2,2c1.1,0,2-0.9,2-2C313.2,150.7,312.3,149.8,311.2,149.8z" style="fill: rgb(29, 29, 27);" transform="matrix(1, 0, 0, 1, 0, -7.105427357601002e-15)"/>
<path class="st1" d="M266.4,79.3c-1.7,0-3-1.4-3-3c0-1.7,1.4-3,3-3c1.7,0,3,1.4,3,3C269.4,77.9,268.1,79.3,266.4,79.3z M266.4,74.2&#10;&#9;&#9;c-1.1,0-2,0.9-2,2c0,1.1,0.9,2,2,2c1.1,0,2-0.9,2-2C268.4,75.1,267.5,74.2,266.4,74.2z" style="fill: rgb(29, 29, 27);" transform="matrix(1, 0, 0, 1, 0, -7.105427357601002e-15)"/>
<path class="st1" d="M317.3,18.2c-1.7,0-3-1.4-3-3c0-1.7,1.4-3,3-3c1.7,0,3,1.4,3,3C320.3,16.8,319,18.2,317.3,18.2z M317.3,13.1&#10;&#9;&#9;c-1.1,0-2,0.9-2,2c0,1.1,0.9,2,2,2s2-0.9,2-2C319.3,14,318.4,13.1,317.3,13.1z" style="fill: rgb(29, 29, 27);" transform="matrix(1, 0, 0, 1, 0, -7.105427357601002e-15)"/>
<path class="st1" d="M87.3,16.7c-1.7,0-3-1.4-3-3c0-1.7,1.4-3,3-3c1.7,0,3,1.4,3,3C90.3,15.3,89,16.7,87.3,16.7z M87.3,11.6&#10;&#9;&#9;c-1.1,0-2,0.9-2,2c0,1.1,0.9,2,2,2c1.1,0,2-0.9,2-2C89.3,12.6,88.4,11.6,87.3,11.6z" style="fill: rgb(29, 29, 27);" transform="matrix(1, 0, 0, 1, 0, -7.105427357601002e-15)"/>
<path class="st2" d="M315,195.1c1.6-2.7,2.6-5.7,2.6-9c0-9.8-7.9-17.7-17.7-17.7c-8.1,0-14.9,5.5-16.9,12.9&#10;&#9;&#9;c-2.4-2.5-5.8-4.1-9.6-4.1c-7.3,0-13.3,5.9-13.3,13.3c0,1.6,0.3,3.1,0.8,4.5c-0.3,0-0.6-0.1-0.8-0.1c-4.9,0-8.8,6.2-8.8,11&#10;&#9;&#9;c0,4.9,4,11,8.8,11h53c4.9,0,8.8-6.2,8.8-11C322,201.7,319,195.9,315,195.1z" style="fill: rgb(184, 238, 255);" transform="matrix(1, 0, 0, 1, 0, -7.105427357601002e-15)"/><path class="st1" d="M313.2,217.5h-53c-5.2,0-9.3-6.3-9.3-11.5c0-5.2,4.2-11.5,9.3-11.5c0,0,0.1,0,0.1,0c-0.4-1.3-0.6-2.6-0.6-3.9&#10;&#9;&#9;c0-7.6,6.2-13.8,13.8-13.8c3.5,0,6.8,1.3,9.3,3.7c2.4-7.4,9.4-12.5,17.2-12.5c10,0,18.2,8.2,18.2,18.2c0,3-0.8,6-2.3,8.7&#10;&#9;&#9;c3.8,1.3,6.7,6.9,6.7,11.2C322.5,211.1,318.4,217.5,313.2,217.5z M260.2,195.4c-4.5,0-8.3,5.8-8.3,10.5c0,4.7,3.8,10.5,8.3,10.5h53&#10;&#9;&#9;c4.5,0,8.3-5.8,8.3-10.5c0-4.1-2.9-9.6-6.6-10.4l-0.7-0.1l0.4-0.6c1.7-2.8,2.5-5.7,2.5-8.8c0-9.5-7.7-17.2-17.2-17.2&#10;&#9;&#9;c-7.6,0-14.4,5.2-16.5,12.6l-0.2,0.8l-0.6-0.6c-2.4-2.5-5.7-4-9.2-4c-7,0-12.8,5.7-12.8,12.8c0,1.4,0.3,2.8,0.8,4.3l0.3,0.7&#10;&#9;&#9;l-0.8-0.1c-0.1,0-0.2,0-0.3,0C260.5,195.4,260.3,195.4,260.2,195.4z" style="fill: rgb(29, 29, 27);" transform="matrix(1, 0, 0, 1, 0, -7.105427357601002e-15)"/>
<g transform="matrix(1, 0, 0, 1, 0, -7.105427357601002e-15)">
		<path class="st3" d="M291.4,72c3.7,0,6.6-3,6.6-6.6h-13.3C284.7,69,287.7,72,291.4,72z" style="fill: rgb(255, 163, 130);"/>
		<path class="st1" d="M291.4,72.5c-3.9,0-7.1-3.2-7.1-7.1v-0.5h14.3v0.5C298.5,69.3,295.3,72.5,291.4,72.5z M285.2,65.9&#10;&#9;&#9;&#9;c0.3,3.2,2.9,5.6,6.1,5.6c3.2,0,5.9-2.5,6.1-5.6H285.2z" style="fill: rgb(29, 29, 27);"/>
	</g><path class="st3" d="M291.4,18.9c-11,0-19.9,8.9-19.9,19.9c0,7.8,4.5,14.6,11.1,17.9l2.2,5.4H298l2.2-5.4&#10;&#9;&#9;&#9;c6.6-3.3,11.1-10,11.1-17.9C311.3,27.8,302.4,18.9,291.4,18.9z" style="fill: rgb(255, 163, 130);" transform="matrix(1, 0, 0, 1, 0, -1.4210854715202004e-14)"/><path class="st1" d="M298.3,62.6h-14l-2.2-5.5c-6.9-3.5-11.2-10.5-11.2-18.2c0-11.3,9.2-20.4,20.4-20.4c11.3,0,20.4,9.2,20.4,20.4&#10;&#9;&#9;&#9;c0,7.8-4.3,14.7-11.2,18.2L298.3,62.6z M285.1,61.6h12.6l2.1-5.3l0.2-0.1c6.7-3.3,10.9-10,10.9-17.4c0-10.7-8.7-19.4-19.4-19.4&#10;&#9;&#9;&#9;c-10.7,0-19.4,8.7-19.4,19.4c0,7.4,4.2,14.1,10.9,17.4l0.2,0.1L285.1,61.6z" style="fill: rgb(29, 29, 27);" transform="matrix(1, 0, 0, 1, 0, -1.4210854715202004e-14)"/>
<path class="st3" d="M69.7,38l-4-2.3c0.1-0.7,0.2-1.4,0.2-2.1c0-0.7-0.1-1.4-0.2-2.1l4-2.3c1.9-1.1,2.5-3.5,1.4-5.3&#10;&#9;&#9;c-1.1-1.9-3.5-2.5-5.3-1.4l-4,2.3c-1.1-0.9-2.3-1.6-3.6-2.1V18c0-2.1-1.7-3.9-3.9-3.9c-2.2,0-3.9,1.7-3.9,3.9v4.6&#10;&#9;&#9;c-1.4,0.5-2.6,1.2-3.6,2.1l-4-2.3c-1.9-1.1-4.3-0.4-5.3,1.4c-1.1,1.9-0.4,4.2,1.4,5.3l4,2.3c-0.1,0.7-0.2,1.4-0.2,2.1&#10;&#9;&#9;c0,0.7,0.1,1.4,0.2,2.1l-4,2.3c-1.9,1.1-2.5,3.5-1.4,5.3c1.1,1.9,3.5,2.5,5.3,1.4l4-2.3c1.1,0.9,2.3,1.6,3.7,2.1v4.6&#10;&#9;&#9;c0,2.2,1.7,3.9,3.9,3.9c2.2,0,3.9-1.7,3.9-3.9v-4.6c1.4-0.5,2.6-1.2,3.6-2.1l4,2.3c1.9,1.1,4.2,0.4,5.3-1.4&#10;&#9;&#9;C72.2,41.4,71.6,39,69.7,38z M50.4,33.6c0-2.2,1.7-3.9,3.9-3.9c2.2,0,3.9,1.7,3.9,3.9c0,2.2-1.7,3.9-3.9,3.9&#10;&#9;&#9;C52.1,37.4,50.4,35.7,50.4,33.6z" style="fill: rgb(255, 163, 130);" transform="matrix(1, 0, 0, 1, 0, -7.105427357601002e-15)"/><path class="st1" d="M54.3,53.5c-2.4,0-4.4-2-4.4-4.4v-4.3c-1.1-0.4-2.2-1.1-3.2-1.9L43,45.1c-0.7,0.4-1.4,0.6-2.2,0.6&#10;&#9;&#9;c-1.6,0-3-0.8-3.8-2.2c-0.6-1-0.7-2.2-0.4-3.3c0.3-1.1,1-2.1,2.1-2.7l3.7-2.1c-0.1-0.7-0.2-1.3-0.2-1.9c0-0.6,0.1-1.2,0.2-1.9&#10;&#9;&#9;l-3.7-2.1c-2.1-1.2-2.8-3.9-1.6-6c0.8-1.4,2.2-2.2,3.8-2.2c0.8,0,1.5,0.2,2.2,0.6l3.7,2.1c1-0.8,2.1-1.4,3.2-1.9V18&#10;&#9;&#9;c0-2.4,2-4.4,4.4-4.4c2.4,0,4.4,2,4.4,4.4v4.3c1.1,0.4,2.2,1.1,3.2,1.9l3.7-2.1c0.7-0.4,1.4-0.6,2.2-0.6c1.6,0,3,0.8,3.8,2.2&#10;&#9;&#9;c1.2,2.1,0.5,4.8-1.6,6l-3.7,2.1c0.1,0.7,0.2,1.3,0.2,1.9c0,0.6-0.1,1.2-0.2,1.9l3.7,2.1c2.1,1.2,2.8,3.9,1.6,6&#10;&#9;&#9;c-0.8,1.4-2.2,2.2-3.8,2.2l0,0c-0.8,0-1.5-0.2-2.2-0.6L61.9,43c-1,0.8-2,1.4-3.2,1.9v4.3C58.7,51.6,56.7,53.5,54.3,53.5z&#10;&#9;&#9; M46.8,41.8L47,42c1.1,0.9,2.2,1.6,3.5,2l0.3,0.1v5c0,1.9,1.5,3.4,3.4,3.4c1.9,0,3.4-1.5,3.4-3.4v-5l0.3-0.1c1.3-0.5,2.4-1.1,3.5-2&#10;&#9;&#9;l0.3-0.2l4.3,2.5c0.5,0.3,1.1,0.5,1.7,0.5c1.2,0,2.3-0.6,2.9-1.7c0.9-1.6,0.4-3.7-1.2-4.6l-4.3-2.5l0.1-0.3c0.1-0.7,0.2-1.4,0.2-2&#10;&#9;&#9;c0-0.6-0.1-1.3-0.2-2l-0.1-0.4l4.3-2.5c1.6-0.9,2.2-3,1.2-4.6c-0.6-1-1.7-1.7-2.9-1.7c-0.6,0-1.2,0.2-1.7,0.5l-4.3,2.5l-0.3-0.2&#10;&#9;&#9;c-1-0.9-2.2-1.6-3.5-2l-0.3-0.1v-5c0-1.9-1.5-3.4-3.4-3.4c-1.9,0-3.4,1.5-3.4,3.4v5l-0.3,0.1c-1.3,0.5-2.4,1.1-3.5,2l-0.3,0.2&#10;&#9;&#9;l-4.3-2.5c-0.5-0.3-1.1-0.5-1.7-0.5c-1.2,0-2.3,0.7-2.9,1.7c-0.9,1.6-0.4,3.7,1.2,4.6l4.3,2.5l-0.1,0.3c-0.1,0.7-0.2,1.4-0.2,2&#10;&#9;&#9;c0,0.6,0.1,1.3,0.2,2l0.1,0.3l-4.3,2.5c-0.8,0.5-1.3,1.2-1.6,2.1c-0.2,0.9-0.1,1.8,0.3,2.6c0.6,1,1.7,1.7,2.9,1.7&#10;&#9;&#9;c0.6,0,1.2-0.2,1.7-0.5L46.8,41.8z M54.3,37.9c-2.4,0-4.4-2-4.4-4.4c0-2.4,2-4.4,4.4-4.4c2.4,0,4.4,2,4.4,4.4&#10;&#9;&#9;C58.7,36,56.7,37.9,54.3,37.9z M54.3,30.2c-1.9,0-3.4,1.5-3.4,3.4c0,1.9,1.5,3.4,3.4,3.4c1.9,0,3.4-1.5,3.4-3.4&#10;&#9;&#9;C57.7,31.7,56.1,30.2,54.3,30.2z" style="fill: rgb(29, 29, 27);" transform="matrix(1, 0, 0, 1, 0, -7.105427357601002e-15)"/>
<g transform="matrix(1, 0, 0, 1, 0, -7.105427357601002e-15)">
		<path d="M 172 216.3000030517578 L 193.60000610351562 198.3000030517578 L 172 180.3000030517578 Z" class="st3" style="fill: rgb(255, 163, 130);"/>
		<path class="st1" d="M171.5,217.3v-38.1l22.9,19.1L171.5,217.3z M172.5,181.3v33.9l20.3-16.9L172.5,181.3z" style="fill: rgb(29, 29, 27);"/>
	</g><path d="M 193.60000610351562 198.3000030517578 L 193.60000610351562 216.3000030517578 L 215.1999969482422 198.3000030517578 L 193.60000610351562 180.3000030517578 Z" class="st3" style="fill: rgb(255, 163, 130);" transform="matrix(1, 0, 0, 1, 0, -1.4210854715202004e-14)"/><path class="st1" d="M193.1,217.3v-38.1l22.9,19.1L193.1,217.3z M194.1,181.3v33.9l20.3-16.9L194.1,181.3z" style="fill: rgb(29, 29, 27);" transform="matrix(1, 0, 0, 1, 0, -1.4210854715202004e-14)"/>
<path d="M 89.5 61 H 240.399994 V 157.699997 H 89.5 V 61 Z" class="st2" style="fill: rgb(184, 238, 255);" transform="matrix(1, 0, 0, 1, 0, -7.105427357601002e-15)"/><path class="st1" d="M240.9,158.2H89V60.5h151.9V158.2z M90,157.2h149.9V61.5H90V157.2z" style="fill: rgb(29, 29, 27);" transform="matrix(1, 0, 0, 1, 0, -7.105427357601002e-15)"/>
<path d="M 89.5 60.599998 H 240.399994 V 77.999998 H 89.5 V 60.599998 Z" class="st4" style="fill: rgb(62, 39, 35);" transform="matrix(1, 0, 0, 1, 0, -7.105427357601002e-15)"/><path class="st1" d="M240.9,78.5H89V60.1h151.9V78.5z M90,77.5h149.9V61.1H90V77.5z" style="fill: rgb(29, 29, 27);" transform="matrix(1, 0, 0, 1, 0, -7.105427357601002e-15)"/>
<g transform="matrix(1, 0, 0, 1, 0, -7.105427357601002e-15)">
		<g>
			<path class="st2" d="M208.4,69.3c0,2-1.7,3.7-3.7,3.7c-2,0-3.7-1.6-3.7-3.7c0-2,1.7-3.7,3.7-3.7&#10;&#9;&#9;&#9;&#9;C206.8,65.6,208.4,67.2,208.4,69.3z" style="fill: rgb(184, 238, 255);"/>
			<path class="st1" d="M204.7,73.5c-2.3,0-4.2-1.9-4.2-4.2c0-2.3,1.9-4.2,4.2-4.2c2.3,0,4.2,1.9,4.2,4.2&#10;&#9;&#9;&#9;&#9;C208.9,71.6,207,73.5,204.7,73.5z M204.7,66.1c-1.8,0-3.2,1.4-3.2,3.2c0,1.8,1.4,3.2,3.2,3.2c1.8,0,3.2-1.4,3.2-3.2&#10;&#9;&#9;&#9;&#9;C207.9,67.5,206.5,66.1,204.7,66.1z" style="fill: rgb(29, 29, 27);"/>
		</g>
	</g>
<g transform="matrix(1, 0, 0, 1, 0, -7.105427357601002e-15)">
		<g>
			<path class="st4" d="M220.8,69.3c0,2-1.7,3.7-3.7,3.7c-2,0-3.7-1.6-3.7-3.7c0-2,1.7-3.7,3.7-3.7&#10;&#9;&#9;&#9;&#9;C219.2,65.6,220.8,67.2,220.8,69.3z" style="fill: rgb(133, 147, 173);"/>
			<path class="st1" d="M217.1,73.5c-2.3,0-4.2-1.9-4.2-4.2c0-2.3,1.9-4.2,4.2-4.2s4.2,1.9,4.2,4.2&#10;&#9;&#9;&#9;&#9;C221.3,71.6,219.5,73.5,217.1,73.5z M217.1,66.1c-1.8,0-3.2,1.4-3.2,3.2c0,1.8,1.4,3.2,3.2,3.2c1.8,0,3.2-1.4,3.2-3.2&#10;&#9;&#9;&#9;&#9;C220.3,67.5,218.9,66.1,217.1,66.1z" style="fill: rgb(29, 29, 27);"/>
		</g>
	</g>
<g transform="matrix(1, 0, 0, 1, 0, -7.105427357601002e-15)">
		<g>
			<path class="st3" d="M233.3,69.3c0,2-1.6,3.7-3.7,3.7c-2,0-3.7-1.6-3.7-3.7c0-2,1.7-3.7,3.7-3.7&#10;&#9;&#9;&#9;&#9;C231.6,65.6,233.3,67.2,233.3,69.3z" style="fill: rgb(255, 163, 130);"/>
			<path class="st1" d="M229.6,73.5c-2.3,0-4.2-1.9-4.2-4.2c0-2.3,1.9-4.2,4.2-4.2c2.3,0,4.2,1.9,4.2,4.2&#10;&#9;&#9;&#9;&#9;C233.8,71.6,231.9,73.5,229.6,73.5z M229.6,66.1c-1.8,0-3.2,1.4-3.2,3.2c0,1.8,1.4,3.2,3.2,3.2c1.8,0,3.2-1.4,3.2-3.2&#10;&#9;&#9;&#9;&#9;C232.8,67.5,231.3,66.1,229.6,66.1z" style="fill: rgb(29, 29, 27);"/>
		</g>
	</g>
<g transform="matrix(1, 0, 0, 1, 0, -7.105427357601002e-15)">
		<g>
			<g>
				<path d="M 103.099998 129.300003 H 151 V 138.200003 H 103.099998 V 129.300003 Z" class="st4" style="fill: rgb(133, 147, 173);"/>
				<path class="st1" d="M151.5,138.7h-48.9v-9.9h48.9V138.7z M103.6,137.7h46.9v-7.9h-46.9V137.7z" style="fill: rgb(29, 29, 27);"/>
			</g>
		</g>
	</g><g transform="matrix(1, 0, 0, 1, 0, -1.4210854715202004e-14)">
			<g>
				<path d="M 159.5 129.300003 H 226.400002 V 138.200003 H 159.5 V 129.300003 Z" class="st4" style="fill: rgb(133, 147, 173);"/>
				<path class="st1" d="M226.9,138.7H159v-9.9h67.9V138.7z M160,137.7h65.9v-7.9H160V137.7z" style="fill: rgb(29, 29, 27);"/>
			</g>
		</g><g transform="matrix(1, 0, 0, 1, 0, -1.4210854715202004e-14)">
			<g>
				<path d="M 103.099998 142.300003 H 227 V 147.500003 H 103.099998 V 142.300003 Z" class="st4" style="fill: rgb(133, 147, 173);"/>
				<path class="st1" d="M227.5,148H102.6v-6.2h124.9V148z M103.6,147h122.9v-4.2H103.6V147z" style="fill: rgb(29, 29, 27);"/>
			</g>
		</g>
<path d="M 102.400002 88.800003 H 138.5 V 122.600002 H 102.400002 V 88.800003 Z" class="st3" style="fill: rgb(255, 163, 130);" transform="matrix(1, 0, 0, 1, 0, -7.105427357601002e-15)"/><path class="st1" d="M139.1,123h-37.1V88.3h37.1V123z M102.9,122h35.1V89.3h-35.1V122z" style="fill: rgb(29, 29, 27);" transform="matrix(1, 0, 0, 1, 0, -7.105427357601002e-15)"/>
<path d="M 146.600006 88.800003 H 182.700005 V 122.600002 H 146.600006 V 88.800003 Z" class="st3" style="fill: rgb(255, 163, 130);" transform="matrix(1, 0, 0, 1, 0, -7.105427357601002e-15)"/><path class="st1" d="M183.3,123h-37.1V88.3h37.1V123z M147.1,122h35.1V89.3h-35.1V122z" style="fill: rgb(29, 29, 27);" transform="matrix(1, 0, 0, 1, 0, -7.105427357601002e-15)"/>
<path d="M 190.899994 88.800003 H 226.999992 V 122.600002 H 190.899994 V 88.800003 Z" class="st3" style="fill: rgb(255, 163, 130);" transform="matrix(1, 0, 0, 1, 0, -7.105427357601002e-15)"/><path class="st1" d="M227.5,123h-37.1V88.3h37.1V123z M191.4,122h35.1V89.3h-35.1V122z" style="fill: rgb(29, 29, 27);" transform="matrix(1, 0, 0, 1, 0, -7.105427357601002e-15)"/>
<g transform="matrix(1, 0, 0, 1, 0, -7.105427357601002e-15)">
		<path d="M 212.10000610351562 132.89999389648438 L 223.5 170.5 L 230.6999969482422 157.89999389648438 L 240 168.60000610351562 L 243.6999969482422 165.3000030517578 L 234.60000610351562 154.8000030517578 L 247.10000610351562 149.89999389648438 Z" class="st3" style="fill: rgb(255, 163, 130);"/>
		<path class="st1" d="M223.4,171.7L211.3,132l37,18l-12.9,5l9.1,10.4l-4.5,3.9l-9.2-10.5L223.4,171.7z M212.9,133.9l10.7,35.3&#10;&#9;&#9;&#9;l7-12.1l9.4,10.8l3-2.6l-9.3-10.7l12.1-4.7L212.9,133.9z" style="fill: rgb(29, 29, 27);"/>
	</g>
<path d="M 189.100006 13.7 H 252.700005 V 48.2 H 189.100006 V 13.7 Z" class="st2" style="fill: rgb(184, 238, 255);" transform="matrix(1, 0, 0, 1, 0, -7.105427357601002e-15)"/><path class="st1" d="M253.1,48.7h-64.6V13.2h64.6V48.7z M189.6,47.7h62.6V14.2h-62.6V47.7z" style="fill: rgb(29, 29, 27);" transform="matrix(1, 0, 0, 1, 0, -7.105427357601002e-15)"/>
<path d="M 189.100006 47.5 L 213.199997 29.9 L 228.5 29.9 L 252.600006 47.5" class="st2" style="fill: rgb(184, 238, 255);" transform="matrix(1, 0, 0, 1, 0, -7.105427357601002e-15)"/><path d="M 252.3000030517578 47.900001525878906 L 228.3000030517578 30.399999618530273 L 213.39999389648438 30.399999618530273 L 189.39999389648438 47.900001525878906 L 188.8000030517578 47.099998474121094 L 213 29.399999618530273 L 228.60000610351562 29.399999618530273 L 228.8000030517578 29.5 L 252.89999389648438 47.099998474121094 Z" class="st1" style="fill: rgb(29, 29, 27);" transform="matrix(1, 0, 0, 1, 0, -7.105427357601002e-15)"/>
<path d="M 189.100006 13.7 L 220.800003 34.700001 L 252.600006 13.7" class="st4" style="fill: rgb(62, 39, 35);" transform="matrix(1, 0, 0, 1, 0, -7.105427357601002e-15)"/><path d="M 220.8000030517578 35.29999923706055 L 188.8000030517578 14.100000381469727 L 189.3000030517578 13.199999809265137 L 220.8000030517578 34.099998474121094 L 252.3000030517578 13.199999809265137 L 252.89999389648438 14.100000381469727 Z" class="st1" style="fill: rgb(29, 29, 27);" transform="matrix(1, 0, 0, 1, 0, -7.105427357601002e-15)"/>
<g transform="matrix(1, 0, 0, 1, 0, -7.105427357601002e-15)">
		
			<path d="M 116.400002 7.9 H 138.800001 V 59.300002 H 116.400002 V 7.9 Z" transform="matrix(3.225775e-03 1 -1 3.225775e-03 160.7138 -94.1276)" class="st4" style="fill: rgb(62, 39, 35);"/>
		<path class="st1" d="M101.4,45.3l-0.1-23.4l52.4-0.2l0.1,23.4L101.4,45.3z M102.3,22.9l0.1,21.4l50.4-0.2l-0.1-21.4L102.3,22.9z" style="fill: rgb(62, 39, 35);"/>
	</g>
<g transform="matrix(1, 0, 0, 1, 0, -7.105427357601002e-15)">
		
			<path d="M 153.699997 26.1 H 167.399997 V 40.900001 H 153.699997 V 26.1 Z" transform="matrix(1.063783e-03 -1 1 1.063783e-03 126.9312 194.0722)" class="st5" style="fill: rgb(255, 255, 255);"/>
		<path class="st1" d="M168.5,40.9l-15.8,0l0-14.7l15.8,0L168.5,40.9z M153.7,39.9l13.8,0l0-12.7l-13.8,0L153.7,39.9z" style="fill: rgb(29, 29, 27);"/>
	</g>
<g transform="matrix(1, 0, 0, 1, 0, -7.105427357601002e-15)">
		<path d="M 158.60000610351562 35.400001525878906 L 158.60000610351562 36.79999923706055 L 162.60000610351562 36.79999923706055 L 162.60000610351562 35.400001525878906 Z" class="st1" style="fill: rgb(29, 29, 27);"/>
	</g>
<g transform="matrix(1, 0, 0, 1, 0, -7.105427357601002e-15)">
		<path d="M 158.600006 30.200001 H 162.600006 V 31.700001 H 158.600006 V 30.200001 Z" class="st1" style="fill: rgb(29, 29, 27);"/>
	</g>
<g transform="matrix(1, 0, 0, 1, 0, -7.105427357601002e-15)">
		<path class="st4" d="M292.1,146.5c0,6.2-5,11.2-11.2,11.1h-1.1c-6.2,0-11.1-5-11.1-11.2l0-40.3l23.4,0L292.1,146.5z" style="fill: rgb(62, 39, 35);"/>
		<path class="st1" d="M281,158.2h-1.1c-6.4,0-11.6-5.2-11.6-11.7l0-40.8l24.4,0l0,40.8C292.6,153,287.4,158.2,281,158.2z&#10;&#9;&#9;&#9; M269.3,106.7l0,39.8c0,5.9,4.8,10.7,10.6,10.7h1.1c5.9,0,10.6-4.8,10.6-10.6l0-39.8L269.3,106.7z" style="fill: rgb(62, 39, 35);"/>
	</g>
<g transform="matrix(1, 0, 0, 1, 0, -7.105427357601002e-15)">
		<path d="M 273.299988 90.800003 H 287.599988 V 106.200003 H 273.299988 V 90.800003 Z" class="st5" style="fill: rgb(255, 255, 255);"/>
		<path d="M288.1,106.7l-15.3,0l0-16.4l15.3,0L288.1,106.7z M273.8,105.7l13.3,0l0-14.4l-13.3,0L273.8,105.7z"/>
	</g>
<g transform="matrix(1, 0, 0, 1, 0, -7.105427357601002e-15)">
		<path d="M 282.399994 96.400002 H 283.899994 V 100.600001 H 282.399994 V 96.400002 Z" class="st1" style="fill: rgb(29, 29, 27);"/>
	</g>
<g transform="matrix(1, 0, 0, 1, 0, -7.105427357601002e-15)">
		<path d="M 277 96.400002 H 278.5 V 100.600001 H 277 V 96.400002 Z" class="st1" style="fill: rgb(29, 29, 27);"/>
	</g>
<path d="M 274.299988 114.400002 H 286.599988 V 122.900002 H 274.299988 V 114.400002 Z" class="st6" style="fill-rule: evenodd; clip-rule: evenodd; fill: rgb(255, 163, 130);" transform="matrix(1, 0, 0, 1, 0, -7.105427357601002e-15)"/><path class="st1" d="M287.1,123.3h-13.3v-9.5h13.3V123.3z M274.8,122.3h11.3v-7.5h-11.3V122.3z" style="fill: rgb(29, 29, 27);" transform="matrix(1, 0, 0, 1, 0, -7.105427357601002e-15)"/>
<path d="M 136.600006 26.200001 H 146.700006 V 40.800001 H 136.600006 V 26.200001 Z" class="st6" style="fill-rule: evenodd; clip-rule: evenodd; fill: rgb(255, 163, 130);" transform="matrix(1, 0, 0, 1, 0, -7.105427357601002e-15)"/><path class="st1" d="M147.3,41.3h-11.1V25.7h11.1V41.3z M137.1,40.3h9.1V26.7h-9.1V40.3z" style="fill: rgb(29, 29, 27);" transform="matrix(1, 0, 0, 1, 0, -7.105427357601002e-15)"/>
<path d="M 108.300003 26.200001 H 132.700003 V 40.800001 H 108.300003 V 26.200001 Z" class="st7" style="fill-rule: evenodd; clip-rule: evenodd; fill: rgb(184, 238, 255);" transform="matrix(1, 0, 0, 1, 0, -7.105427357601002e-15)"/><path class="st1" d="M133.1,41.3h-25.4V25.7h25.4V41.3z M108.8,40.3h23.4V26.7h-23.4V40.3z" style="fill: rgb(29, 29, 27);" transform="matrix(1, 0, 0, 1, 0, -7.105427357601002e-15)"/>
<g transform="matrix(1, 0, 0, 1, 0, -7.105427357601002e-15)">
		<path d="M 35.700001 129.399994 H 152.500004 V 204.299995 H 35.700001 V 129.399994 Z" class="st3" style="fill: rgb(255, 163, 130);"/>
		<path class="st1" d="M153,204.7H35.2v-75.9H153V204.7z M36.2,203.7H152v-73.9H36.2V203.7z" style="fill: rgb(29, 29, 27);"/>
	</g><path d="M 35.700001 129.100006 H 152.500004 V 142.600006 H 35.700001 V 129.100006 Z" class="st4" style="fill: rgb(62, 39, 35);" transform="matrix(1, 0, 0, 1, 0, -1.4210854715202004e-14)"/><path class="st1" d="M153,143H35.2v-14.5H153V143z M36.2,142H152v-12.5H36.2V142z" style="fill: rgb(29, 29, 27);" transform="matrix(1, 0, 0, 1, 0, -1.4210854715202004e-14)"/><g transform="matrix(1, 0, 0, 1, 0, -1.4210854715202004e-14)">
			<g>
				<path class="st2" d="M127.7,135.8c0,1.6-1.3,2.9-2.9,2.9c-1.6,0-2.9-1.3-2.9-2.9c0-1.6,1.3-2.9,2.9-2.9&#10;&#9;&#9;&#9;&#9;&#9;C126.4,133,127.7,134.2,127.7,135.8z" style="fill: rgb(184, 238, 255);"/>
				<path class="st1" d="M124.9,139.2c-1.9,0-3.4-1.5-3.4-3.4c0-1.9,1.5-3.4,3.4-3.4c1.9,0,3.4,1.5,3.4,3.4&#10;&#9;&#9;&#9;&#9;&#9;C128.2,137.7,126.7,139.2,124.9,139.2z M124.9,133.5c-1.3,0-2.4,1.1-2.4,2.4c0,1.3,1.1,2.4,2.4,2.4c1.3,0,2.4-1.1,2.4-2.4&#10;&#9;&#9;&#9;&#9;&#9;C127.2,134.5,126.2,133.5,124.9,133.5z" style="fill: rgb(29, 29, 27);"/>
			</g>
		</g><g transform="matrix(1, 0, 0, 1, 0, -1.4210854715202004e-14)">
			<g>
				<path class="st4" d="M137.3,135.8c0,1.6-1.3,2.9-2.9,2.9c-1.6,0-2.9-1.3-2.9-2.9c0-1.6,1.3-2.9,2.9-2.9&#10;&#9;&#9;&#9;&#9;&#9;C136.1,133,137.3,134.2,137.3,135.8z" style="fill: rgb(133, 147, 173);"/>
				<path class="st1" d="M134.5,139.2c-1.9,0-3.4-1.5-3.4-3.4c0-1.9,1.5-3.4,3.4-3.4c1.9,0,3.4,1.5,3.4,3.4&#10;&#9;&#9;&#9;&#9;&#9;C137.8,137.7,136.3,139.2,134.5,139.2z M134.5,133.5c-1.3,0-2.4,1.1-2.4,2.4c0,1.3,1.1,2.4,2.4,2.4c1.3,0,2.4-1.1,2.4-2.4&#10;&#9;&#9;&#9;&#9;&#9;C136.8,134.5,135.8,133.5,134.5,133.5z" style="fill: rgb(29, 29, 27);"/>
			</g>
		</g><g transform="matrix(1, 0, 0, 1, 0, -1.4210854715202004e-14)">
			<g>
				<path d="M 147.000006 135.800003 A 2.9 2.9 0 0 1 144.100006 138.700003 A 2.9 2.9 0 0 1 141.200006 135.800003 A 2.9 2.9 0 0 1 144.100006 132.900003 A 2.9 2.9 0 0 1 147.000006 135.800003 Z" class="st3" style="fill: rgb(255, 163, 130);"/>
				<path class="st1" d="M144.1,139.2c-1.9,0-3.4-1.5-3.4-3.4c0-1.9,1.5-3.4,3.4-3.4c1.8,0,3.4,1.5,3.4,3.4&#10;&#9;&#9;&#9;&#9;&#9;C147.5,137.7,145.9,139.2,144.1,139.2z M144.1,133.5c-1.3,0-2.4,1.1-2.4,2.4c0,1.3,1.1,2.4,2.4,2.4c1.3,0,2.4-1.1,2.4-2.4&#10;&#9;&#9;&#9;&#9;&#9;C146.5,134.5,145.4,133.5,144.1,133.5z" style="fill: rgb(29, 29, 27);"/>
			</g>
		</g><path class="st3" d="M82.7,157.8c-3.8-3.8-9.2-6.2-15-6.2v21.2L82.7,157.8z" style="fill: rgb(255, 163, 130);" transform="matrix(1, 0, 0, 1, 0, -1.4210854715202004e-14)"/><path class="st1" d="M67.2,174v-22.9h0.5c5.8,0,11.3,2.3,15.4,6.4l0.4,0.4L67.2,174z M68.2,152.1v19.5L82,157.8&#10;&#9;&#9;&#9;C78.2,154.2,73.3,152.2,68.2,152.1z" style="fill: rgb(29, 29, 27);" transform="matrix(1, 0, 0, 1, 0, -1.4210854715202004e-14)"/><path class="st2" d="M67.7,151.6c-11.7,0-21.2,9.5-21.2,21.2c0,11.7,9.5,21.2,21.2,21.2c4.9,0,9.3-1.7,12.9-4.4l-12.9-16.8V151.6z&#10;&#9;&#9;&#9;" style="fill: rgb(184, 238, 255);" transform="matrix(1, 0, 0, 1, 0, -1.4210854715202004e-14)"/><path class="st1" d="M67.7,194.6c-12,0-21.7-9.8-21.7-21.7c0-12,9.7-21.7,21.7-21.7h0.5v21.6l13.1,17.1l-0.4,0.3&#10;&#9;&#9;&#9;C77,193,72.5,194.6,67.7,194.6z M67.2,152.1c-11.2,0.3-20.2,9.5-20.2,20.7c0,11.4,9.3,20.7,20.7,20.7c4.4,0,8.6-1.4,12.2-4&#10;&#9;&#9;&#9;L67.2,173V152.1z" style="fill: rgb(29, 29, 27);" transform="matrix(1, 0, 0, 1, 0, -1.4210854715202004e-14)"/><path class="st4" d="M88.9,172.8c0-5.9-2.4-11.2-6.2-15l-15,15l12.9,16.8C85.6,185.8,88.9,179.7,88.9,172.8z" style="fill: rgb(62, 39, 35);" transform="matrix(1, 0, 0, 1, 0, -1.4210854715202004e-14)"/><path class="st1" d="M80.5,190.4L67,172.8l15.7-15.7l0.4,0.4c4.1,4.1,6.4,9.6,6.4,15.4c0,6.8-3.1,13.1-8.5,17.2L80.5,190.4z&#10;&#9;&#9;&#9; M68.3,172.9L80.7,189c4.9-4,7.7-9.8,7.7-16.1c0-5.4-2-10.4-5.7-14.3L68.3,172.9z" style="fill: rgb(29, 29, 27);" transform="matrix(1, 0, 0, 1, 0, -1.4210854715202004e-14)"/><path d="M 98.599998 152.800003 H 108.999998 V 163.200003 H 98.599998 V 152.800003 Z" class="st2" style="fill: rgb(184, 238, 255);" transform="matrix(1, 0, 0, 1, 0, -1.4210854715202004e-14)"/><path class="st1" d="M109.5,163.7H98.1v-11.4h11.4V163.7z M99.1,162.7h9.4v-9.4h-9.4V162.7z" style="fill: rgb(29, 29, 27);" transform="matrix(1, 0, 0, 1, 0, -1.4210854715202004e-14)"/><path d="M 114.800003 152.800003 H 125.200003 V 163.200003 H 114.800003 V 152.800003 Z" class="st2" style="fill: rgb(184, 238, 255);" transform="matrix(1, 0, 0, 1, 0, -1.4210854715202004e-14)"/><path class="st1" d="M125.6,163.7h-11.4v-11.4h11.4V163.7z M115.3,162.7h9.4v-9.4h-9.4V162.7z" style="fill: rgb(29, 29, 27);" transform="matrix(1, 0, 0, 1, 0, -1.4210854715202004e-14)"/><path d="M 130.899994 152.800003 H 141.299994 V 163.200003 H 130.899994 V 152.800003 Z" class="st2" style="fill: rgb(184, 238, 255);" transform="matrix(1, 0, 0, 1, 0, -1.4210854715202004e-14)"/><path class="st1" d="M141.7,163.7h-11.4v-11.4h11.4V163.7z M131.4,162.7h9.4v-9.4h-9.4V162.7z" style="fill: rgb(29, 29, 27);" transform="matrix(1, 0, 0, 1, 0, -1.4210854715202004e-14)"/><path d="M 98.699997 191.5 H 134.499996 V 194.1 H 98.699997 V 191.5 Z" transform="matrix(1, -0.003927482292056084, 0.003927482292056084, 1, -0.7562999725341797, 0.459300011396401)" class="st1" style="fill: rgb(29, 29, 27);"/><path d="M 98.599998 183 H 141.199997 V 185.6 H 98.599998 V 183 Z" class="st1" style="fill: rgb(29, 29, 27);" transform="matrix(1, 0, 0, 1, 0, -1.4210854715202004e-14)"/><path d="M 98.699997 174.5 H 141.299995 V 177.1 H 98.699997 V 174.5 Z" class="st1" style="fill: rgb(29, 29, 27);" transform="matrix(1, 0, 0, 1, 0, -1.4210854715202004e-14)"/>
<path d="M 52.900001525878906 115.69999694824219 L 18.200000762939453 115.69999694824219 L 18.200000762939453 75.9000015258789 L 35.599998474121094 59.79999923706055 L 52.900001525878906 75.9000015258789 Z" class="st2" style="fill: rgb(184, 238, 255);" transform="matrix(1, 0, 0, 1, 0, -7.105427357601002e-15)"/><path class="st1" d="M53.4,116.2H17.7V75.7l17.8-16.6l17.8,16.6V116.2z M18.7,115.2h33.7v-39L35.6,60.4L18.7,76.2V115.2z" style="fill: rgb(29, 29, 27);" transform="matrix(1, 0, 0, 1, 0, -7.105427357601002e-15)"/>
<path d="M 41.900002 86.5 H 62.700001 V 88.6 H 41.900002 V 86.5 Z" class="st1" style="fill: rgb(29, 29, 27);" transform="matrix(1, 0, 0, 1, 0, -7.105427357601002e-15)"/>
<path d="M 29.799999 86.5 H 47.699999 V 88.6 H 29.799999 V 86.5 Z" class="st1" style="fill: rgb(29, 29, 27);" transform="matrix(1, 0, 0, 1, 0, -7.105427357601002e-15)"/>
<path d="M 29.799999 93.199997 H 38.299999 V 95.299997 H 29.799999 V 93.199997 Z" class="st1" style="fill: rgb(29, 29, 27);" transform="matrix(1, 0, 0, 1, 0, -7.105427357601002e-15)"/>
<path d="M 43.200001 93.199997 H 62.6 V 95.299997 H 43.200001 V 93.199997 Z" class="st1" style="fill: rgb(29, 29, 27);" transform="matrix(1, 0, 0, 1, 0, -7.105427357601002e-15)"/>
<path d="M 49.5 100 H 62.6 V 102.1 H 49.5 V 100 Z" class="st1" style="fill: rgb(29, 29, 27);" transform="matrix(1, 0, 0, 1, 0, -7.105427357601002e-15)"/>
<path d="M 29.6 100 H 44.8 V 102.1 H 29.6 V 100 Z" class="st1" style="fill: rgb(29, 29, 27);" transform="matrix(1, 0, 0, 1, 0, -7.105427357601002e-15)"/>
<path d="M 47.799999 106.699997 H 62.699999 V 108.799997 H 47.799999 V 106.699997 Z" class="st1" style="fill: rgb(29, 29, 27);" transform="matrix(1, 0, 0, 1, 0, -7.105427357601002e-15)"/>
<path d="M 29.6 106.699997 H 48.9 V 108.799997 H 29.6 V 106.699997 Z" class="st1" style="fill: rgb(29, 29, 27);" transform="matrix(1, 0, 0, 1, 0, -7.105427357601002e-15)"/>
<path d="M 237.100006 200.5 H 263.200006 V 202.6 H 237.100006 V 200.5 Z" class="st1" style="fill: rgb(29, 29, 27);" transform="matrix(1, 0, 0, 1, 0, -7.105427357601002e-15)"/>
<path d="M 255.699997 200.5 H 278.199997 V 202.6 H 255.699997 V 200.5 Z" class="st1" style="fill: rgb(29, 29, 27);" transform="matrix(1, 0, 0, 1, 0, -7.105427357601002e-15)"/>
<path d="M 267.600006 193.800003 H 278.300006 V 195.900003 H 267.600006 V 193.800003 Z" class="st1" style="fill: rgb(29, 29, 27);" transform="matrix(1, 0, 0, 1, 0, -7.105427357601002e-15)"/>
<path d="M 237.100006 193.800003 H 261.500006 V 195.900003 H 237.100006 V 193.800003 Z" class="st1" style="fill: rgb(29, 29, 27);" transform="matrix(1, 0, 0, 1, 0, -7.105427357601002e-15)"/>
<path d="M 237.100006 187 H 253.600006 V 189.1 H 237.100006 V 187 Z" class="st1" style="fill: rgb(29, 29, 27);" transform="matrix(1, 0, 0, 1, 0, -7.105427357601002e-15)"/>
<path d="M 259.399994 187 H 278.499994 V 189.1 H 259.399994 V 187 Z" class="st1" style="fill: rgb(29, 29, 27);" transform="matrix(1, 0, 0, 1, 0, -7.105427357601002e-15)"/>
<path d="M 237.100006 180.300003 H 255.800007 V 182.400003 H 237.100006 V 180.300003 Z" class="st1" style="fill: rgb(29, 29, 27);" transform="matrix(1, 0, 0, 1, 0, -7.105427357601002e-15)"/>
<path d="M 254.300003 180.300003 H 278.500004 V 182.400003 H 254.300003 V 180.300003 Z" class="st1" style="fill: rgb(29, 29, 27);" transform="matrix(1, 0, 0, 1, 0, -7.105427357601002e-15)"/>
<path d="M 38.099998 73.699997 A 2.5 2.5 0 0 1 35.599998 76.199997 A 2.5 2.5 0 0 1 33.099998 73.699997 A 2.5 2.5 0 0 1 35.599998 71.199997 A 2.5 2.5 0 0 1 38.099998 73.699997 Z" class="st4" style="fill: rgb(133, 147, 173);" transform="matrix(1, 0, 0, 1, 0, -7.105427357601002e-15)"/><path class="st1" d="M35.6,76.8c-1.7,0-3-1.4-3-3s1.4-3,3-3c1.7,0,3,1.4,3,3S37.2,76.8,35.6,76.8z M35.6,71.7c-1.1,0-2,0.9-2,2&#10;&#9;&#9;c0,1.1,0.9,2,2,2c1.1,0,2-0.9,2-2C37.6,72.6,36.7,71.7,35.6,71.7z" style="fill: rgb(29, 29, 27);" transform="matrix(1, 0, 0, 1, 0, -7.105427357601002e-15)"/>
</svg>