<?xml version="1.0" encoding="utf-8"?>
<svg id="master-artboard" viewBox="0 0 3000 2000" version="1.1" xmlns="http://www.w3.org/2000/svg" x="0px" y="0px" width="3000px" height="2000px" style="enable-background:new 0 0 3000 2000;"><rect id="ee-background" x="0" y="0" width="3000" height="2000" style="fill: white; fill-opacity: 0; pointer-events: none;"/>

<path d="M 0 0 H 3000 V 2000 H 0 V 0 Z" class="st0" style="fill-rule: evenodd; clip-rule: evenodd; fill: rgb(137, 193, 193);" transform="matrix(1, 0, 0, 1, 0, -7.105427357601002e-15)"/><path class="st1" d="M0,0v2000h1044.1c519.8-255,924.9-754.9,1016.2-1330c38.2-240.6,17.2-468.1-52.2-670H0z" style="fill-rule: evenodd; clip-rule: evenodd; fill: rgb(177, 220, 221);" transform="matrix(1, 0, 0, 1, 0, -7.105427357601002e-15)"/><path class="st0" d="M1360,600h-60c-137.3,0-263.7,48.4-363.4,128.8c-24.8-5.7-51.3-8.8-79-8.8c-133,0-240.9,71.6-241.5,160.2&#10;&#9;&#9;c-1.6-7.8-2.4-15.9-2.4-24c0-38.1,17.9-73.3,48.4-102.3c-56.7,29.5-93.2,75.4-93.2,127.1c0,56.5,30.8,93.8,74.5,118.1&#10;&#9;&#9;c-0.3,5.3-0.5,10.7-0.5,16.1c0,20,2.2,39,6.1,56.1c-12.5,11-20.4,27.1-20.4,45.1c0,32.9,26.5,59.6,59.4,59.9v20.6&#10;&#9;&#9;c0,5.2,0.2,10.3,0.7,15.4c-20.5,1.3-40.9,7.6-59.4,19.4l-182.2,115.9c-18.5-6.6-38.4-10.3-59.1-10.3&#10;&#9;&#9;c-96.3,0-174.4,78.1-174.4,174.4c0,44.7,16.8,85.5,44.5,116.4c6.6,90.4,81.9,161.6,174,161.6c51.9,0,98.5-22.7,130.4-58.6V2000&#10;&#9;&#9;h697.8v-54.1l72.3,37.3c33.6,19,75.6,22.3,113.5,5.2c63.2-28.5,91.4-102.9,62.9-166.1l-28.3-62.4H1940v-580&#10;&#9;&#9;C1940,861,1679,600,1360,600z" style="fill-rule: evenodd; clip-rule: evenodd; fill: rgb(137, 193, 193);" transform="matrix(1, 0, 0, 1, 0, -7.105427357601002e-15)"/><path class="st2" d="M1600,600h-60c-319,0-580,261-580,580v580h1220v-580C2180,861,1919,600,1600,600z" style="fill-rule: evenodd; clip-rule: evenodd; fill: rgb(127, 125, 124);" transform="matrix(1, 0, 0, 1, 0, -7.105427357601002e-15)"/><path class="st3" d="M1600,600h-40v1160h620v-580C2180,861,1919,600,1600,600z" style="fill-rule: evenodd; clip-rule: evenodd; fill: rgb(68, 69, 69);" transform="matrix(1, 0, 0, 1, 0, -7.105427357601002e-15)"/><path class="st4" d="M1555.3,819.8L1555.3,819.8c-215.9,0-392.5,176.6-392.5,392.5V2000h784.9v-787.8&#10;&#9;&#9;C1947.8,996.4,1771.2,819.8,1555.3,819.8z" style="fill-rule: evenodd; clip-rule: evenodd; fill: rgb(3, 27, 42);" transform="matrix(1, 0, 0, 1, 0, -7.105427357601002e-15)"/><path class="st4" d="M1953.8,876.7c-32.1-71.1-115.7-102.8-186.8-70.8c-71.1,32.1-102.8,115.7-70.8,186.8l273.7,603.8&#10;&#9;&#9;c32,71.1,115.7,102.8,186.8,70.8c71.1-32.1,102.8-115.7,70.8-186.8L1953.8,876.7z" style="fill-rule: evenodd; clip-rule: evenodd; fill: rgb(3, 27, 42);" transform="matrix(1, 0, 0, 1, 0, -7.105427357601002e-15)"/><path class="st5" d="M1238.1,815.9L906,1027.2c-65.6,41.8-84.9,128.9-43.1,194.6c41.8,65.6,128.9,84.9,194.6,43.1l332.1-211.3&#10;&#9;&#9;c65.6-41.8,84.9-128.9,43.1-194.6C1390.8,793.4,1303.7,774.1,1238.1,815.9z" style="fill-rule: evenodd; clip-rule: evenodd; fill: rgb(42, 57, 71);" transform="matrix(1, 0, 0, 1, 0, -7.105427357601002e-15)"/><path class="st4" d="M1398.2,821.8c-10.1,3.5-19.9,8.3-29.3,14.3l-332.1,211.3c-65.6,41.8-84.9,128.9-43.1,194.6&#10;&#9;&#9;c9.4,14.8,21.2,27.3,34.5,37.2c10.1-3.5,19.9-8.3,29.3-14.3l332.1-211.3c65.6-41.8,84.9-128.9,43.1-194.6&#10;&#9;&#9;C1423.2,844.2,1411.4,831.8,1398.2,821.8z" style="fill-rule: evenodd; clip-rule: evenodd; fill: rgb(3, 27, 42);" transform="matrix(1, 0, 0, 1, 0, -7.105427357601002e-15)"/><path class="st6" d="M1555.3,819.8L1555.3,819.8c-78.3,0-142.3,52.1-142.3,115.8V1780h284.6V935.5&#10;&#9;&#9;C1697.6,871.9,1633.6,819.8,1555.3,819.8z" style="fill-rule: evenodd; clip-rule: evenodd; fill: rgb(255, 255, 255);" transform="matrix(1, 0, 0, 1, 0, -7.105427357601002e-15)"/><path d="M 1413 1820.199951171875 L 1413 1172.699951171875 L 1238.9000244140625 1172.699951171875 Z" class="st5" style="fill-rule: evenodd; clip-rule: evenodd; fill: rgb(42, 57, 71);" transform="matrix(1, 0, 0, 1, 0, -1.4210854715202004e-14)"/><path d="M 1697.5999755859375 1820.199951171875 L 1871.699951171875 1172.699951171875 L 1697.5999755859375 1172.699951171875 Z" class="st5" style="fill-rule: evenodd; clip-rule: evenodd; fill: rgb(42, 57, 71);" transform="matrix(1, 0, 0, 1, 0, -1.4210854715202004e-14)"/><path d="M 1413 1185.0999755859375 L 1413 859.7000122070312 L 1244.699951171875 1120 Z" class="st5" style="fill-rule: evenodd; clip-rule: evenodd; fill: rgb(42, 57, 71);" transform="matrix(1, 0, 0, 1, 0, -1.4210854715202004e-14)"/><path d="M 1697.5999755859375 1185.0999755859375 L 1865.9000244140625 1120 L 1697.5999755859375 859.7000122070312 Z" class="st5" style="fill-rule: evenodd; clip-rule: evenodd; fill: rgb(42, 57, 71);" transform="matrix(1, 0, 0, 1, 0, -1.4210854715202004e-14)"/><path class="st7" d="M1555.3,1057.9c-34.6,0-62.8,28.2-62.8,62.8c0,34.6,28.2,62.8,62.8,62.8c34.6,0,62.8-28.2,62.8-62.8&#10;&#9;&#9;C1618.1,1086.1,1589.9,1057.9,1555.3,1057.9z" style="fill-rule: evenodd; clip-rule: evenodd; fill: rgb(225, 65, 67);" transform="matrix(1, 0, 0, 1, 0, -7.105427357601002e-15)"/><path class="st7" d="M1555.3,1147.6c-29.7,0-54,24.3-54,54v618.9c0,29.7,24.3,54,54,54c29.7,0,54-24.3,54-54v-618.9&#10;&#9;&#9;C1609.3,1171.9,1585,1147.6,1555.3,1147.6z" style="fill-rule: evenodd; clip-rule: evenodd; fill: rgb(225, 65, 67);" transform="matrix(1, 0, 0, 1, 0, -7.105427357601002e-15)"/><path class="st8" d="M1618.1,399.9h-125.6c-103.6,0-188.4,84.8-188.4,188.4v188.4c0,65.1,33.5,122.8,84.2,156.7&#10;&#9;&#9;c6,86.7,78.9,155.8,167.1,155.8c88.2,0,161-69.1,167.1-155.8c50.6-33.9,84.2-91.6,84.2-156.7V588.4&#10;&#9;&#9;C1806.5,484.7,1721.7,399.9,1618.1,399.9z" style="fill-rule: evenodd; clip-rule: evenodd; fill: rgb(242, 159, 139);" transform="matrix(1, 0, 0, 1, 0, -7.105427357601002e-15)"/><path class="st4" d="M966.6,934.7c-108.1,0-196.2,88.1-196.2,196.2c0,108.1,88.1,196.2,196.2,196.2c108.1,0,196.2-88.2,196.2-196.2&#10;&#9;&#9;C1162.9,1022.9,1074.7,934.7,966.6,934.7z" style="fill-rule: evenodd; clip-rule: evenodd; fill: rgb(3, 27, 42);" transform="matrix(1, 0, 0, 1, 0, -7.105427357601002e-15)"/><path class="st8" d="M1695.6,1141.7c-83.6,0-151.7,68.2-151.7,151.7s68.2,151.7,151.7,151.7c83.6,0,151.7-68.2,151.7-151.7&#10;&#9;&#9;S1779.2,1141.7,1695.6,1141.7z" style="fill-rule: evenodd; clip-rule: evenodd; fill: rgb(242, 159, 139);" transform="matrix(1, 0, 0, 1, 0, -7.105427357601002e-15)"/><path class="st9" d="M1757,1154.6V1087c0-22.7-18.6-41.3-41.3-41.3c-22.7,0-41.3,18.6-41.3,41.3v80.1&#10;&#9;&#9;c-40.9,27.2-67.9,73.7-67.9,126.5c0,72.9,51.4,133.7,119.9,148.4c69.1-14.2,121-75.3,121-148.6&#10;&#9;&#9;C1847.4,1231.4,1810.2,1178.1,1757,1154.6z" style="fill-rule: evenodd; clip-rule: evenodd; fill: rgb(232, 94, 109);" transform="matrix(1, 0, 0, 1, 0, -7.105427357601002e-15)"/><path class="st4" d="M2163.4,1413l-347.8-179.7c-69.3-35.7-154.4-8.5-190.2,60.8c-35.7,69.3-8.5,154.4,60.8,190.2L2034,1664&#10;&#9;&#9;c69.3,35.7,154.4,8.5,190.2-60.8C2259.9,1533.9,2232.7,1448.8,2163.4,1413z" style="fill-rule: evenodd; clip-rule: evenodd; fill: rgb(3, 27, 42);" transform="matrix(1, 0, 0, 1, 0, -7.105427357601002e-15)"/><path class="st10" d="M1616.6,787.5H1494c-12.3,0-22.4,10.1-22.4,22.4v120.7c0,46.1,37.7,83.7,83.7,83.7s83.7-37.7,83.7-83.7&#10;&#9;&#9;&#9;V809.9C1639,797.6,1629,787.5,1616.6,787.5z" style="fill-rule: evenodd; clip-rule: evenodd; fill: rgb(132, 27, 45);" transform="matrix(1, 0, 0, 1, 0, -1.4210854715202004e-14)"/><path class="st6" d="M1616.6,787.5H1494c-12.3,0-22.4,10.1-22.4,22.4v1.9c22.1,12.3,51.5,19.9,83.7,19.9&#10;&#9;&#9;&#9;c32.3,0,61.7-7.5,83.7-19.9v-1.9C1639,797.6,1629,787.5,1616.6,787.5z" style="fill-rule: evenodd; clip-rule: evenodd; fill: rgb(255, 255, 255);" transform="matrix(1, 0, 0, 1, 0, -1.4210854715202004e-14)"/><path class="st11" d="M1493.9,976.1c0,4.1,0.3,8.1,0.7,12.1c15.3,16.1,36.8,26.1,60.6,26.1c46.1,0,83.7-37.7,83.7-83.7v-61.1&#10;&#9;&#9;&#9;c-8.7-1.9-17.8-2.9-27.1-2.9C1546.8,866.6,1493.9,915.6,1493.9,976.1z" style="fill-rule: evenodd; clip-rule: evenodd; fill: rgb(189, 64, 83);" transform="matrix(1, 0, 0, 1, 0, -1.4210854715202004e-14)"/><path class="st9" d="M1618.1,399.9h-125.6c-62.1,0-117.4,30.4-151.8,77.1c15.5-4.2,31.8-6.4,48.5-6.4h125.6&#10;&#9;&#9;c103.6,0,188.4,84.8,188.4,188.4v188.4c0,45.1-13.1,166.4-112,237.9c71.3-15.8,125.9-77.3,131.1-151.9&#10;&#9;&#9;c50.6-33.9,84.2-91.6,84.2-156.7V588.4C1806.5,484.7,1721.7,399.9,1618.1,399.9z" style="fill-rule: evenodd; clip-rule: evenodd; fill: rgb(232, 94, 109);" transform="matrix(1, 0, 0, 1, 0, -7.105427357601002e-15)"/><path class="st12" d="M1781.7,421.5c-41.6,0-75.5,67.8-75.5,150.9c0,83.1,33.9,150.9,75.5,150.9s75.5-67.8,75.5-150.9&#10;&#9;&#9;C1857.2,489.3,1823.3,421.5,1781.7,421.5z" style="fill-rule: evenodd; clip-rule: evenodd; fill: rgb(110, 66, 32);" transform="matrix(1, 0, 0, 1, 0, -7.105427357601002e-15)"/><path class="st13" d="M1328.9,421.5c-41.6,0-75.5,67.8-75.5,150.9c0,83.1,33.9,150.9,75.5,150.9c41.6,0,75.5-67.8,75.5-150.9&#10;&#9;&#9;C1404.4,489.3,1370.5,421.5,1328.9,421.5z" style="fill-rule: evenodd; clip-rule: evenodd; fill: rgb(150, 97, 37);" transform="matrix(1, 0, 0, 1, 0, -7.105427357601002e-15)"/><path class="st8" d="M1304.7,618.9c-37.1,0-67.4,30.3-67.4,67.4c0,37.1,30.3,67.4,67.4,67.4c37.1,0,67.4-30.3,67.4-67.4&#10;&#9;&#9;C1372.1,649.1,1341.8,618.9,1304.7,618.9z" style="fill-rule: evenodd; clip-rule: evenodd; fill: rgb(242, 159, 139);" transform="matrix(1, 0, 0, 1, 0, -7.105427357601002e-15)"/><path class="st9" d="M1805.9,618.9c-37.1,0-67.4,30.3-67.4,67.4c0,37.1,30.3,67.4,67.4,67.4c37.1,0,67.4-30.3,67.4-67.4&#10;&#9;&#9;C1873.3,649.1,1843,618.9,1805.9,618.9z" style="fill-rule: evenodd; clip-rule: evenodd; fill: rgb(232, 94, 109);" transform="matrix(1, 0, 0, 1, 0, -7.105427357601002e-15)"/><path class="st12" d="M1712.4,413.7c-41.6,0-75.5,44.8-75.5,99.8c0,54.9,33.9,99.8,75.5,99.8s75.5-44.8,75.5-99.8&#10;&#9;&#9;C1787.8,458.5,1753.9,413.7,1712.4,413.7z" style="fill-rule: evenodd; clip-rule: evenodd; fill: rgb(110, 66, 32);" transform="matrix(1, 0, 0, 1, 0, -7.105427357601002e-15)"/><path class="st13" d="M1501.4,639.9L1501.4,639.9c-7.8-4.5-16.8-7-26.1-7c-8.9,0-17.6,2.3-25.2,6.5c-7.6,4.2-14.2,10.3-18.9,17.9&#10;&#9;&#9;c-2.8,4.4-1.4,10.2,2.9,13c4.4,2.8,10.2,1.4,13-2.9c3-4.8,7.2-8.7,12.1-11.4c4.9-2.7,10.4-4.1,16.1-4.1c6,0,11.7,1.6,16.6,4.4h0&#10;&#9;&#9;c5,2.9,9.2,7,12.2,12.2c2.6,4.5,8.3,6,12.8,3.5c4.5-2.6,6-8.3,3.5-12.8C1515.8,650.9,1509.2,644.4,1501.4,639.9z" style="fill-rule: evenodd; clip-rule: evenodd; fill: rgb(150, 97, 37);" transform="matrix(1, 0, 0, 1, 0, -7.105427357601002e-15)"/><path class="st13" d="M1660.5,639.9L1660.5,639.9c-7.8-4.5-16.8-7-26.1-7c-8.9,0-17.6,2.3-25.2,6.5c-7.6,4.2-14.2,10.3-18.9,17.9&#10;&#9;&#9;c-2.8,4.4-1.5,10.2,2.9,13c4.4,2.8,10.2,1.4,13-2.9c3-4.8,7.2-8.7,12.1-11.4c4.8-2.7,10.4-4.1,16.1-4.1c6,0,11.7,1.6,16.6,4.4h0&#10;&#9;&#9;c5,2.9,9.2,7,12.2,12.2c2.6,4.5,8.3,6,12.8,3.5c4.5-2.6,6-8.3,3.5-12.8C1674.9,650.9,1668.3,644.4,1660.5,639.9z" style="fill-rule: evenodd; clip-rule: evenodd; fill: rgb(150, 97, 37);" transform="matrix(1, 0, 0, 1, 0, -7.105427357601002e-15)"/><path class="st5" d="M1011.9,940c-14.5-3.4-29.7-5.3-45.3-5.3c-108.4,0-196.2,87.9-196.2,196.2s87.9,196.2,196.2,196.2&#10;&#9;&#9;c15.6,0,30.7-1.8,45.3-5.3c-86.5-20.4-150.9-98.2-150.9-191C861,1038.2,925.4,960.4,1011.9,940z" style="fill-rule: evenodd; clip-rule: evenodd; fill: rgb(42, 57, 71);" transform="matrix(1, 0, 0, 1, 0, -7.105427357601002e-15)"/><path class="st12" d="M1494.9,240.4c-149.6,0-270.9,80.6-271.7,180.2c-1.8-8.8-2.7-17.8-2.7-27c0-42.8,20.2-82.5,54.5-115&#10;&#9;&#9;c-63.8,33.1-104.8,84.8-104.8,142.9c0,154.7,205.1,181.1,324.8,181.1c150.1,0,271.7-81.1,271.7-181.1&#10;&#9;&#9;C1766.6,321.5,1645,240.4,1494.9,240.4z" style="fill-rule: evenodd; clip-rule: evenodd; fill: rgb(110, 66, 32);" transform="matrix(1, 0, 0, 1, 0, -7.105427357601002e-15)"/><path class="st9" d="M1285.2,682.7c0-16.6,9.5-31,23.4-38c-3.1-0.7-6.3-1.1-9.6-1.1c-23.5,0-42.6,19.1-42.6,42.6&#10;&#9;&#9;c0,23.5,19.1,42.6,42.6,42.6c6.9,0,13.5-1.7,19.3-4.6C1299.3,719.9,1285.2,703,1285.2,682.7z" style="fill-rule: evenodd; clip-rule: evenodd; fill: rgb(232, 94, 109);" transform="matrix(1, 0, 0, 1, 0, -7.105427357601002e-15)"/><path class="st14" d="M1807.8,643.6c-3.3,0-6.5,0.4-9.6,1.1c13.9,7,23.3,21.4,23.3,38c0,20.3-14.1,37.2-33.1,41.6&#10;&#9;&#9;c5.8,2.9,12.3,4.6,19.3,4.6c23.5,0,42.6-19.1,42.6-42.6C1850.5,662.7,1831.4,643.6,1807.8,643.6z" style="fill-rule: evenodd; clip-rule: evenodd; fill: rgb(200, 83, 96);" transform="matrix(1, 0, 0, 1, 0, -7.105427357601002e-15)"/><path class="st15" d="M2277.5,405.9h-260c-33,0-60,27-60,60v111.3l-18,104.7l93.6-16.1h244.4c33,0,60-27,60-60v-140&#10;&#9;&#9;&#9;C2337.5,432.9,2310.5,405.9,2277.5,405.9z" style="fill-rule: evenodd; clip-rule: evenodd; fill: rgb(234, 96, 1);" transform="matrix(1, 0, 0, 1, 0, -1.4210854715202004e-14)"/><path class="st6" d="M2078.1,520.2c-10.2,0-18.4,8.3-18.4,18.4c0,10.2,8.2,18.4,18.4,18.4c10.2,0,18.4-8.2,18.4-18.4&#10;&#9;&#9;&#9;C2096.5,528.4,2088.3,520.2,2078.1,520.2z" style="fill-rule: evenodd; clip-rule: evenodd; fill: rgb(255, 255, 255);" transform="matrix(1, 0, 0, 1, 0, -1.4210854715202004e-14)"/><path d="M 2167.000097 538.599976 A 18.4 18.4 0 0 1 2148.600098 556.999975 A 18.4 18.4 0 0 1 2130.200098 538.599976 A 18.4 18.4 0 0 1 2148.600098 520.199976 A 18.4 18.4 0 0 1 2167.000097 538.599976 Z" class="st6" style="fill-rule: evenodd; clip-rule: evenodd; fill: rgb(255, 255, 255);" transform="matrix(1, 0, 0, 1, 0, -1.4210854715202004e-14)"/><path class="st6" d="M2219,520.2c-10.2,0-18.4,8.3-18.4,18.4c0,10.2,8.2,18.4,18.4,18.4c10.2,0,18.4-8.2,18.4-18.4&#10;&#9;&#9;&#9;C2237.5,528.4,2229.2,520.2,2219,520.2z" style="fill-rule: evenodd; clip-rule: evenodd; fill: rgb(255, 255, 255);" transform="matrix(1, 0, 0, 1, 0, -1.4210854715202004e-14)"/><path d="M 0 1740 H 3000 V 2000 H 0 V 1740 Z" class="st16" style="fill-rule: evenodd; clip-rule: evenodd; fill: rgb(179, 131, 56);" transform="matrix(1, 0, 0, 1, 0, -7.105427357601002e-15)"/><path class="st15" d="M1355.8,1300H745.9c-57.3,0-104.2,46.9-104.2,104.2V1705c0,57.3,46.9,104.2,104.2,104.2h609.9&#10;&#9;&#9;&#9;c57.3,0,104.2-46.9,104.2-104.2v-300.9C1460,1346.9,1413.1,1300,1355.8,1300z" style="fill-rule: evenodd; clip-rule: evenodd; fill: rgb(234, 96, 1);" transform="matrix(1, 0, 0, 1, 0, -1.4210854715202004e-14)"/><path class="st6" d="M940.9,1499.6c-3.1,0-5.8,3.3-5.8,6.3v35.6l-30.3-38c-2.5-2.4-3.2-3.2-6.5-3.2c-4.8,0-5.5,3.2-5.5,6.5v50.7&#10;&#9;&#9;&#9;c0,4,2.9,6.3,6.2,6.3c3.3,0,5.8-2.3,5.8-6.3v-35.4l30.3,38.5c2.7,2.5,4.2,3.2,7.4,3.2c2.4-0.7,4.9-2.3,4.9-6.3V1506&#10;&#9;&#9;&#9;C947.4,1502.9,944.2,1499.6,940.9,1499.6z" style="fill-rule: evenodd; clip-rule: evenodd; fill: rgb(255, 255, 255);" transform="matrix(1, 0, 0, 1, 0, -1.4210854715202004e-14)"/><path class="st6" d="M796,1547.7c-4.2,3.8-9.1,5.9-14.3,5.9c-14.2,0-20.9-10.5-20.9-21.8c0-11.2,6.8-21.2,20.9-21.2&#10;&#9;&#9;&#9;c5.2,0,9.1,1.1,12.8,5c2.2,2.2,6,2.5,8.4,0.3c2.5-2.6,2.2-6.6-0.3-8.9c-6.7-5.8-13-8.2-21-8.2c-21.1,0-32.2,15.2-32.2,32.9&#10;&#9;&#9;&#9;c0,17.7,10,32.8,32.2,32.8c7.6,0,15.3-1.2,21.7-7.1c3.2-3.2,2.5-6.6,1-8.6C802.8,1546.6,798.9,1545.5,796,1547.7z" style="fill-rule: evenodd; clip-rule: evenodd; fill: rgb(255, 255, 255);" transform="matrix(1, 0, 0, 1, 0, -1.4210854715202004e-14)"/><path class="st6" d="M1004.7,1500.2h-43.4c-8,0-8,11.7,0,11.7h16v46.3c0,8.2,12.1,8,12.1,0v-46.3h15.2&#10;&#9;&#9;&#9;C1012.8,1511.9,1012.8,1500.2,1004.7,1500.2z" style="fill-rule: evenodd; clip-rule: evenodd; fill: rgb(255, 255, 255);" transform="matrix(1, 0, 0, 1, 0, -1.4210854715202004e-14)"/><path class="st6" d="M848.6,1498.2c-17,0-34.6,11.1-34.6,33.6c0,22.5,17.6,33.7,34.6,33c16,0,32.8-11.3,32.8-33&#10;&#9;&#9;&#9;S864.7,1499,848.6,1498.2z M847.6,1553.5c-10.3,0-21.5-7.3-21.5-21.7c0-14.5,11.2-21.7,21.5-21.7c10.5,0,21.8,7.2,21.8,21.7&#10;&#9;&#9;&#9;C869.4,1546.2,858.2,1553.5,847.6,1553.5z" style="fill-rule: evenodd; clip-rule: evenodd; fill: rgb(255, 255, 255);" transform="matrix(1, 0, 0, 1, 0, -1.4210854715202004e-14)"/><path class="st6" d="M1345.7,1551.9h-28v-13.8h23.1c8.2,0,8.2-12,0-12h-23.1v-13.8h26.4c8.2,0,8.4-11.9,0-11.9h-32.9&#10;&#9;&#9;&#9;c-3.2,0-5.7,2.4-5.7,5.7v52.1c0,3.2,2.5,5.7,5.7,5.7h34.5C1354.7,1563.9,1354,1551.9,1345.7,1551.9z" style="fill-rule: evenodd; clip-rule: evenodd; fill: rgb(255, 255, 255);" transform="matrix(1, 0, 0, 1, 0, -1.4210854715202004e-14)"/><path class="st6" d="M1045.1,1503.7c-2.3-5-8.9-4.9-11.4,0l-26.3,51.4c-1.8,3.9,0,7.2,2.9,8.8c3.3,0.6,6.7,0,8.2-3.1l3.9-8.1h33.8&#10;&#9;&#9;&#9;l4,8.1c3.3,7.1,14.4,1.5,10.6-5.7L1045.1,1503.7z M1028.1,1540.6l11.3-22.6l10.4,22.6H1028.1z" style="fill-rule: evenodd; clip-rule: evenodd; fill: rgb(255, 255, 255);" transform="matrix(1, 0, 0, 1, 0, -1.4210854715202004e-14)"/><path class="st6" d="M1282.4,1501.9l-20.9,28.2l-20.2-27.2c-1.6-1.7-3.1-3.3-5.8-3.3c-1.5,0-5.5,1.6-5.5,6.3v51.6&#10;&#9;&#9;&#9;c0,4,2.6,6.3,5.5,6.3c3.3,0,6.6-2.3,6.6-6.3v-33.9l13.7,19.3c3,4,7.2,4,10.5,0l15.2-19.3v33.9c0,4,2.6,6.3,5.9,6.3&#10;&#9;&#9;&#9;c2.9,0,5.5-2.3,5.5-6.3V1506C1292.9,1499.6,1285.5,1498.2,1282.4,1501.9z" style="fill-rule: evenodd; clip-rule: evenodd; fill: rgb(255, 255, 255);" transform="matrix(1, 0, 0, 1, 0, -1.4210854715202004e-14)"/><path class="st6" d="M1188.4,1500.2H1145c-8,0-8,11.7,0,11.7h16v46.3c0,8.2,12.1,8,12.1,0v-46.3h15.2&#10;&#9;&#9;&#9;C1196.5,1511.9,1196.5,1500.2,1188.4,1500.2z" style="fill-rule: evenodd; clip-rule: evenodd; fill: rgb(255, 255, 255);" transform="matrix(1, 0, 0, 1, 0, -1.4210854715202004e-14)"/><path class="st6" d="M1123.5,1547.7c-4.2,3.8-9.1,5.9-14.3,5.9c-14.2,0-20.9-10.5-20.9-21.8c0-11.2,6.8-21.2,20.9-21.2&#10;&#9;&#9;&#9;c5.2,0,9.1,1.1,12.8,5c2.2,2.2,6,2.5,8.4,0.3c2.5-2.6,2.2-6.6-0.3-8.9c-6.7-5.8-13-8.2-21-8.2c-21.1,0-32.2,15.2-32.2,32.9&#10;&#9;&#9;&#9;c0,17.7,10,32.8,32.2,32.8c7.6,0,15.3-1.2,21.7-7.1c3.2-3.2,2.5-6.6,1-8.6C1130.3,1546.6,1126.3,1545.5,1123.5,1547.7z" style="fill-rule: evenodd; clip-rule: evenodd; fill: rgb(255, 255, 255);" transform="matrix(1, 0, 0, 1, 0, -1.4210854715202004e-14)"/><path class="st6" d="M1323.9,1427.8h-76.1c-8.9,0-16.1,7.3-16.1,16.1s7.3,16.1,16.1,16.1h76.1c8.9,0,16.1-7.3,16.1-16.1&#10;&#9;&#9;&#9;S1332.7,1427.8,1323.9,1427.8z" style="fill-rule: evenodd; clip-rule: evenodd; fill: rgb(255, 255, 255);" transform="matrix(1, 0, 0, 1, 0, -1.4210854715202004e-14)"/><path class="st9" d="M1016.2,1051.2c-108.1,0-196.2,88.1-196.2,196.2c0,108.1,88.1,196.2,196.2,196.2&#10;&#9;&#9;&#9;c108.1,0,196.2-88.1,196.2-196.2C1212.4,1139.4,1124.2,1051.2,1016.2,1051.2z" style="fill-rule: evenodd; clip-rule: evenodd; fill: rgb(232, 94, 109);" transform="matrix(1, 0, 0, 1, 0, -1.4210854715202004e-14)"/><path class="st8" d="M1019.4,1051.3c-1.1,0-2.2,0-3.2,0c-108.4,0-196.2,87.9-196.2,196.2c0,69.1,35.7,129.8,89.6,164.8&#10;&#9;&#9;&#9;c1.1,0,2.2,0,3.2,0c108.4,0,196.2-87.8,196.2-196.2C1109,1147,1073.3,1086.2,1019.4,1051.3z" style="fill-rule: evenodd; clip-rule: evenodd; fill: rgb(242, 159, 139);" transform="matrix(1, 0, 0, 1, 0, -1.4210854715202004e-14)"/><path d="M 0 1920 H 3000 V 2000 H 0 V 1920 Z" class="st17" style="fill-rule: evenodd; clip-rule: evenodd; fill: rgb(163, 115, 35);" transform="matrix(1, 0, 0, 1, 0, -7.105427357601002e-15)"/>
</svg>