<?xml version="1.0" encoding="utf-8"?>
<svg id="master-artboard" viewBox="0 0 1400 980" version="1.1" xmlns="http://www.w3.org/2000/svg" x="0px" y="0px" enable-background="new 0 0 1400 980" width="1400px" height="980px">
<path d="M 0 0 H 1400 V 980 H 0 V 0 Z" fill="#EF904D" transform="matrix(1, 0, 0, 1, 0, -7.105427357601002e-15)" style="fill: rgb(255, 235, 238);"/><path d="M 0 846.799988 H 1400 V 979.999985 H 0 V 846.799988 Z" fill="#C97A36" transform="matrix(1, 0, 0, 1, 0, -7.105427357601002e-15)" style="fill: rgb(255, 235, 238);"/><path d="M 635.200012 193.600006 H 1101.400024 V 524.200012 H 635.200012 V 193.600006 Z" fill="#EF904D" transform="matrix(1, 0, 0, 1, 0, -1.4210854715202004e-14)"/><path d="M 635.200012 173.600006 H 1096.300018 V 498.700012 H 635.200012 V 173.600006 Z" fill="#DC6B36" transform="matrix(1, 0, 0, 1, 0, -1.4210854715202004e-14)"/><path d="M 646.299988 184.800003 H 1085.199982 V 489.500015 H 646.299988 V 184.800003 Z" fill="#EF9166" transform="matrix(1, 0, 0, 1, 0, -1.4210854715202004e-14)"/><path d="M 678.4000244140625 299.70001220703125 L 678.4000244140625 369.6000061035156 L 683.5999755859375 375 L 683.5999755859375 248.39999389648438 L 704.9000244140625 289.70001220703125 L 704.9000244140625 345.20001220703125 L 715.2000122070312 345.20001220703125 L 715.2000122070312 299.70001220703125 L 750.7999877929688 299.70001220703125 L 750.7999877929688 322 L 777.7000122070312 322 L 777.7000122070312 261.20001220703125 L 815.7000122070312 261.20001220703125 L 815.7000122070312 315.3999938964844 L 841 315.3999938964844 L 841 278.20001220703125 L 849.7000122070312 269.8999938964844 L 883 269.8999938964844 L 890.0999755859375 279.79998779296875 L 890.0999755859375 351 L 909.9000244140625 351 L 909.9000244140625 243.39999389648438 L 949.5 208.60000610351562 L 949.5 280.6000061035156 L 1001.7000122070312 280.6000061035156 L 1001.7000122070312 261.20001220703125 L 1022.2999877929688 261.20001220703125 L 1022.2999877929688 318.70001220703125 L 1034.9000244140625 318.70001220703125 L 1034.9000244140625 266.8999938964844 L 1050.699951171875 248.6999969482422 L 1085.199951171875 248.6999969482422 L 1085.199951171875 184.8000030517578 L 1056.0999755859375 184.8000030517578 L 1056.0999755859375 203.39999389648438 L 1030.800048828125 204.3000030517578 L 1030.800048828125 184.8000030517578 L 954.4000244140625 184.8000030517578 L 954.4000244140625 198 L 946.5999755859375 198 L 946.5999755859375 184.8000030517578 L 923.7999877929688 184.8000030517578 L 923.7999877929688 213.1999969482422 L 910.7000122070312 216.5 L 910.7000122070312 184.8000030517578 L 796.2999877929688 184.8000030517578 L 796.2999877929688 194.39999389648438 L 790.9000244140625 194.39999389648438 L 790.9000244140625 217.3000030517578 L 747.2999877929688 217.3000030517578 L 747.2999877929688 193.1999969482422 L 722.2000122070312 193.1999969482422 L 722.2000122070312 184.8000030517578 L 681.7999877929688 184.8000030517578 L 681.7999877929688 203.39999389648438 L 656.5 204.3000030517578 L 656.5 184.8000030517578 L 646.2999877929688 184.8000030517578 L 646.2999877929688 283.1000061035156 L 668.5 283.1000061035156 Z" fill="#DB5747" transform="matrix(1, 0, 0, 1, 0, -1.4210854715202004e-14)"/><path d="M 1085.199951171875 248.6999969482422 L 1050.699951171875 248.6999969482422 L 1034.9000244140625 266.8999938964844 L 1034.9000244140625 318.70001220703125 L 1022.2999877929688 318.70001220703125 L 1022.2999877929688 261.20001220703125 L 1001.7000122070312 261.20001220703125 L 1001.7000122070312 280.6000061035156 L 949.5 280.6000061035156 L 949.5 208.60000610351562 L 909.9000244140625 243.39999389648438 L 909.9000244140625 351 L 890.0999755859375 351 L 890.0999755859375 279.79998779296875 L 883 269.8999938964844 L 849.7000122070312 269.8999938964844 L 841 278.20001220703125 L 841 315.3999938964844 L 815.7000122070312 315.3999938964844 L 815.7000122070312 261.20001220703125 L 777.7000122070312 261.20001220703125 L 777.7000122070312 322 L 750.7999877929688 322 L 750.7999877929688 299.70001220703125 L 715.2000122070312 299.70001220703125 L 715.2000122070312 345.20001220703125 L 704.9000244140625 345.20001220703125 L 704.9000244140625 289.70001220703125 L 683.5999755859375 248.39999389648438 L 683.5999755859375 375 L 678.4000244140625 369.6000061035156 L 678.4000244140625 299.70001220703125 L 668.5 283.1000061035156 L 646.2999877929688 283.1000061035156 L 646.2999877929688 401.8999938964844 L 646.2999877929688 489.5 L 1085.199951171875 489.5 Z" fill="#DB5734" transform="matrix(1, 0, 0, 1, 0, -1.4210854715202004e-14)"/><g transform="matrix(1, 0, 0, 1, 0, -1.4210854715202004e-14)">
				<path d="M 897.0999755859375 184.10000610351562 L 698.5999755859375 488.29998779296875 L 752.4000244140625 488.29998779296875 L 950.7999877929688 184.10000610351562 Z" fill="#EF9166"/>
				<path d="M 976.2000122070312 184.10000610351562 L 777.7000122070312 488.29998779296875 L 803.0999755859375 488.29998779296875 L 1001.5 184.10000610351562 Z" fill="#EF9166"/>
			</g><path fill="#787475" d="M480.6,500.8c0,22.5,18.3,40.8,40.8,40.8h47.4c22.5,0,40.8-18.3,40.8-40.8l0,0c0-22.5-18.3-40.8-40.8-40.8&#10;&#9;&#9;&#9;h-47.4C498.9,460,480.6,478.2,480.6,500.8L480.6,500.8z" transform="matrix(1, 0, 0, 1, 0, -1.4210854715202004e-14)"/><path fill="#92979B" d="M487.2,498.9c0,22.5,18.3,40.8,40.8,40.8h47.4c22.5,0,40.8-18.3,40.8-40.8l0,0c0-22.5-18.3-40.8-40.8-40.8&#10;&#9;&#9;&#9;H528C505.5,458.1,487.2,476.3,487.2,498.9L487.2,498.9z" transform="matrix(1, 0, 0, 1, 0, -1.4210854715202004e-14)"/><path d="M 506.899994 502.899994 H 530.399994 V 722.699997 H 506.899994 V 502.899994 Z" fill="#92979B" transform="matrix(1, 0, 0, 1, 0, -1.4210854715202004e-14)"/><path d="M 506.899994 502.899994 H 512.499994 V 722.699997 H 506.899994 V 502.899994 Z" fill="#787475" transform="matrix(1, 0, 0, 1, 0, -1.4210854715202004e-14)"/><path fill="#146882" d="M622.4,423.5l-5.2,5.7c0,0,41.7,28.9,55.5,53.6s-77.8,14.7-77.8,14.7l0.5,16.1c0,0,110.5,17.1,113.4-22.3&#10;&#9;&#9;&#9;s-55.5-80.6-55.5-80.6L622.4,423.5z" transform="matrix(1, 0, 0, 1, 0, -1.4210854715202004e-14)"/><path fill="#0B566C" d="M595.4,513.6l-0.3-9.7c14.5,2.5,65.6,10.4,91.8,0.7c13.9-5.1,19.4-14.6,21.2-23.4&#10;&#9;&#9;&#9;c0.6,3.4,0.8,6.8,0.6,10.1C705.9,530.6,595.4,513.6,595.4,513.6z" transform="matrix(1, 0, 0, 1, 0, -1.4210854715202004e-14)"/><path fill="#F3C286" d="M646.9,376c0,0-0.9-6.6-6.8-6.2c-6,0.3-9.1,7-17.3,15.8c-8.2,8.9-8.5,15.6-6.5,23.5&#10;&#9;&#9;&#9;&#9;c1.9,7.9,6.5,18.9,14.1,20.7c7.6,1.8,14.7-5.6,16.9-7.5c2.1-1.9,13.3-18.5,13.3-19.2C660.6,402.4,646.9,376,646.9,376z" transform="matrix(1, 0, 0, 1, 0, -1.4210854715202004e-14)"/><path d="M 604.2999877929688 389.79998779296875 L 649.5999755859375 437.5 L 651.5999755859375 437.8999938964844 L 670.4000244140625 417.79998779296875 L 627.2999877929688 370.3999938964844 L 625.2000122070312 370 Z" fill="#7B746E" transform="matrix(1, 0, 0, 1, 0, -1.4210854715202004e-14)"/><path d="M 606.4000244140625 390.20001220703125 L 651.5999755859375 437.8999938964844 L 672.5 418.1000061035156 L 627.2999877929688 370.3999938964844 Z" fill="#BFB9CB" transform="matrix(1, 0, 0, 1, 0, -1.4210854715202004e-14)"/><path d="M 607.7999877929688 390.6000061035156 L 648.9000244140625 433.8999938964844 L 668.7000122070312 415.1000061035156 L 627.5999755859375 371.79998779296875 Z" fill="#E8E3DE" transform="matrix(1, 0, 0, 1, 0, -1.4210854715202004e-14)"/><path fill="#E8E3DE" d="M659.5,425.3c-1.3,1.2-1.9,2.7-1.3,3.3c0.6,0.6,2.1,0.1,3.4-1.1c1.3-1.2,1.9-2.7,1.3-3.3&#10;&#9;&#9;&#9;&#9;&#9;C662.3,423.5,660.8,424.1,659.5,425.3z" transform="matrix(1, 0, 0, 1, 0, -1.4210854715202004e-14)"/><path fill="#F3C286" d="M656.3,399.3c0,0,3.8-9.1,10.2-3.3c6.4,5.9,5.1,9.5,5.1,9.5l-15.5,8c0,0-4.1-2.2-3.7-5.2&#10;&#9;&#9;&#9;&#9;&#9;c0.3-3.1,6-5.3,6-5.3L656.3,399.3z" transform="matrix(1, 0, 0, 1, 0, -1.4210854715202004e-14)"/><path fill="#D78E55" d="M652.4,408.3c0.3-3.1,6-5.3,6-5.3l-2-3.7c0,0,0.4-1.1,1.3-2.2l2.4,3.4c2.8-3.1,6-1.8,4.5-1.3&#10;&#9;&#9;&#9;&#9;&#9;c-1.5,0.6-3.6,2.8-3.6,2.8s-1.7,0.7-5.7,4.6c-4,3.9,1,6.9,1,6.9S652,411.3,652.4,408.3z" transform="matrix(1, 0, 0, 1, 0, -1.4210854715202004e-14)"/><path fill="#F3C286" d="M649.8,391.1c0,0,2.2-11.4,11-6.1c8.8,5.3,8.1,9.8,8.1,9.8l-16,12.8c0,0-5.2-1.6-5.5-5.2&#10;&#9;&#9;&#9;&#9;&#9;c-0.3-3.6,5.7-7.5,5.7-7.5L649.8,391.1z" transform="matrix(1, 0, 0, 1, 0, -1.4210854715202004e-14)"/><path fill="#D78E55" d="M647.3,402.3c-0.3-3.6,5.7-7.5,5.7-7.5l-3.2-3.8c0,0,0.3-1.3,1-2.9l3.5,3.4c2.6-4.3,6.5-3.5,4.9-2.5&#10;&#9;&#9;&#9;&#9;&#9;c-1.6,1-3.6,4-3.6,4s-1.7,1.2-5.5,6.6c-3.7,5.4,2.7,7.8,2.7,7.8S647.6,405.9,647.3,402.3z" transform="matrix(1, 0, 0, 1, 0, -1.4210854715202004e-14)"/><path fill="#F3C286" d="M643.4,384.1c0,0,0.9-11.6,10.2-7.3c9.3,4.3,9.1,8.8,9.1,8.8l-14.5,14.5c0,0-5.3-1-6.1-4.5&#10;&#9;&#9;&#9;&#9;&#9;c-0.7-3.5,4.8-8.1,4.8-8.1L643.4,384.1z" transform="matrix(1, 0, 0, 1, 0, -1.4210854715202004e-14)"/><path fill="#D78E55" d="M642.2,395.6c-0.7-3.5,4.8-8.1,4.8-8.1l-3.6-3.4c0,0,0.1-1.4,0.6-3l3.9,3c2.1-4.5,6.1-4.2,4.6-3&#10;&#9;&#9;&#9;&#9;&#9;c-1.5,1.2-3.1,4.4-3.1,4.4s-1.6,1.4-4.7,7.2c-3.1,5.8,3.6,7.4,3.6,7.4S642.9,399.1,642.2,395.6z" transform="matrix(1, 0, 0, 1, 0, -1.4210854715202004e-14)"/><path fill="#F3C286" d="M634.6,378c0,0,0.4-11.6,9.9-7.8c9.5,3.7,9.6,8.3,9.6,8.3l-13.7,15.2c0,0-5.4-0.7-6.3-4.2&#10;&#9;&#9;&#9;&#9;&#9;c-0.9-3.5,3.7-8,3.7-8L634.6,378z" transform="matrix(1, 0, 0, 1, 0, -1.4210854715202004e-14)"/><path fill="#D78E55" d="M634.1,389.6c-0.9-3.5,3.7-8,3.7-8l-3.3-3.5c0,0,0.1-1.3,0.5-3l4,2.8c1.8-4.6,5.8-4.5,4.4-3.3&#10;&#9;&#9;&#9;&#9;&#9;c-1.4,1.2-2.8,4.6-2.8,4.6s-1.5,1.5-4.3,7.4c-2.8,5.9,4,7.2,4,7.2S635,393,634.1,389.6z" transform="matrix(1, 0, 0, 1, 0, -1.4210854715202004e-14)"/><path fill="#F3C286" d="M633.6,425.7c0,0,1.5-11.9-7-18.5c-8.5-6.6-7-4.1-7-4.1s1.5-14.2-5.8-15.4c0,0-1.4-0.9-2,0.3&#10;&#9;&#9;&#9;&#9;c-0.6,1.2-0.8,13.7-0.8,14.8c-0.1,1,0.6,7.4,4,13.9C618.2,423.2,627.5,433.9,633.6,425.7z" transform="matrix(1, 0, 0, 1, 0, -1.4210854715202004e-14)"/><path fill="#146882" d="M594.4,495.6c0,0,18.5,21.3,65.9,28.5s115.3-45.5,115.3-45.5s4.7-0.5,10,1.9s15.2,16.6,13.3,26.1&#10;&#9;&#9;&#9;c-1.9,9.5-74.5,39.4-124.7,35.6c-50.3-3.8-75.4-27-75.4-27L594.4,495.6z" transform="matrix(1, 0, 0, 1, 0, -1.4210854715202004e-14)"/><path fill="#0B566C" d="M597.9,511.3c12.6,8.5,38.5,21.3,82.9,24.5c65.9,4.7,107.7-33.2,107.7-33.2c-10.9-7-8.4-19.5-7.1-23.7&#10;&#9;&#9;&#9;c1.3,0.3,2.8,0.7,4.3,1.4c5.2,2.4,15.2,16.6,13.3,26.1c-1.9,9.5-74.5,39.4-124.7,35.6c-50.3-3.8-75.4-27-75.4-27L597.9,511.3z" transform="matrix(1, 0, 0, 1, 0, -1.4210854715202004e-14)"/><path fill="#146882" d="M405.2,350.4c0,0,10,2.8,13.8,5.7c3.8,2.8,0.5,66.9,35.1,90.6c34.6,23.7,76.4,34.2,76.4,34.2v8.5&#10;&#9;&#9;&#9;c0,0-100.6-18.5-132.3-50.3s-28.9-79.2-28.9-79.2L405.2,350.4z" transform="matrix(1, 0, 0, 1, 0, -1.4210854715202004e-14)"/><path fill="#0B566C" d="M369.1,359.9l36-9.5c0,0,6.3,1.8,10.8,4c1.6,16.8-27.4,21.2-27.4,21.2s-5.2,28.5,17.6,55&#10;&#9;&#9;&#9;c19.6,22.9,101.9,51,124.3,58.4v0.4c0,0-100.6-18.5-132.3-50.3S369.1,359.9,369.1,359.9z" transform="matrix(1, 0, 0, 1, 0, -1.4210854715202004e-14)"/><path fill="#146882" d="M436,470.4c0,0,27.5,56.9,40.3,62.6c12.8,5.7,40.3-40.8,40.3-40.8s5.7,6.2,6.2,8.5&#10;&#9;&#9;&#9;c0.5,2.4-25.1,53.6-47,52.2c-21.8-1.4-73.5-56-73.5-56L436,470.4z" transform="matrix(1, 0, 0, 1, 0, -1.4210854715202004e-14)"/><path fill="#0B566C" d="M436.2,485.5c-0.3,16-17.2,14.8-17.2,14.8s31.8,42.2,54.1,46c22.3,3.8,40.8-29.4,40.8-29.4&#10;&#9;&#9;&#9;s0.1,0.5,0.3,1.4c-9.3,15.5-24.5,35.5-38.3,34.6c-21.8-1.4-73.5-56-73.5-56l26.7-21C433.4,478.3,436.2,481.4,436.2,485.5z" transform="matrix(1, 0, 0, 1, 0, -1.4210854715202004e-14)"/><path fill="#146882" d="M516.6,492.2c0,0-14.2,90.6-34.6,92.5c-20.4,1.9-39.8-13.3-48.9-13.8c-9-0.5-17.1,29.9-8.5,38.4&#10;&#9;&#9;&#9;s64.5,10.4,76.4-10.4s23.2-85.9,23.2-85.9L516.6,492.2z" transform="matrix(1, 0, 0, 1, 0, -1.4210854715202004e-14)"/><path fill="#0B566C" d="M424.6,609.4c-2.6-2.6-3.6-7.1-3.6-12.2c2.9,0.2,5.5,1.3,5.5,1.3s23.7,7.6,54.1,3.3&#10;&#9;&#9;&#9;c30.4-4.3,40.3-76.4,40.3-76.4s0.2,0.7,0.6,2c-4.1,20.4-12.2,56.8-20.5,71.5C489.1,619.8,433.2,617.9,424.6,609.4z" transform="matrix(1, 0, 0, 1, 0, -1.4210854715202004e-14)"/><path fill="#F3C286" d="M397.2,568.7c0,0-3-5.9,2.1-9c5.1-3.1,11.4,0.7,23.2,3.4c11.8,2.7,15.8,8.2,18.6,15.7&#10;&#9;&#9;&#9;c2.8,7.6,5.2,19.3,0,25.1c-5.2,5.8-15.3,3.7-18.2,3.3c-2.8-0.4-21.4-7.8-21.8-8.4C400.7,598.1,397.2,568.7,397.2,568.7z" transform="matrix(1, 0, 0, 1, 0, -1.4210854715202004e-14)"/><path d="M 440.1000061035156 556.0999755859375 L 429.6000061035156 621 L 428.1000061035156 622.5 L 401.20001220703125 616.4000244140625 L 410.20001220703125 553 L 411.70001220703125 551.5 Z" fill="#7B746E" transform="matrix(1, 0, 0, 1, 0, -1.4210854715202004e-14)"/><path d="M 438.6000061035156 557.5999755859375 L 428.1000061035156 622.5 L 399.70001220703125 617.9000244140625 L 410.20001220703125 553 Z" fill="#BFB9CB" transform="matrix(1, 0, 0, 1, 0, -1.4210854715202004e-14)"/><path d="M 437.70001220703125 558.7000122070312 L 428.1000061035156 617.5999755859375 L 401.20001220703125 613.2000122070312 L 410.79998779296875 554.2999877929688 Z" fill="#E8E3DE" transform="matrix(1, 0, 0, 1, 0, -1.4210854715202004e-14)"/><path fill="#E8E3DE" d="M414.5,616.5c1.8,0.3,3.1,1.2,3,2c-0.1,0.8-1.7,1.2-3.4,1c-1.8-0.3-3.1-1.2-3-2&#10;&#9;&#9;&#9;&#9;C411.2,616.6,412.7,616.2,414.5,616.5z" transform="matrix(1, 0, 0, 1, 0, -1.4210854715202004e-14)"/><path fill="#F3C286" d="M436.1,602.3c0,0-7.9-9-4.7-19.2c3.3-10.3,3.4-7.3,3.4-7.3s-9.2-10.9-3.8-16c0,0,0.6-1.5,1.9-0.9&#10;&#9;&#9;&#9;c1.2,0.7,8.4,10.9,9,11.7c0.6,0.8,3.7,6.5,4.6,13.7C447.4,591.5,445.8,605.6,436.1,602.3z" transform="matrix(1, 0, 0, 1, 0, -1.4210854715202004e-14)"/><path fill="#F3C286" d="M395.3,314.4c0,0,4.4-5,9.1-1.4c4.8,3.6,3.7,10.8,5.6,22.8c1.9,11.9-1.6,17.7-7.6,23.2&#10;&#9;&#9;&#9;c-6,5.5-15.9,12.1-23.2,9.5c-7.3-2.7-9.2-12.8-9.9-15.6c-0.7-2.8-0.8-22.8-0.5-23.4C369.3,328.8,395.3,314.4,395.3,314.4z" transform="matrix(1, 0, 0, 1, 0, -1.4210854715202004e-14)"/><path fill="#F3C286" d="M378.8,363.1c0,0,5.3-10.7,16.1-11.6c10.7-0.8,8.1,0.4,8.1,0.4s6.7-12.7,13.4-9.6c0,0,1.7,0,1.5,1.4&#10;&#9;&#9;&#9;c-0.1,1.4-7,11.9-7.5,12.8c-0.5,0.9-4.6,5.9-11,9.4C393,369.5,379.4,373.3,378.8,363.1z" transform="matrix(1, 0, 0, 1, 0, -1.4210854715202004e-14)"/><path fill="#231F20" d="M601.2,374.8c0,0,10.3-4.3,14.6-17.1c4.3-12.8-3.6-27-3.6-27l0.4,5.7c0,0-6-10.7-28.5-16&#10;&#9;&#9;&#9;c-22.4-5.3-52.6,6.4-67.6,11.4c-14.9,5-20.6-0.4-29.2,2.5c-8.5,2.8-1.8,15.3-1.8,15.3s-20.6,0-12.5,23.5&#10;&#9;&#9;&#9;c8.2,23.5,45.2,58.3,46.6,60.1c1.4,1.8,27.7,4.3,27.7,4.3L601.2,374.8z" transform="matrix(1, 0, 0, 1, 0, -1.4210854715202004e-14)"/><path fill="#146882" d="M601.1,499.3c0,0,22.3,79.2,39.8,83.5c17.6,4.3,23.2-10.9,43.6-13.3c20.4-2.4,13.3,28,2.8,37.5&#10;&#9;&#9;&#9;c-10.4,9.5-48.9,9.5-66.9-16.1c-18-25.6-25.1-74.5-25.1-74.5L601.1,499.3z" transform="matrix(1, 0, 0, 1, 0, -1.4210854715202004e-14)"/><path fill="#0B566C" d="M620.5,590.9c-13.5-19.2-20.9-51.6-23.8-66.5c1.1-1.2,1.9-1.8,1.9-1.8s10.4,56.4,33.7,74&#10;&#9;&#9;&#9;c15.5,11.7,42.8,8.6,59.2,5.3c-1.3,2-2.7,3.8-4.2,5.2C677,616.5,638.5,616.5,620.5,590.9z" transform="matrix(1, 0, 0, 1, 0, -1.4210854715202004e-14)"/><path d="M 658 848.400024 H 669.4 V 865.000025 H 658 V 848.400024 Z" fill="#787475" transform="matrix(1, 0, 0, 1, 0, -1.4210854715202004e-14)"/><path fill="#5E5553" d="M665.6,863.6c0,2.9,2.3,5.2,5.2,5.2l0,0c2.9,0,5.2-2.3,5.2-5.2v-12.3c0-2.9-2.3-5.2-5.2-5.2l0,0&#10;&#9;&#9;&#9;&#9;c-2.9,0-5.2,2.3-5.2,5.2V863.6z" transform="matrix(1, 0, 0, 1, 0, -1.4210854715202004e-14)"/><path fill="#5E5553" d="M651.8,863.6c0,2.9,2.3,5.2,5.2,5.2l0,0c2.9,0,5.2-2.3,5.2-5.2v-12.3c0-2.9-2.3-5.2-5.2-5.2l0,0&#10;&#9;&#9;&#9;&#9;c-2.9,0-5.2,2.3-5.2,5.2V863.6z" transform="matrix(1, 0, 0, 1, 0, -1.4210854715202004e-14)"/><path d="M 560.299988 848.400024 H 571.699987 V 865.000025 H 560.299988 V 848.400024 Z" fill="#787475" transform="matrix(1, 0, 0, 1, 0, -1.4210854715202004e-14)"/><path fill="#5E5553" d="M567.9,863.6c0,2.9,2.3,5.2,5.2,5.2l0,0c2.9,0,5.2-2.3,5.2-5.2v-12.3c0-2.9-2.3-5.2-5.2-5.2l0,0&#10;&#9;&#9;&#9;&#9;c-2.9,0-5.2,2.3-5.2,5.2V863.6z" transform="matrix(1, 0, 0, 1, 0, -1.4210854715202004e-14)"/><path fill="#5E5553" d="M554.1,863.6c0,2.9,2.3,5.2,5.2,5.2l0,0c2.9,0,5.2-2.3,5.2-5.2v-12.3c0-2.9-2.3-5.2-5.2-5.2l0,0&#10;&#9;&#9;&#9;&#9;c-2.9,0-5.2,2.3-5.2,5.2V863.6z" transform="matrix(1, 0, 0, 1, 0, -1.4210854715202004e-14)"/><path d="M 462.600006 848.400024 H 474.000006 V 865.000025 H 462.600006 V 848.400024 Z" fill="#787475" transform="matrix(1, 0, 0, 1, 0, -1.4210854715202004e-14)"/><path fill="#5E5553" d="M470.2,863.6c0,2.9,2.3,5.2,5.2,5.2l0,0c2.9,0,5.2-2.3,5.2-5.2v-12.3c0-2.9-2.3-5.2-5.2-5.2l0,0&#10;&#9;&#9;&#9;&#9;c-2.9,0-5.2,2.3-5.2,5.2V863.6z" transform="matrix(1, 0, 0, 1, 0, -1.4210854715202004e-14)"/><path fill="#5E5553" d="M456.4,863.6c0,2.9,2.3,5.2,5.2,5.2l0,0c2.9,0,5.2-2.3,5.2-5.2v-12.3c0-2.9-2.3-5.2-5.2-5.2l0,0&#10;&#9;&#9;&#9;&#9;c-2.9,0-5.2,2.3-5.2,5.2V863.6z" transform="matrix(1, 0, 0, 1, 0, -1.4210854715202004e-14)"/><path d="M 460.20001220703125 847.5 L 668.9000244140625 847.5 L 668.9000244140625 836.0999755859375 L 583 824.7000122070312 L 550.7999877929688 824.7000122070312 L 460.20001220703125 836.0999755859375 Z" fill="#92979B" transform="matrix(1, 0, 0, 1, 0, -1.4210854715202004e-14)"/><path d="M 544.599976 701.400024 H 584.399975 V 847.500031 H 544.599976 V 701.400024 Z" fill="#92979B" transform="matrix(1, 0, 0, 1, 0, -1.4210854715202004e-14)"/><path fill="#5E5553" d="M474.4,696.1c0,12.8,10.4,23.1,23.1,23.1h134c12.8,0,23.1-10.3,23.1-23.1l0,0c0-12.8-10.4-23.1-23.1-23.1&#10;&#9;&#9;&#9;h-134C484.8,672.9,474.4,683.3,474.4,696.1L474.4,696.1z" transform="matrix(1, 0, 0, 1, 0, -1.4210854715202004e-14)"/><path d="M 467.799988 701.400024 H 661.299988 V 722.700024 H 467.799988 V 701.400024 Z" fill="#787475" transform="matrix(1, 0, 0, 1, 0, -1.4210854715202004e-14)"/><path fill="#146882" d="M602,632.6c0,0,2.8,42.7,2.8,48.4c0,5.7-20.4,1.9-29.4,2.8c-9,0.9-52.2,23.2-52.2,23.2&#10;&#9;&#9;&#9;s-11.9-16.6-11.9-39.8c0-23.2,6.2-37,6.2-37L602,632.6z" transform="matrix(1, 0, 0, 1, 0, -1.4210854715202004e-14)"/><path fill="#0B566C" d="M517.6,630.3c0,0-13.8,26.6-12.3,52.2c1.4,25.6,19,29.9,19,29.9s21.8-28.9,22.3-30.4c0.5-1.4,1-19,1-21.8&#10;&#9;&#9;&#9;c0-2.8-4.3-13.8-4.3-13.8L517.6,630.3z" transform="matrix(1, 0, 0, 1, 0, -1.4210854715202004e-14)"/><path fill="#603A17" d="M807.9,856c0,0,1.8,3.3,1.1,4.4s-16.4,7.1-39.1,8.9s-24.5,0-24.5,0l-1.8-3.6l-11-3.9v8.9&#10;&#9;&#9;&#9;c0,0-33.1,2.8-43.4-4.3l4.3-12.5L807.9,856z" transform="matrix(1, 0, 0, 1, 0, -1.4210854715202004e-14)"/><path fill="#754D29" d="M731.5,830.9c0,0,18,10.4,41.7,11.4c23.7,0.9,27.5,0.9,27.5,0.9s7.6,10.4,7.1,12.8&#10;&#9;&#9;&#9;c-0.5,2.4-46,6.6-53.1,6.6c-7.1,0-10.4-2.8-12.3-3.8c-1.9-0.9-9-1.9-9-1.9l-7.6,5.2c0,0-27-1.4-32.7-4.3s1.9-21.8,1.9-21.8&#10;&#9;&#9;&#9;L731.5,830.9z" transform="matrix(1, 0, 0, 1, 0, -1.4210854715202004e-14)"/><path fill="#146882" d="M568.8,632.2c0,0-25.4,53.8,2.1,61.4c27.5,7.6,99.4,14,107,14c7.6,0,12.3,129,12.3,129&#10;&#9;&#9;&#9;s32.3,17.1,48.4-10.4c0,0-6.6-132.8-18-153.7C709.2,651.6,602,632.6,602,632.6L568.8,632.2z" transform="matrix(1, 0, 0, 1, 0, -1.4210854715202004e-14)"/><path fill="#0B566C" d="M602,632.6c0,0,3.2,0.6,8.5,1.6c-11.9,11-38.7,38.2-21.8,44.4c21.3,7.8,76.1,14.2,87.5,14.2&#10;&#9;&#9;&#9;c11.4,0,22.8-4.3,22.8-4.3s-12.8,13.5-12.1,15.7c0.7,2.1,6.4,88.2,11.4,116.7c2.1,11.8,8,17.8,14.3,20.9&#10;&#9;&#9;&#9;c-12,0.3-22.4-5.2-22.4-5.2s-4.7-129-12.3-129c-7.6,0-79.4-6.4-107-14c-27.5-7.6-2.1-61.4-2.1-61.4L602,632.6z" transform="matrix(1, 0, 0, 1, 0, -1.4210854715202004e-14)"/><path fill="#603A17" d="M562.4,865.5l10.7,2.4c0,0,1.7,8.5-0.2,11.9h-5.7c0,0,0.7,25.4-10.2,29.6c0,0-29.4,6.9-42.2-2.4&#10;&#9;&#9;&#9;c0,0-4-16.6-1.4-17.8C515.9,888,562.4,865.5,562.4,865.5z" transform="matrix(1, 0, 0, 1, 0, -1.4210854715202004e-14)"/><path fill="#754D29" d="M562.2,841.3c0,0,13.8,23.7,10.4,28c-3.3,4.3-6.2,4.3-6.2,4.3s1.4,22.3-13.8,25.1&#10;&#9;&#9;&#9;c-15.2,2.8-31.3,0.5-35.1-2.8c-3.8-3.3-4.3-6.6-4.3-6.6s10-11.4,10.9-28.5c1-17.1,1-21.3,1-21.3L562.2,841.3z" transform="matrix(1, 0, 0, 1, 0, -1.4210854715202004e-14)"/><path fill="#146882" d="M517.1,691.9c-8.2,51.8,5.2,155.8,5.2,155.8s32.3,16.1,48.4,0c0,0,5.7-128.1,2.8-153.7&#10;&#9;&#9;&#9;c-2.8-25.6-2.8-42.5-28.9-44.3C518.5,647.8,519.6,676.1,517.1,691.9z" transform="matrix(1, 0, 0, 1, 0, -1.4210854715202004e-14)"/><path fill="#0B566C" d="M517.1,691.9c2.5-15.8,1.4-44.1,27.5-42.2c0.1,0,0.3,0,0.4,0c-3,2.9-6.2,6.7-9.4,11.8&#10;&#9;&#9;&#9;c-13.3,20.9-13.8,133.8-7.1,168.4c2.5,13.1,7.6,20.2,13,24c-10.5-1.9-19.1-6.2-19.1-6.2S508.9,743.7,517.1,691.9z" transform="matrix(1, 0, 0, 1, 0, -1.4210854715202004e-14)"/><path fill="#146882" d="M545.1,469.9l-28.5,22.3c0,0,13.8,105.3-3.3,141.8c0,0,27,21.8,65.9,21.3l6.6-19.4l10.7,19.2l17.1-18.5&#10;&#9;&#9;&#9;c0,0-17.3-44.8-15.4-82.8c1.9-37.9,2.8-54.5,2.8-54.5s-18-19.4-34.2-24.7S545.1,469.9,545.1,469.9z" transform="matrix(1, 0, 0, 1, 0, -1.4210854715202004e-14)"/><path fill="#FFFFFF" d="M533.6,480.8c-0.1-0.3-0.1-0.9-0.2-1.8l11.7-9.2c0,0,5.7-0.5,21.8,4.7c1.6,0.5,3.3,1.2,5,2l5.1,7&#10;&#9;&#9;&#9;c0,0,9.6,4.6,6.8,24.2c-2.8,19.6-12.5,54.8-12.5,54.8s-18.9-55.5-25.6-63.7C538.9,490.8,534,482.3,533.6,480.8z" transform="matrix(1, 0, 0, 1, 0, -1.4210854715202004e-14)"/><path fill="#BE202E" d="M578.4,534.7c-3.5,14.7-7.1,28-7.1,28s-6-17.5-12.4-34.4l6.3-21.1l6.6-1.9L578.4,534.7z" transform="matrix(1, 0, 0, 1, 0, -1.4210854715202004e-14)"/><path d="M 571.9000244140625 491.79998779296875 L 566.9000244140625 493.8999938964844 L 557 492.5 L 555.7999877929688 498.3999938964844 L 565.2999877929688 507.20001220703125 L 572.0999755859375 507.20001220703125 L 575 499.79998779296875 Z" fill="#BE202E" transform="matrix(1, 0, 0, 1, 0, -1.4210854715202004e-14)"/><path d="M 537.7000122070312 477.5 L 535.4000244140625 465 L 557.2000122070312 463.29998779296875 L 570.2000122070312 468.5 L 569.5 479.70001220703125 L 552 479.8999938964844 Z" fill="#A7C3E6" transform="matrix(1, 0, 0, 1, 0, -1.4210854715202004e-14)"/><path d="M 577.0999755859375 482 L 581.9000244140625 480.6000061035156 L 584 493.20001220703125 L 572.7999877929688 487 Z" fill="#A7C3E6" transform="matrix(1, 0, 0, 1, 0, -1.4210854715202004e-14)"/><path d="M 572.7999877929688 484.6000061035156 L 570 493.70001220703125 L 573.7999877929688 498.3999938964844 L 578.7999877929688 488.70001220703125 L 575.9000244140625 483.70001220703125 Z" fill="#BE202E" transform="matrix(1, 0, 0, 1, 0, -1.4210854715202004e-14)"/><path d="M 570 469.70001220703125 L 581.9000244140625 480.6000061035156 L 569.0999755859375 490.79998779296875 L 568.0999755859375 481.79998779296875 Z" fill="#FFFFFF" transform="matrix(1, 0, 0, 1, 0, -1.4210854715202004e-14)"/><path fill="#F3C286" d="M567.7,460.9c0,0,2.1,18.9,2.1,24.2c0,5.3-10.3,7.8-10.3,7.8l-14.9-12.1c0,0-5-30.6-7.5-35.9&#10;&#9;&#9;&#9;C534.7,439.6,567.7,460.9,567.7,460.9z" transform="matrix(1, 0, 0, 1, 0, -1.4210854715202004e-14)"/><path fill="#D78E55" d="M567.7,460.9c0,0,0.5,4.1,1,9.1c-3.6,1.3-9.7,1.4-20.2-2.7l-1.8,15.2l-2.1-1.7c0,0-5-30.6-7.5-35.9&#10;&#9;&#9;&#9;C534.7,439.6,567.7,460.9,567.7,460.9z" transform="matrix(1, 0, 0, 1, 0, -1.4210854715202004e-14)"/><path fill="#F3C286" d="M605,364.1c0,0,17.4,67.6,2.4,100.2c0,0-47.8,21.2-73-17.4c0,0-17.4,25.5-32-7.6&#10;&#9;&#9;&#9;c-14.7-33.1,15.2-32,15.2-32l14.4,18.2c0,0,8.7-7.1,4.1-27.4c-4.6-20.4-11.1-30.4-11.1-30.4s11.1,5.2,37.7,1.1&#10;&#9;&#9;&#9;c26.6-4.1,35.3-14.1,35.3-14.1l-7.1,13.6L605,364.1z" transform="matrix(1, 0, 0, 1, 0, -1.4210854715202004e-14)"/><path fill="#231F20" d="M562.2,432.2l39.9,4.6c0,0,6,20.4-16.8,22.8C562.4,462,562.2,432.2,562.2,432.2z" transform="matrix(1, 0, 0, 1, 0, -1.4210854715202004e-14)"/><path fill="#E54145" d="M574.7,454.8c0,0,3.1-4.8,8.3-4.9c5.2-0.1,11.5,4.2,11.5,4.2S588.2,459.9,574.7,454.8z" transform="matrix(1, 0, 0, 1, 0, -1.4210854715202004e-14)"/><path d="M 597.2000122070312 437.6000061035156 L 596.9000244140625 441.70001220703125 L 566 435.5 Z" fill="#FFFFFF" transform="matrix(1, 0, 0, 1, 0, -1.4210854715202004e-14)"/><path fill="#231F20" d="M566.2,402.9c1.8,0,3.3-1.5,3.3-3.3c0-1.8-1.5-3.3-3.3-3.3c-0.2,0-0.3,0.1-0.5,0.1&#10;&#9;&#9;&#9;c0.9-1.4,2.1-2.3,3.5-2.3c2.7,0,4.9,3.4,4.9,7.6c0,4.2-2.2,7.6-4.9,7.6c-2.6,0-4.7-3.2-4.9-7.2&#10;&#9;&#9;&#9;C564.9,402.6,565.5,402.9,566.2,402.9z" transform="matrix(1, 0, 0, 1, 0, -1.4210854715202004e-14)"/><path fill="#231F20" d="M593.9,403.1c1.8,0,3.3-1.5,3.3-3.3c0-1.8-1.5-3.3-3.3-3.3c-0.2,0-0.3,0.1-0.5,0.1&#10;&#9;&#9;&#9;c0.9-1.4,2.1-2.3,3.5-2.3c2.7,0,4.9,3.4,4.9,7.6c0,4.2-2.2,7.6-4.9,7.6c-2.6,0-4.7-3.2-4.9-7.2&#10;&#9;&#9;&#9;C592.6,402.9,593.2,403.1,593.9,403.1z" transform="matrix(1, 0, 0, 1, 0, -1.4210854715202004e-14)"/><path fill="#231F20" d="M577.4,387.4l-3.3,0.5c0,0-6.5-3.5-10.3-3.5c-3.8,0-5.7,1.6-5.7,1.6s1.6-4.9,5.4-4.9&#10;&#9;&#9;&#9;C567.3,381.2,577.4,387.4,577.4,387.4z" transform="matrix(1, 0, 0, 1, 0, -1.4210854715202004e-14)"/><path fill="#231F20" d="M586.3,386c0,0,16.6,0.5,17.6,0.5c1.1,0-8.7,2.4-12.8,2.2C587.1,388.5,586.3,386,586.3,386z" transform="matrix(1, 0, 0, 1, 0, -1.4210854715202004e-14)"/><path d="M 550.0999755859375 483.5 L 556.7000122070312 481.6000061035156 L 560.5 493.3999938964844 L 549.4000244140625 489.6000061035156 Z" fill="#A7C3E6" transform="matrix(1, 0, 0, 1, 0, -1.4210854715202004e-14)"/><path d="M 561.5 495.79998779296875 L 555.0999755859375 491.5 L 552.7000122070312 488 L 549.4000244140625 489.6000061035156 L 550.0999755859375 494.79998779296875 L 558.5999755859375 498.8999938964844 Z" fill="#BE202E" transform="matrix(1, 0, 0, 1, 0, -1.4210854715202004e-14)"/><path fill="#FFFFFF" d="M556.7,481.6c0,0-8.1,16.4-8.1,17.1c0,0.7-13.3-19.9-13.3-19.9l-0.5-14.7L556.7,481.6z" transform="matrix(1, 0, 0, 1, 0, -1.4210854715202004e-14)"/><path fill="#F3C286" d="M729.3,596.8c0,0,6.6-1,6.2-6.9c-0.4-6-7.1-9-16-17.1c-9-8.1-15.7-8.3-23.6-6.3&#10;&#9;&#9;&#9;&#9;c-7.8,2-18.8,6.7-20.6,14.3c-1.7,7.6,5.7,14.7,7.7,16.8c1.9,2.1,18.7,13.1,19.4,13.1C703.1,610.8,729.3,596.8,729.3,596.8z" transform="matrix(1, 0, 0, 1, 0, -1.4210854715202004e-14)"/><path d="M 715 554.4000244140625 L 667.7999877929688 600.2000122070312 L 667.4000244140625 602.2000122070312 L 687.7999877929688 620.7999877929688 L 734.7000122070312 577.0999755859375 L 735 575.0999755859375 Z" fill="#7B746E" transform="matrix(1, 0, 0, 1, 0, -1.4210854715202004e-14)"/><path d="M 714.7000122070312 556.5 L 667.4000244140625 602.2000122070312 L 687.5 622.9000244140625 L 734.7000122070312 577.0999755859375 Z" fill="#BFB9CB" transform="matrix(1, 0, 0, 1, 0, -1.4210854715202004e-14)"/><path d="M 714.2999877929688 557.9000244140625 L 671.4000244140625 599.5 L 690.4000244140625 619 L 733.2000122070312 577.5 Z" fill="#E8E3DE" transform="matrix(1, 0, 0, 1, 0, -1.4210854715202004e-14)"/><path fill="#E8E3DE" d="M680.2,610c-1.2-1.3-2.7-1.9-3.3-1.3c-0.6,0.6-0.1,2.1,1.2,3.4c1.2,1.3,2.7,1.9,3.3,1.3&#10;&#9;&#9;&#9;&#9;&#9;C681.9,612.8,681.4,611.3,680.2,610z" transform="matrix(1, 0, 0, 1, 0, -1.4210854715202004e-14)"/><path fill="#F3C286" d="M706.1,606.5c0,0,9.2,3.6,3.4,10.2c-5.8,6.5-9.4,5.2-9.4,5.2l-8.2-15.4c0,0,2.1-4.1,5.2-3.8&#10;&#9;&#9;&#9;&#9;&#9;c3.1,0.3,5.4,5.9,5.4,5.9L706.1,606.5z" transform="matrix(1, 0, 0, 1, 0, -1.4210854715202004e-14)"/><path fill="#D78E55" d="M697.1,602.7c3.1,0.3,5.4,5.9,5.4,5.9l3.6-2.1c0,0,1.1,0.4,2.2,1.3l-3.4,2.4c3.2,2.8,1.9,6,1.3,4.5&#10;&#9;&#9;&#9;&#9;&#9;c-0.6-1.5-2.8-3.6-2.8-3.6s-0.7-1.6-4.7-5.6c-3.9-4-6.9,1.1-6.9,1.1S694.1,602.4,697.1,602.7z" transform="matrix(1, 0, 0, 1, 0, -1.4210854715202004e-14)"/><path fill="#F3C286" d="M714.2,599.9c0,0,11.4,2.1,6.2,10.9c-5.2,8.8-9.7,8.2-9.7,8.2l-12.9-15.9c0,0,1.5-5.2,5.1-5.6&#10;&#9;&#9;&#9;&#9;&#9;c3.6-0.4,7.5,5.6,7.5,5.6L714.2,599.9z" transform="matrix(1, 0, 0, 1, 0, -1.4210854715202004e-14)"/><path fill="#D78E55" d="M703,597.6c3.6-0.4,7.5,5.6,7.5,5.6l3.7-3.2c0,0,1.3,0.3,2.9,0.9l-3.4,3.6c4.3,2.5,3.6,6.5,2.6,4.9&#10;&#9;&#9;&#9;&#9;&#9;c-1-1.6-4.1-3.5-4.1-3.5s-1.2-1.7-6.7-5.4c-5.4-3.7-7.7,2.8-7.7,2.8S699.4,597.9,703,597.6z" transform="matrix(1, 0, 0, 1, 0, -1.4210854715202004e-14)"/><path fill="#F3C286" d="M721.1,593.4c0,0,11.6,0.8,7.4,10.2c-4.2,9.4-8.7,9.2-8.7,9.2l-14.6-14.3c0,0,0.9-5.3,4.4-6.1&#10;&#9;&#9;&#9;&#9;&#9;c3.5-0.8,8.1,4.7,8.1,4.7L721.1,593.4z" transform="matrix(1, 0, 0, 1, 0, -1.4210854715202004e-14)"/><path fill="#D78E55" d="M709.7,592.4c3.5-0.8,8.1,4.7,8.1,4.7l3.3-3.6c0,0,1.4,0.1,3,0.6l-2.9,3.9c4.6,2,4.3,6,3.1,4.6&#10;&#9;&#9;&#9;&#9;&#9;c-1.2-1.4-4.4-3-4.4-3s-1.4-1.6-7.2-4.6c-5.8-3-7.4,3.7-7.4,3.7S706.1,593.1,709.7,592.4z" transform="matrix(1, 0, 0, 1, 0, -1.4210854715202004e-14)"/><path fill="#F3C286" d="M727.1,584.6c0,0,11.6,0.2,8,9.8c-3.6,9.6-8.2,9.7-8.2,9.7l-15.4-13.5c0,0,0.6-5.4,4.1-6.3&#10;&#9;&#9;&#9;&#9;&#9;c3.5-0.9,8.1,3.7,8.1,3.7L727.1,584.6z" transform="matrix(1, 0, 0, 1, 0, -1.4210854715202004e-14)"/><path fill="#D78E55" d="M715.6,584.2c3.5-0.9,8.1,3.7,8.1,3.7l3.5-3.3c0,0,1.3,0.1,3,0.5l-2.7,4.1c4.7,1.8,4.6,5.8,3.3,4.4&#10;&#9;&#9;&#9;&#9;&#9;c-1.3-1.4-4.6-2.8-4.6-2.8s-1.5-1.5-7.5-4.2c-6-2.7-7.1,4-7.1,4S712.1,585.2,715.6,584.2z" transform="matrix(1, 0, 0, 1, 0, -1.4210854715202004e-14)"/><path fill="#F3C286" d="M679.4,584.1c0,0,11.9,1.4,18.4-7.2c6.5-8.6,4-7,4-7s14.3,1.3,15.3-6c0,0,0.9-1.4-0.3-2&#10;&#9;&#9;&#9;&#9;c-1.2-0.6-13.7-0.6-14.8-0.7c-1-0.1-7.4,0.7-13.9,4.1C681.8,568.7,671.2,578.1,679.4,584.1z" transform="matrix(1, 0, 0, 1, 0, -1.4210854715202004e-14)"/><path d="M 327.899994 660.099976 H 416.899994 V 922.099976 H 327.899994 V 660.099976 Z" fill="#AA4325" transform="matrix(1, 0, 0, 1, 0, -1.4210854715202004e-14)"/><path d="M 306.299988 649 H 403.299988 V 671.200001 H 306.299988 V 649 Z" fill="#BC5B2C" transform="matrix(1, 0, 0, 1, 0, -1.4210854715202004e-14)"/><path d="M 398.3999938964844 649 L 1024.800048828125 649 L 1024.800048828125 671.2999877929688 L 1008.7999877929688 671.2999877929688 L 1008.7999877929688 922.0999755859375 L 416.8999938964844 922.0999755859375 L 416.8999938964844 671.2999877929688 L 398.3999938964844 671.2999877929688 Z" fill="#DB5734" transform="matrix(1, 0, 0, 1, 0, -1.4210854715202004e-14)"/><path d="M 398.399994 649 H 1024.899994 V 671.200001 H 398.399994 V 649 Z" fill="#DC6B36" transform="matrix(1, 0, 0, 1, 0, -1.4210854715202004e-14)"/><path d="M 766.4000244140625 508.70001220703125 L 761.2999877929688 508.70001220703125 L 719 639.2000122070312 L 728 644.5 L 741.0999755859375 608.7999877929688 Z" fill="#3E3F42" transform="matrix(1, 0, 0, 1, 0, -1.4210854715202004e-14)"/><path d="M 766.4000244140625 508.70001220703125 L 724.7000122070312 639.2000122070312 L 878.5 639.2000122070312 L 919 508.70001220703125 Z" fill="#515155" transform="matrix(1, 0, 0, 1, 0, -1.4210854715202004e-14)"/><path d="M 644.799988 639.200012 H 724.699989 V 649.900012 H 644.799988 V 639.200012 Z" fill="#515155" transform="matrix(1, 0, 0, 1, 0, -1.4210854715202004e-14)"/><path d="M 724.700012 639.200012 H 878.500015 V 649.900012 H 724.700012 V 639.200012 Z" fill="#67676C" transform="matrix(1, 0, 0, 1, 0, -1.4210854715202004e-14)"/><path fill="#B4B5B6" d="M453.2,365.6l-19.5-62.3c-0.7-2.2-3-3.4-5.2-2.7l-89.5,28c-2.2,0.7-3.4,3-2.7,5.2l19.5,62.3&#10;&#9;&#9;&#9;&#9;c0.7,2.2,3,3.4,5.2,2.7l89.5-28C452.7,370.1,453.9,367.8,453.2,365.6z" transform="matrix(1, 0, 0, 1, 0, -1.4210854715202004e-14)"/><path d="M 365.799988 305.600006 H 428.399986 V 392.400009 H 365.799988 V 305.600006 Z" transform="matrix(0.2986000180244446, 0.9544000625610352, -0.9544000625610352, 0.2986000180244446, 611.5701904296875, -134.2154998779297)" fill="#717375"/><path d="M 353.4 363.399994 A 2.4 2.4 0 0 1 351 365.799994 A 2.4 2.4 0 0 1 348.6 363.399994 A 2.4 2.4 0 0 1 351 360.999994 A 2.4 2.4 0 0 1 353.4 363.399994 Z" fill="#4A4B4C" transform="matrix(1, 0, 0, 1, 0, -1.4210854715202004e-14)"/><path fill="#4A4B4C" d="M442.2,339.4l-2.6-8.4c-0.1-0.2-0.3-0.3-0.4-0.2c-0.2,0.1-0.3,0.3-0.2,0.4l2.6,8.4&#10;&#9;&#9;&#9;&#9;c0.1,0.2,0.3,0.3,0.4,0.2S442.3,339.6,442.2,339.4z" transform="matrix(1, 0, 0, 1, 0, -1.4210854715202004e-14)"/><path d="M 367.29998779296875 369.8999938964844 L 370.79998779296875 377.1000061035156 L 378.1000061035156 373.6000061035156 L 377.1000061035156 371.70001220703125 L 373.1000061035156 373.70001220703125 L 384.8999938964844 351.3999938964844 L 390.3999938964844 360.1000061035156 L 405.1000061035156 337.5 L 411.5 345.5 L 425.79998779296875 322.20001220703125 L 424 321.1000061035156 L 411.29998779296875 341.8999938964844 L 404.8999938964844 333.8999938964844 L 390.3999938964844 356.20001220703125 L 384.79998779296875 347.20001220703125 L 371.1000061035156 372.8999938964844 L 369.20001220703125 369 Z" fill="#DFE365" transform="matrix(1, 0, 0, 1, 0, -1.4210854715202004e-14)"/><path fill="#F3C286" d="M378.5,316.4c0,0,1.9-9.7-6.7-8.4c-8.6,1.3-9.5,5.1-9.5,5.1l8.5,15.2c0,0,4.6,0.4,6-2.3&#10;&#9;&#9;&#9;&#9;c1.4-2.7-2-7.7-2-7.7L378.5,316.4z" transform="matrix(1, 0, 0, 1, 0, -1.4210854715202004e-14)"/><path fill="#D78E55" d="M376.8,326c1.4-2.7-2-7.7-2-7.7l3.7-1.9c0,0,0.2-1.1,0.2-2.6l-3.9,1.5c-0.6-4.2-4-4.9-3-3.6&#10;&#9;&#9;&#9;&#9;c0.9,1.3,1.5,4.3,1.5,4.3s1,1.5,2.2,7c1.2,5.5-4.6,5.2-4.6,5.2S375.4,328.7,376.8,326z" transform="matrix(1, 0, 0, 1, 0, -1.4210854715202004e-14)"/><path fill="#F3C286" d="M388.5,313.1c0,0,4.5-10.7-5.8-11.2c-10.2-0.5-12.1,3.7-12.1,3.7l6.3,19.5c0,0,5.2,1.6,7.4-1.3&#10;&#9;&#9;&#9;&#9;s-0.6-9.4-0.6-9.4L388.5,313.1z" transform="matrix(1, 0, 0, 1, 0, -1.4210854715202004e-14)"/><path fill="#D78E55" d="M384.3,323.9c2.2-2.8-0.6-9.4-0.6-9.4l4.7-1.4c0,0,0.5-1.3,0.8-2.9l-4.8,0.9c0.2-5-3.5-6.5-2.7-4.8&#10;&#9;&#9;&#9;&#9;c0.8,1.7,0.7,5.3,0.7,5.3s0.8,2,0.9,8.5c0.1,6.6-6.5,5-6.5,5S382,326.7,384.3,323.9z" transform="matrix(1, 0, 0, 1, 0, -1.4210854715202004e-14)"/><path fill="#F3C286" d="M397.7,310.9c0,0,5.6-10.2-4.5-11.8c-10.1-1.6-12.5,2.3-12.5,2.3l4,20.1c0,0,5,2.1,7.5-0.4&#10;&#9;&#9;&#9;&#9;c2.6-2.5,0.5-9.4,0.5-9.4L397.7,310.9z" transform="matrix(1, 0, 0, 1, 0, -1.4210854715202004e-14)"/><path fill="#D78E55" d="M392.3,321.1c2.6-2.5,0.5-9.4,0.5-9.4l4.9-0.8c0,0,0.7-1.2,1.1-2.8l-4.9,0.3c0.8-4.9-2.7-6.9-2.1-5.1&#10;&#9;&#9;&#9;&#9;c0.6,1.8,0.1,5.4,0.1,5.4s0.6,2-0.1,8.6c-0.6,6.5-7.1,4.2-7.1,4.2S389.7,323.6,392.3,321.1z" transform="matrix(1, 0, 0, 1, 0, -1.4210854715202004e-14)"/><path fill="#F3C286" d="M408.3,310.7c0,0,6.1-9.9-3.9-12c-10-2.2-12.6,1.6-12.6,1.6l2.9,20.3c0,0,4.9,2.4,7.5,0&#10;&#9;&#9;&#9;&#9;c2.7-2.4,1.3-8.8,1.3-8.8L408.3,310.7z" transform="matrix(1, 0, 0, 1, 0, -1.4210854715202004e-14)"/><path fill="#D78E55" d="M402.3,320.5c2.7-2.4,1.3-8.8,1.3-8.8l4.7-1.1c0,0,0.6-1.2,1.2-2.8l-4.9,0.1c1.1-4.9-2.3-7-1.9-5.2&#10;&#9;&#9;&#9;&#9;c0.5,1.8-0.2,5.4-0.2,5.4s0.5,2.1-0.5,8.6c-1,6.5-7.3,3.8-7.3,3.8S399.7,322.9,402.3,320.5z" transform="matrix(1, 0, 0, 1, 0, -1.4210854715202004e-14)"/><path fill="#A89692" d="M468.1,647.5L402,640c-2.4-0.3-4.1-2.4-3.8-4.8l12-104.6c0.3-2.4,2.4-4.1,4.8-3.8l66.1,7.6&#10;&#9;&#9;&#9;&#9;c2.4,0.3,4.1,2.4,3.8,4.8l-12,104.6C472.6,646.1,470.4,647.8,468.1,647.5z" transform="matrix(1, 0, 0, 1, 0, -1.4210854715202004e-14)"/><path d="M 408.5 533.599976 H 474.699997 V 638.299973 H 408.5 V 533.599976 Z" transform="matrix(0.9935000538825989, 0.11349999904632568, -0.11349999904632568, 0.9935000538825989, 69.38289642333982, -46.35400009155275)" fill="#FFFFFF"/><path d="M 415.700012 551.299988 H 474.800011 V 552.199988 H 415.700012 V 551.299988 Z" transform="matrix(0.9935000538825989, 0.11349999904632568, -0.11349999904632568, 0.9935000538825989, 65.52909851074216, -46.982700347900405)" fill="#97999C"/><path d="M 426.700012 540.799988 H 466.200012 V 541.699988 H 426.700012 V 540.799988 Z" transform="matrix(0.9935000538825989, 0.11349999904632568, -0.11349999904632568, 0.9935000538825989, 64.33850097656247, -47.187900543212905)" fill="#97999C"/><path d="M 422.600006 543.900024 H 469.500008 V 544.800024 H 422.600006 V 543.900024 Z" transform="matrix(0.9935000538825989, 0.11349999904632568, -0.11349999904632568, 0.9935000538825989, 64.6878967285156, -47.12770080566408)" fill="#97999C"/><path d="M 414.899994 558.400024 H 473.999992 V 559.300024 H 414.899994 V 558.400024 Z" transform="matrix(0.9935000538825989, 0.11349999904632568, -0.11349999904632568, 0.9935000538825989, 66.32279968261716, -46.84590148925783)" fill="#97999C"/><path d="M 414.100006 565.400024 H 473.200005 V 566.300024 H 414.100006 V 565.400024 Z" transform="matrix(0.9935000538825989, 0.11349999904632568, -0.11349999904632568, 0.9935000538825989, 67.11660003662107, -46.70909881591798)" fill="#97999C"/><path d="M 413.299988 572.5 H 472.399986 V 573.4 H 413.299988 V 572.5 Z" transform="matrix(0.9935000538825989, 0.11349999904632568, -0.11349999904632568, 0.9935000538825989, 67.91030120849607, -46.572299957275405)" fill="#97999C"/><path d="M 412.5 579.5 H 471.599998 V 580.4 H 412.5 V 579.5 Z" transform="matrix(0.9935000538825989, 0.11349999904632568, -0.11349999904632568, 0.9935000538825989, 68.70400238037107, -46.43550109863283)" fill="#97999C"/><path d="M 411.700012 586.5 H 470.800011 V 587.4 H 411.700012 V 586.5 Z" transform="matrix(0.9935000538825989, 0.11349999904632568, -0.11349999904632568, 0.9935000538825989, 69.49770355224607, -46.29869842529298)" fill="#97999C"/><path d="M 410.799988 593.599976 H 469.899986 V 594.499976 H 410.799988 V 593.599976 Z" transform="matrix(0.9935000538825989, 0.11349999904632568, -0.11349999904632568, 0.9935000538825989, 70.29149627685544, -46.161899566650405)" fill="#97999C"/><path d="M 410 600.599976 H 469.099998 V 601.499976 H 410 V 600.599976 Z" transform="matrix(0.9935000538825989, 0.11349999904632568, -0.11349999904632568, 0.9935000538825989, 71.08519744873044, -46.02510070800783)" fill="#97999C"/><path d="M 409.200012 607.599976 H 468.300011 V 608.499976 H 409.200012 V 607.599976 Z" transform="matrix(0.9935000538825989, 0.11349999904632568, -0.11349999904632568, 0.9935000538825989, 71.87889862060544, -45.88830184936525)" fill="#97999C"/><path d="M 437.700012 617.299988 H 467.300013 V 618.199988 H 437.700012 V 617.299988 Z" transform="matrix(0.9935000538825989, 0.11349999904632568, -0.11349999904632568, 0.9935000538825989, 73.06089782714841, -47.385799407959)" fill="#97999C"/><path d="M 437.200012 621.599976 H 466.800013 V 622.499976 H 437.200012 V 621.599976 Z" transform="matrix(0.9935000538825989, 0.11349999904632568, -0.11349999904632568, 0.9935000538825989, 73.55269622802732, -47.300998687744155)" fill="#97999C"/><path fill="#F04D4B" d="M464.6,531.4l-11.7-1.3c1-1,1.7-2.3,1.9-3.8c0.4-3.4-2.1-6.5-5.5-6.9c-3.4-0.4-6.5,2.1-6.9,5.5&#10;&#9;&#9;&#9;&#9;c-0.2,1.5,0.2,2.9,1,4.1l-11.7-1.3c-4.3-0.5-8.1,2.2-8.5,6l48.4,5.5C471.9,535.4,468.8,531.9,464.6,531.4z M448.9,522&#10;&#9;&#9;&#9;&#9;c2,0.2,3.4,2,3.2,4c-0.2,2-2,3.4-4,3.2c-2-0.2-3.4-2-3.2-4C445.2,523.2,447,521.8,448.9,522z" transform="matrix(1, 0, 0, 1, 0, -1.4210854715202004e-14)"/><path fill="#F3C286" d="M402.5,593.2c0,0-8.2-5.4-10.3,3c-2,8.5,1.1,10.7,1.1,10.7l17.3-2.1c0,0,2.1-4.1,0.2-6.4&#10;&#9;&#9;&#9;&#9;c-2-2.3-7.9-1-7.9-1L402.5,593.2z" transform="matrix(1, 0, 0, 1, 0, -1.4210854715202004e-14)"/><path fill="#D78E55" d="M410.8,598.4c-2-2.3-7.9-1-7.9-1l-0.4-4.2c0,0-1-0.6-2.3-1.1l0,4.2c-4.1-1-6,1.9-4.4,1.5&#10;&#9;&#9;&#9;&#9;c1.5-0.4,4.6,0.3,4.6,0.3s1.8-0.3,7.3,0.6c5.5,1,3.1,6.3,3.1,6.3S412.8,600.7,410.8,598.4z" transform="matrix(1, 0, 0, 1, 0, -1.4210854715202004e-14)"/><path fill="#F3C286" d="M403.3,582.7c0,0-8.3-8.2-12.5,1.1c-4.3,9.3-1.2,12.6-1.2,12.6L410,598c0,0,3.4-4.2,1.6-7.4&#10;&#9;&#9;&#9;&#9;c-1.8-3.1-8.9-3-8.9-3L403.3,582.7z" transform="matrix(1, 0, 0, 1, 0, -1.4210854715202004e-14)"/><path fill="#D78E55" d="M411.6,590.7c-1.8-3.1-8.9-3-8.9-3l0.5-4.9c0,0-1-0.9-2.4-1.8l-1,4.8c-4.5-2.1-7.3,0.8-5.5,0.7&#10;&#9;&#9;&#9;&#9;c1.9-0.1,5.2,1.3,5.2,1.3s2.1,0,8.2,2.4c6.1,2.4,2.1,7.9,2.1,7.9S413.4,593.8,411.6,590.7z" transform="matrix(1, 0, 0, 1, 0, -1.4210854715202004e-14)"/><path fill="#F3C286" d="M404.7,573.4c0,0-7.3-9-12.6-0.3c-5.3,8.8-2.6,12.4-2.6,12.4l20.1,3.8c0,0,3.9-3.8,2.5-7.1&#10;&#9;&#9;&#9;&#9;c-1.4-3.3-8.5-4-8.5-4L404.7,573.4z" transform="matrix(1, 0, 0, 1, 0, -1.4210854715202004e-14)"/><path fill="#D78E55" d="M412.1,582.2c-1.4-3.3-8.5-4-8.5-4l1.1-4.8c0,0-0.9-1.1-2.2-2.1l-1.5,4.6c-4.3-2.6-7.4-0.1-5.5,0.1&#10;&#9;&#9;&#9;&#9;c1.9,0.1,5,1.9,5,1.9s2.1,0.3,7.9,3.3c5.8,3,1.2,8.1,1.2,8.1S413.5,585.5,412.1,582.2z" transform="matrix(1, 0, 0, 1, 0, -1.4210854715202004e-14)"/><path fill="#F3C286" d="M408.5,563.4c0,0-6.8-9.4-12.6-0.9c-5.8,8.5-3.2,12.2-3.2,12.2l19.9,4.9c0,0,4.1-3.6,2.8-7&#10;&#9;&#9;&#9;&#9;c-1.2-3.4-7.6-4.5-7.6-4.5L408.5,563.4z" transform="matrix(1, 0, 0, 1, 0, -1.4210854715202004e-14)"/><path fill="#D78E55" d="M415.3,572.7c-1.2-3.4-7.6-4.5-7.6-4.5l0.7-4.7c0,0-0.8-1-2.1-2.1l-1.8,4.6c-4.1-2.8-7.4-0.5-5.5-0.2&#10;&#9;&#9;&#9;&#9;c1.9,0.2,4.9,2.2,4.9,2.2s2.1,0.4,7.7,3.7c5.7,3.3,0.8,8.2,0.8,8.2S416.6,576.1,415.3,572.7z" transform="matrix(1, 0, 0, 1, 0, -1.4210854715202004e-14)"/><path fill="#F3C286" d="M786.5,477.3c0,0,10.6-11.8,13.7-13.7c3-1.8,14.3-3.9,17.9-6.1c3.6-2.1,6.4,4.2,0.3,6.7&#10;&#9;&#9;&#9;&#9;c-6.1,2.4-6.1,2.4-6.1,2.4s18.5,0.9,24.3-0.9c5.8-1.8,9.4-7.3,9.4-7.3s5.8,3,1.2,8.8c0,0,2.4,3.3-1.8,7c0,0,2.4,4.9-3,8.5&#10;&#9;&#9;&#9;&#9;c0,0,0.6,2.7-4.6,7.6c-5.2,4.9-17,9.6-24,9.8c-7,0.2-21.6,2.1-25.5,1.2C772.5,497.7,786.5,477.3,786.5,477.3z" transform="matrix(1, 0, 0, 1, 0, -1.4210854715202004e-14)"/><path fill="#D78E55" d="M831.8,471.3c0,0-2.4,4.5-2.4,9.1c0,0-4.4,4.2-5,8.6c0,0-0.2-4.7,2.9-8.7&#10;&#9;&#9;&#9;&#9;C827.2,480.2,826.9,476.1,831.8,471.3z" transform="matrix(1, 0, 0, 1, 0, -1.4210854715202004e-14)"/><path fill="#D78E55" d="M840.2,476.8c0,0-10.6,2.9-11.4,3.7c-0.8,0.8-1.2,1.5-1.2,1.5l13-4.2L840.2,476.8z" transform="matrix(1, 0, 0, 1, 0, -1.4210854715202004e-14)"/><path fill="#F3C286" d="M849,462.3l-1.2-9.1c0,0-3.8,0-4.4,3.8c-0.6,3.8-0.4,9.3-0.4,9.3S849.4,469,849,462.3z" transform="matrix(1, 0, 0, 1, 0, -1.4210854715202004e-14)"/><path fill="#D78E55" d="M846.4,453.5c-1,1.4-2.2,4.7-2.8,12.3c0,0.3-0.1,0.5-0.1,0.8c-0.3-0.1-0.5-0.2-0.5-0.2s-0.2-5.5,0.4-9.3&#10;&#9;&#9;&#9;&#9;C843.7,454.8,845.2,453.9,846.4,453.5z" transform="matrix(1, 0, 0, 1, 0, -1.4210854715202004e-14)"/><path fill="#F3C286" d="M846.4,467.1l-5.4-7.5c0,0-3.4,1.8-2.1,5.5c1.3,3.7,4,8.4,4,8.4S849.9,472.8,846.4,467.1z" transform="matrix(1, 0, 0, 1, 0, -1.4210854715202004e-14)"/><path fill="#D78E55" d="M808.7,468c0,0,0.5,6.1-5.2,9.9c-5.6,3.8-10.6,3.9-10.6,3.9s8.8,1.8,13.5-3.3&#10;&#9;&#9;&#9;&#9;C811.1,473.3,808.7,468,808.7,468z" transform="matrix(1, 0, 0, 1, 0, -1.4210854715202004e-14)"/><path fill="#D78E55" d="M800.2,463.6c0.8-0.5,2.2-1,3.8-1.5c-0.9,0.5-1.9,1-3,1.6c-7.7,4.2-17.5,20.5-15,19.1&#10;&#9;&#9;&#9;&#9;c2.4-1.4,6.5-0.9,4.9-0.6c-1.7,0.3-5.9,2.4-5.9,2.4s-3.3,10,0.6,12.4c3.9,2.4,7.1,2,26.9,0.8c15.5-1,25.7-9.1,29.4-12.6&#10;&#9;&#9;&#9;&#9;c-0.6,1.2-1.7,2.9-3.9,5c-5.2,4.9-17,9.6-24,9.8c-7,0.2-21.6,2.1-25.5,1.2c-15.8-3.6-1.8-24.1-1.8-24.1S797.1,465.5,800.2,463.6z&#10;&#9;&#9;&#9;&#9;" transform="matrix(1, 0, 0, 1, 0, -1.4210854715202004e-14)"/><path fill="#D78E55" d="M843.8,473.4l-1.6-1.2c-0.9-1.7-2.4-4.6-3.3-7.1c-0.7-2,0-3.4,0.7-4.3c-0.2,1.1-0.1,2.8,0.7,4.9&#10;&#9;&#9;&#9;&#9;c1.4,3.7,3.1,6.6,3.7,7.6C844,473.4,843.9,473.4,843.8,473.4z" transform="matrix(1, 0, 0, 1, 0, -1.4210854715202004e-14)"/><path fill="#F3C286" d="M843.1,471.8l-7.3-5.5c0,0-2.7,2.7-0.4,5.9c2.3,3.1,6.3,6.8,6.3,6.8S848.1,476.2,843.1,471.8z" transform="matrix(1, 0, 0, 1, 0, -1.4210854715202004e-14)"/><path fill="#D78E55" d="M842.5,478.5l-1.9-0.7c-1.4-1.3-3.7-3.7-5.2-5.8c-1.2-1.7-1-3.2-0.6-4.3c0.2,1.1,0.7,2.7,2.1,4.5&#10;&#9;&#9;&#9;&#9;c2.5,3.1,4.8,5.4,5.7,6.2C842.6,478.5,842.6,478.5,842.5,478.5z" transform="matrix(1, 0, 0, 1, 0, -1.4210854715202004e-14)"/><path fill="#F3C286" d="M839,478.1l-7.3-5.5c0,0-2.7,2.7-0.4,5.9c2.3,3.1,6.3,6.8,6.3,6.8S844,482.6,839,478.1z" transform="matrix(1, 0, 0, 1, 0, -1.4210854715202004e-14)"/><path fill="#D78E55" d="M838.4,484.9l-1.9-0.7c-1.4-1.3-3.6-3.7-5.2-5.8c-1.2-1.7-1-3.2-0.6-4.3c0.2,1.1,0.7,2.7,2.1,4.5&#10;&#9;&#9;&#9;&#9;c2.5,3.1,4.8,5.4,5.7,6.2C838.5,484.8,838.5,484.9,838.4,484.9z" transform="matrix(1, 0, 0, 1, 0, -1.4210854715202004e-14)"/><path fill="#D78E55" d="M835.3,482.7c0,0-8.7,4.4-10.1,4.7c-1.3,0.3-1,2.2-1,2.2l12.3-5.3L835.3,482.7z" transform="matrix(1, 0, 0, 1, 0, -1.4210854715202004e-14)"/><g transform="matrix(1, 0, 0, 1, 0, -1.4210854715202004e-14)">
				<path fill="#8C8E90" d="M816.7,450.4c0,1.6,1.3,2.8,2.8,2.8H831c1.6,0,2.8-1.3,2.8-2.8H816.7z"/>
				<path fill="#D1E2E3" d="M824.2,394.6c-10.4,0.6-18.9,9.3-19.2,19.7c-0.1,5.3,1.8,10.2,5.1,13.9c3.2,3.7,4.9,8.5,4.9,13.4v0.5&#10;&#9;&#9;&#9;&#9;&#9;h20.7v-0.5c0-5.1,2-9.9,5.2-13.7c2.9-3.5,4.7-8,4.7-13C845.5,403.3,835.8,394,824.2,394.6z"/>
				<path fill="#A3A5A8" d="M835.3,440.9h-20.1c-0.8,0-1.4,0.6-1.4,1.3v7.9c0,0.7,0.6,1.3,1.4,1.3h20.1c0.8,0,1.4-0.6,1.4-1.3v-7.9&#10;&#9;&#9;&#9;&#9;&#9;C836.7,441.5,836.1,440.9,835.3,440.9z"/>
				<path fill="#8C8E90" d="M813.8,444.7l22.9-2.4v0c0-0.5-0.3-0.9-0.6-1.1l-22.3,3.3V444.7z"/>
				<path d="M 813.7999877929688 447.70001220703125 L 836.7000122070312 445.29998779296875 L 836.7000122070312 444.1000061035156 L 813.7999877929688 447.5 Z" fill="#8C8E90"/>
				<path fill="#8C8E90" d="M814,450.8l22.7-2.4v-1.2l-22.8,3.3C813.9,450.7,814,450.7,814,450.8z"/>
			</g><path d="M 825.7999877929688 325.20001220703125 L 822.9000244140625 384.70001220703125 L 827.5999755859375 384.70001220703125 Z" fill="#EFED82" transform="matrix(1, 0, 0, 1, 0, -1.4210854715202004e-14)"/><path d="M 825.7999877929688 325.20001220703125 L 822.9000244140625 384.70001220703125 L 827.5999755859375 384.70001220703125 Z" fill="#EFED82" transform="matrix(1, 0, 0, 1, 0, -1.4210854715202004e-14)"/><path d="M 825.7999877929688 325.20001220703125 L 822.9000244140625 384.70001220703125 L 827.5999755859375 384.70001220703125 Z" fill="#EFED82" transform="matrix(1, 0, 0, 1, 0, -1.4210854715202004e-14)"/><path d="M 782.0999755859375 336.5 L 809.4000244140625 389.5 L 813.5 387.1000061035156 Z" fill="#EFED82" transform="matrix(1, 0, 0, 1, 0, -1.4210854715202004e-14)"/><path d="M 750 368.20001220703125 L 800.0999755859375 400.3999938964844 L 802.4000244140625 396.29998779296875 Z" fill="#EFED82" transform="matrix(1, 0, 0, 1, 0, -1.4210854715202004e-14)"/><path d="M 738 411.6000061035156 L 797.5 414.5 L 797.5 409.79998779296875 Z" fill="#EFED82" transform="matrix(1, 0, 0, 1, 0, -1.4210854715202004e-14)"/><path d="M 749.4000244140625 455.29998779296875 L 802.2999877929688 428 L 800 423.8999938964844 Z" fill="#EFED82" transform="matrix(1, 0, 0, 1, 0, -1.4210854715202004e-14)"/><path d="M 868.2999877929688 336.5 L 841 389.5 L 836.9000244140625 387.1000061035156 Z" fill="#EFED82" transform="matrix(1, 0, 0, 1, 0, -1.4210854715202004e-14)"/><path d="M 900.4000244140625 368.20001220703125 L 850.2999877929688 400.3999938964844 L 847.9000244140625 396.29998779296875 Z" fill="#EFED82" transform="matrix(1, 0, 0, 1, 0, -1.4210854715202004e-14)"/><path d="M 912.4000244140625 411.6000061035156 L 852.9000244140625 414.5 L 852.9000244140625 409.79998779296875 Z" fill="#EFED82" transform="matrix(1, 0, 0, 1, 0, -1.4210854715202004e-14)"/><path d="M 901 455.29998779296875 L 848.0999755859375 428 L 850.4000244140625 423.8999938964844 Z" fill="#EFED82" transform="matrix(1, 0, 0, 1, 0, -1.4210854715202004e-14)"/><path fill="#F3C286" d="M417.5,494.5c0,0-1.5-11.9,7-18.5c8.5-6.6,7-4.1,7-4.1s-1.5-14.2,5.8-15.4c0,0,1.4-0.9,2,0.3&#10;&#9;&#9;&#9;&#9;c0.6,1.2,0.8,13.7,0.8,14.8c0.1,1-0.6,7.4-3.9,13.9C432.8,492,423.6,502.7,417.5,494.5z" transform="matrix(1, 0, 0, 1, 0, -1.4210854715202004e-14)"/><path fill="#F3C286" d="M404.2,444.8c0,0,0.9-6.6,6.8-6.2c6,0.3,9.1,7,17.3,15.8c8.2,8.9,8.5,15.6,6.5,23.5&#10;&#9;&#9;&#9;&#9;c-1.9,7.9-6.5,18.9-14.1,20.7c-7.6,1.8-14.7-5.6-16.9-7.5c-2.1-1.9-13.3-18.5-13.3-19.2C390.5,471.2,404.2,444.8,404.2,444.8z" transform="matrix(1, 0, 0, 1, 0, -1.4210854715202004e-14)"/><path d="M 461.700001 480.299988 A 36.700001 36.700001 0 0 1 425 516.999989 A 36.700001 36.700001 0 0 1 388.299999 480.299988 A 36.700001 36.700001 0 0 1 425 443.599987 A 36.700001 36.700001 0 0 1 461.700001 480.299988 Z" fill="#871C13" transform="matrix(1, 0, 0, 1, 0, -1.4210854715202004e-14)"/><path d="M 460.900002 480.299988 A 35.900002 35.900002 0 0 1 425 516.199989 A 35.900002 35.900002 0 0 1 389.099998 480.299988 A 35.900002 35.900002 0 0 1 425 444.399986 A 35.900002 35.900002 0 0 1 460.900002 480.299988 Z" fill="#EE2D69" transform="matrix(1, 0, 0, 1, 0, -1.4210854715202004e-14)"/><path d="M 452 480.299988 A 27 27 0 0 1 425 507.299988 A 27 27 0 0 1 398 480.299988 A 27 27 0 0 1 425 453.299988 A 27 27 0 0 1 452 480.299988 Z" fill="#FFFFFF" transform="matrix(1, 0, 0, 1, 0, -1.4210854715202004e-14)"/><path d="M 444.4 480.299988 A 19.4 19.4 0 0 1 425 499.699987 A 19.4 19.4 0 0 1 405.6 480.299988 A 19.4 19.4 0 0 1 425 460.899988 A 19.4 19.4 0 0 1 444.4 480.299988 Z" fill="#EE2D69" transform="matrix(1, 0, 0, 1, 0, -1.4210854715202004e-14)"/><path d="M 436.5 480.299988 A 11.5 11.5 0 0 1 425 491.799988 A 11.5 11.5 0 0 1 413.5 480.299988 A 11.5 11.5 0 0 1 425 468.799988 A 11.5 11.5 0 0 1 436.5 480.299988 Z" fill="#FFFFFF" transform="matrix(1, 0, 0, 1, 0, -1.4210854715202004e-14)"/><path d="M 430 480.299988 A 5 5 0 0 1 425 485.299988 A 5 5 0 0 1 420 480.299988 A 5 5 0 0 1 425 475.299988 A 5 5 0 0 1 430 480.299988 Z" fill="#EE2D69" transform="matrix(1, 0, 0, 1, 0, -1.4210854715202004e-14)"/><path d="M 427.899994 464.200012 H 483.299995 V 465.400012 H 427.899994 V 464.200012 Z" transform="matrix(0.8953999876976013, -0.44529998302459717, 0.44529998302459717, 0.8953999876976013, -159.3112030029297, 251.51390075683594)" fill="#CA7529"/><path d="M 484 443.6000061035156 L 474 451.79998779296875 L 472 456.6000061035156 L 477 457.8999938964844 L 489.6000061035156 455 L 482.79998779296875 451.29998779296875 Z" fill="#D6EEEF" transform="matrix(1, 0, 0, 1, 0, -1.4210854715202004e-14)"/><path d="M 431 471.6000061035156 L 425 480 L 435.29998779296875 480.29998779296875 L 431.5 476.79998779296875 Z" fill="#640900" transform="matrix(1, 0, 0, 1, 0, -1.4210854715202004e-14)"/><path fill="#F3C286" d="M394.8,468c0,0-3.7-9.1-10.2-3.3c-6.4,5.9-5.1,9.5-5.1,9.5l15.5,8c0,0,4.1-2.2,3.7-5.2&#10;&#9;&#9;&#9;&#9;&#9;c-0.3-3.1-5.9-5.3-5.9-5.3L394.8,468z" transform="matrix(1, 0, 0, 1, 0, -1.4210854715202004e-14)"/><path fill="#D78E55" d="M398.7,477c-0.3-3.1-5.9-5.3-5.9-5.3l2-3.7c0,0-0.4-1.1-1.3-2.2l-2.4,3.4c-2.8-3.1-6-1.8-4.5-1.3&#10;&#9;&#9;&#9;&#9;&#9;c1.5,0.6,3.6,2.8,3.6,2.8s1.7,0.7,5.7,4.6c4,3.9-1,6.9-1,6.9S399,480.1,398.7,477z" transform="matrix(1, 0, 0, 1, 0, -1.4210854715202004e-14)"/><path fill="#F3C286" d="M401.3,459.9c0,0-2.2-11.4-11-6.1c-8.8,5.3-8.1,9.8-8.1,9.8l16,12.8c0,0,5.2-1.6,5.5-5.2&#10;&#9;&#9;&#9;&#9;&#9;c0.3-3.6-5.6-7.5-5.6-7.5L401.3,459.9z" transform="matrix(1, 0, 0, 1, 0, -1.4210854715202004e-14)"/><path fill="#D78E55" d="M403.7,471.1c0.3-3.6-5.6-7.5-5.6-7.5l3.2-3.8c0,0-0.3-1.3-1-2.9l-3.5,3.4c-2.6-4.3-6.5-3.5-4.9-2.5&#10;&#9;&#9;&#9;&#9;&#9;c1.6,1,3.6,4,3.6,4s1.7,1.2,5.5,6.6c3.7,5.4-2.7,7.8-2.7,7.8S403.4,474.7,403.7,471.1z" transform="matrix(1, 0, 0, 1, 0, -1.4210854715202004e-14)"/><path fill="#F3C286" d="M407.7,452.9c0,0-0.9-11.6-10.2-7.3c-9.3,4.3-9.1,8.8-9.1,8.8l14.5,14.5c0,0,5.3-1,6.1-4.5&#10;&#9;&#9;&#9;&#9;&#9;c0.7-3.5-4.8-8.1-4.8-8.1L407.7,452.9z" transform="matrix(1, 0, 0, 1, 0, -1.4210854715202004e-14)"/><path fill="#D78E55" d="M408.9,464.3c0.7-3.5-4.8-8.1-4.8-8.1l3.6-3.4c0,0-0.1-1.4-0.6-3l-3.9,3c-2.1-4.5-6.1-4.2-4.6-3&#10;&#9;&#9;&#9;&#9;&#9;c1.5,1.2,3.1,4.4,3.1,4.4s1.6,1.4,4.7,7.2c3.1,5.8-3.6,7.4-3.6,7.4S408.1,467.9,408.9,464.3z" transform="matrix(1, 0, 0, 1, 0, -1.4210854715202004e-14)"/><path fill="#F3C286" d="M416.4,446.8c0,0-0.4-11.6-9.9-7.8c-9.5,3.7-9.6,8.3-9.6,8.3l13.7,15.2c0,0,5.4-0.7,6.3-4.2&#10;&#9;&#9;&#9;&#9;&#9;c0.9-3.5-3.8-8-3.8-8L416.4,446.8z" transform="matrix(1, 0, 0, 1, 0, -1.4210854715202004e-14)"/><path fill="#D78E55" d="M416.9,458.3c0.9-3.5-3.8-8-3.8-8l3.3-3.5c0,0-0.1-1.3-0.5-3l-4,2.8c-1.8-4.6-5.8-4.5-4.4-3.3&#10;&#9;&#9;&#9;&#9;&#9;c1.4,1.2,2.8,4.6,2.8,4.6s1.5,1.5,4.3,7.4c2.8,5.9-4,7.2-4,7.2S416,461.8,416.9,458.3z" transform="matrix(1, 0, 0, 1, 0, -1.4210854715202004e-14)"/><path d="M 578.5 141.5 A 57 57 0 0 1 521.5 198.5 A 57 57 0 0 1 464.5 141.5 A 57 57 0 0 1 521.5 84.5 A 57 57 0 0 1 578.5 141.5 Z" fill="#DB5734" transform="matrix(1, 0, 0, 1, 0, -1.4210854715202004e-14)"/><g transform="matrix(1, 0, 0, 1, 0, -1.4210854715202004e-14)">
				<g>
					<path d="M 568.099998 141.5 A 46.599998 46.599998 0 0 1 521.5 188.099998 A 46.599998 46.599998 0 0 1 474.900002 141.5 A 46.599998 46.599998 0 0 1 521.5 94.900002 A 46.599998 46.599998 0 0 1 568.099998 141.5 Z" fill="#FFFEFE"/>
				</g>
			</g><path d="M 525.9 141.5 A 4.4 4.4 0 0 1 521.5 145.9 A 4.4 4.4 0 0 1 517.1 141.5 A 4.4 4.4 0 0 1 521.5 137.1 A 4.4 4.4 0 0 1 525.9 141.5 Z" fill="#6C8885" transform="matrix(1, 0, 0, 1, 0, -1.4210854715202004e-14)"/><path d="M 520.5 114.699997 H 522.5 V 141.499996 H 520.5 V 114.699997 Z" fill="#6C8885" transform="matrix(1, 0, 0, 1, 0, -1.4210854715202004e-14)"/><path d="M 533.299988 136.600006 H 535.299988 V 175.300007 H 533.299988 V 136.600006 Z" transform="matrix(-0.7501000165939331, 0.661300003528595, -0.661300003528595, -0.7501000165939331, 1038.2766113281248, -80.2947998046875)" fill="#6C8885"/><path d="M 521 98 H 522 V 106.7 H 521 V 98 Z" fill="#6C8885" transform="matrix(1, 0, 0, 1, 0, -1.4210854715202004e-14)"/><path d="M 556.200012 141 H 564.900012 V 142 H 556.200012 V 141 Z" fill="#6C8885" transform="matrix(1, 0, 0, 1, 0, -1.4210854715202004e-14)"/><path d="M 521 176.199997 H 522 V 184.899997 H 521 V 176.199997 Z" fill="#6C8885" transform="matrix(1, 0, 0, 1, 0, -1.4210854715202004e-14)"/><path d="M 478 141 H 486.7 V 142 H 478 V 141 Z" fill="#6C8885" transform="matrix(1, 0, 0, 1, 0, -1.4210854715202004e-14)"/><g transform="matrix(1, 0, 0, 1, 0, -1.4210854715202004e-14)">
			<path d="M 1198.300049 539.400024 H 1203.700049 V 789.300018 H 1198.300049 V 539.400024 Z" fill="#C24D2D"/>
			<path fill="#DE7C37" d="M1201,506.6c0,0-21.5,23.8,0,39.6C1222.5,530.4,1201,506.6,1201,506.6z"/>
			<path fill="#DE7C37" d="M1232.6,544.4c0,0-32,0.8-28.7,27.2C1230.2,576.3,1232.6,544.4,1232.6,544.4z"/>
			<path fill="#DE7C37" d="M1232.6,581.5c0,0-32,0.8-28.7,27.2C1230.2,613.4,1232.6,581.5,1232.6,581.5z"/>
			<path fill="#DE7C37" d="M1232.6,618.5c0,0-32,0.8-28.7,27.2C1230.2,650.5,1232.6,618.5,1232.6,618.5z"/>
			<path fill="#DE7C37" d="M1232.6,655.6c0,0-32,0.8-28.7,27.2C1230.2,687.6,1232.6,655.6,1232.6,655.6z"/>
			<path fill="#DE7C37" d="M1232.6,692.7c0,0-32,0.8-28.7,27.2C1230.2,724.6,1232.6,692.7,1232.6,692.7z"/>
			<path fill="#DE7C37" d="M1232.6,729.8c0,0-32,0.8-28.7,27.2C1230.2,761.7,1232.6,729.8,1232.6,729.8z"/>
			<path fill="#DE7C37" d="M1169.2,544.4c0,0,32,0.8,28.7,27.2C1171.7,576.3,1169.2,544.4,1169.2,544.4z"/>
			<path fill="#DE7C37" d="M1169.2,581.5c0,0,32,0.8,28.7,27.2C1171.7,613.4,1169.2,581.5,1169.2,581.5z"/>
			<path fill="#DE7C37" d="M1169.2,618.5c0,0,32,0.8,28.7,27.2C1171.7,650.5,1169.2,618.5,1169.2,618.5z"/>
			<path fill="#DE7C37" d="M1169.2,655.6c0,0,32,0.8,28.7,27.2C1171.7,687.6,1169.2,655.6,1169.2,655.6z"/>
			<path fill="#DE7C37" d="M1169.2,692.7c0,0,32,0.8,28.7,27.2C1171.7,724.6,1169.2,692.7,1169.2,692.7z"/>
			<path fill="#DE7C37" d="M1169.2,729.8c0,0,32,0.8,28.7,27.2C1171.7,761.7,1169.2,729.8,1169.2,729.8z"/>
		</g><path d="M 1201 785.0999755859375 L 1162.699951171875 785.0999755859375 L 1168.300048828125 847.4000244140625 L 1201 847.4000244140625 L 1233.699951171875 847.4000244140625 L 1239.300048828125 785.0999755859375 Z" fill="#DB5734" transform="matrix(1, 0, 0, 1, 0, -1.4210854715202004e-14)"/><path d="M 1155.900024 772 H 1246.000023 V 785.2 H 1155.900024 V 772 Z" fill="#DB5734" transform="matrix(1, 0, 0, 1, 0, -1.4210854715202004e-14)"/><path d="M 1162.699951171875 785.0999755859375 L 1163.0999755859375 789.2999877929688 L 1238.9000244140625 789.2999877929688 L 1239.300048828125 785.0999755859375 L 1201 785.0999755859375 Z" fill="#DE7C37" transform="matrix(1, 0, 0, 1, 0, -1.4210854715202004e-14)"/>
</svg>