<?xml version="1.0" encoding="utf-8"?>
<svg id="master-artboard" viewBox="0 0 1400 980" version="1.1" xmlns="http://www.w3.org/2000/svg" x="0px" y="0px" width="1400px" height="980px" enable-background="new 0 0 1400 980">
<path fill="#838196" d="M372.5,767.4c81.1-37.4,189.2-60.2,307.9-60.2c105.2,0,202.1,17.9,279.3,48.1&#10;&#9;c7.9-88.9-10.7-190.6-58.6-288.4C795.4,250.8,587.5,135.3,436.7,209c-150.9,73.7-187.5,308.7-81.9,524.8&#10;&#9;C360.4,745.3,366.3,756.5,372.5,767.4z"/>
<path fill="#585673" d="M354,279.2c-77.4,106-81.6,286.1,0.8,454.6c5.6,11.5,11.5,22.7,17.7,33.6c52.6-24.2,116.5-42.3,187.3-52.1&#10;&#9;C326.4,571.3,354,279.5,354,279.2z"/>
<path d="M 286.700012 328.100006 H 427.100006 V 521 H 286.700012 V 328.100006 Z" fill="#454361"/>
<g>
	<path d="M 294.5 315.899994 H 434.300003 V 515 H 294.5 V 315.899994 Z" fill="#D18368"/>
	<g>
		<path d="M 312.200012 336.100006 H 416.500015 V 494.800003 H 312.200012 V 336.100006 Z" fill="#BABABA"/>
		<path d="M 316 339 H 412.800003 V 491.800003 H 316 V 339 Z" fill="#FFFFFF"/>
	</g>
	<path d="M 294.5 315.8999938964844 L 312.20001220703125 336.1000061035156 L 416.5 336.1000061035156 L 434.20001220703125 315.8999938964844 Z" fill="#BD775E"/>
	<path d="M 294.5 514.7999877929688 L 312.20001220703125 494.6000061035156 L 416.5 494.6000061035156 L 434.20001220703125 514.7999877929688 Z" fill="#BD775E"/>
</g>
<path fill="#694839" d="M331.5,759.6C339.6,818.2,494.7,865,684.8,865c190.1,0,345.2-46.8,353.4-105.4c0.2,1.6,0.4,3.2,0.4,4.8&#10;&#9;c0,60.9-158.3,110.3-353.7,110.3c-195.3,0-353.7-49.4-353.7-110.3C331.1,762.8,331.3,761.2,331.5,759.6L331.5,759.6z"/>
<path fill="#C98A6E" d="M1038.5,752.6c0,1.6-0.1,3.2-0.4,4.9v0c-8.2,58.6-163.2,105.4-353.4,105.4c-190.1,0-345.2-46.8-353.3-105.4&#10;&#9;c-0.2-1.6-0.4-3.2-0.4-4.9c0-60.9,158.4-110.3,353.7-110.3C880.2,642.4,1038.5,691.7,1038.5,752.6z"/>
<path d="M 996.799999 739.799988 A 57.299999 19.799999 0 0 1 939.5 759.599987 A 57.299999 19.799999 0 0 1 882.200001 739.799988 A 57.299999 19.799999 0 0 1 939.5 719.999989 A 57.299999 19.799999 0 0 1 996.799999 739.799988 Z" transform="matrix(0.981 -0.1939 0.1939 0.981 -125.587 196.1698)" fill="#A6725B"/>
<path fill="#A6725B" d="M877.9,831.4c-190.1,0-345.2-46.8-353.3-105.4c-0.2-1.6-0.4-3.2-0.4-4.9c0-15.8,10.7-30.9,30.1-44.5&#10;&#9;c21.9,8,80,29.5,86.4,35.2c7.9,7,29.6,27.6,52.3,18.8l19.7,4L701.3,717l-116.4-57.6c9.9-4.6,20.9-8.9,32.8-12.9&#10;&#9;c-17.3,1-34.1,2.5-50.3,4.3l0,0l0,0c-137.6,15.1-236.2,56-236.2,104c0,1.6,0.1,3.2,0.4,4.9C339.6,818.2,494.7,865,684.8,865&#10;&#9;c103,0,195.7-13.7,260.3-35.6C923.4,830.7,900.9,831.4,877.9,831.4z"/>
<path d="M 740.5999755859375 772.7000122070312 L 636.2999877929688 704.2999877929688 L 616.2000122070312 762.2000122070312 L 713.7999877929688 762.2000122070312 L 712.5999755859375 772.7000122070312 Z" fill="#A6725B"/>
<path d="M 750.5999755859375 701.2000122070312 L 791.4000244140625 699.2999877929688 L 828.5999755859375 777.4000244140625 L 718.7999877929688 775.7000122070312 L 723.9000244140625 704.7000122070312 Z" fill="#E0E0E0"/>
<path d="M 797 770.7000122070312 L 769.7999877929688 700.2999877929688 L 750.5999755859375 701.2000122070312 L 723.9000244140625 704.7000122070312 L 719.2000122070312 770.7000122070312 Z" fill="#CCCCCC"/>
<path d="M 648.0999755859375 681.2000122070312 L 621.9000244140625 766.5999755859375 L 788.2999877929688 766.5999755859375 L 756.2999877929688 683.9000244140625 Z" fill="#FFFFFF"/>
<path fill="#E0E0E0" d="M639.1,710.6c0.7,0.4,1.3,0.8,1.7,1.2c7.9,7,29.6,27.6,52.3,18.8l19.7,4L701.3,717l-55.7-27.6L639.1,710.6z"/>
<g>
	<path fill="#231F5C" d="M684.8,866.8c-94.6,0-183.7-11.5-250.6-32.4c-67.6-21.1-104.8-49.4-104.8-79.7c0-30.3,37.2-58.6,104.8-79.7&#10;&#9;&#9;c67-20.9,156-32.4,250.6-32.4c94.6,0,183.7,11.5,250.6,32.4c67.6,21.1,104.8,49.4,104.8,79.7c0,30.3-37.2,58.6-104.8,79.7&#10;&#9;&#9;C868.5,855.3,779.5,866.8,684.8,866.8z M684.8,646.2c-194.1,0-351.9,48.7-351.9,108.5c0,59.8,157.9,108.5,351.9,108.5&#10;&#9;&#9;c194.1,0,351.9-48.7,351.9-108.5C1036.8,694.9,878.9,646.2,684.8,646.2z"/>
</g>
<g>
	<path fill="#231F5C" d="M684.8,876.5c-94.6,0-183.7-11.5-250.6-32.4c-67.6-21.1-104.8-49.4-104.8-79.7c0-1.7,0.1-3.4,0.4-5.1&#10;&#9;&#9;c0.1-1,1-1.6,2-1.5c1,0.1,1.6,1,1.5,2c-0.2,1.5-0.3,3.1-0.3,4.6c0,59.8,157.9,108.5,351.9,108.5c194.1,0,351.9-48.7,351.9-108.5&#10;&#9;&#9;c0-1.5-0.1-3.1-0.3-4.6c-0.1-1,0.5-1.9,1.5-2c1-0.1,1.9,0.5,2,1.5c0.2,1.7,0.4,3.4,0.4,5.1c0,30.3-37.2,58.6-104.8,79.7&#10;&#9;&#9;C868.5,865,779.5,876.5,684.8,876.5z"/>
</g>
<path d="M 907.5 179 L 877.0999755859375 172.60000610351562 L 882.7000122070312 183.60000610351562 L 864.5 199.89999389648438 L 886 208.10000610351562 L 882.4000244140625 228.1999969482422 L 896.5 222.5 L 901.7999877929688 237.89999389648438 L 918.2999877929688 201.60000610351562 Z" fill="#FFC03E"/>
<path fill="#C29074" d="M981.2,419.3c0,0,9.2,13.8,4,28.8c-2.5-5-6.1-10.1-9.6-14.4l4.1-14.8L981.2,419.3z"/>
<path d="M 960.5 223.10000610351562 L 963.0999755859375 232.10000610351562 L 935.5 237.89999389648438 L 917.4000244140625 190.60000610351562 L 949.0999755859375 183.60000610351562 Z" fill="#D6DAE3"/>
<path fill="#515357" d="M977.5,238.6l-2.5-8c-5.5-2.1-10.3-4.8-11.2-8.5c-0.2-0.9-0.2-1.9,0.2-3c1.3-3.7,3.6-4.7,5.9-4.6l-15.1-48&#10;&#9;l-42.8,8.8l-4.6,6l22.6,63.5c2-1.2,4.2-1.9,6.3-2.2c8.1-1.4,16.3,1.8,16.3,1.8s-4.7,9.1-15.4,9.4h5.7c0,0,0.7,1.7,1,4.1l0.2,0&#10;&#9;c0,0,3.5-0.8,9.8-1.9c3.2-0.6,7.2-1.3,11.9-2.1C979.6,251.4,977.5,238.6,977.5,238.6z M935.5,237.9l-18.2-47.2l31.7-7l11.5,39.5&#10;&#9;l2.6,9.1L935.5,237.9z"/>
<path d="M 960.399988 245.699997 A 7.1 5.8 0 0 1 953.299988 251.499997 A 7.1 5.8 0 0 1 946.199988 245.699997 A 7.1 5.8 0 0 1 953.299988 239.899997 A 7.1 5.8 0 0 1 960.399988 245.699997 Z" transform="matrix(0.9815 -0.1914 0.1914 0.9815 -29.4047 186.9692)" fill="#3E3F42"/>
<g>
	<path fill="#3E3F42" d="M954.8,166.5l-42.8,8.8l-4.5,5.9c1.3,0.5,2.1,0.9,2.1,0.9l41.4-6.7c0,0,8.3,20.7,14.9,40.6&#10;&#9;&#9;c1.2-1.2,2.6-1.5,4-1.5L954.8,166.5z"/>
	<path fill="#3E3F42" d="M973.4,250.4c5.2-4.6,4.1-11.7,4.1-11.7l-2.5-8c-1.9-0.7-3.7-1.5-5.3-2.4c2.7,9.4,4.4,17.4,3.8,21.2&#10;&#9;&#9;C973.4,249.8,973.4,250.1,973.4,250.4z"/>
</g>
<path fill="#3675E5" d="M845.2,571.1c0,0-10.3,2.7-14.6-4.5c-0.8-1.4-1.5-2.9-2.1-4.6h0c-2.4-7-2.6-16.4,0.1-27&#10;&#9;c1.8-6.9,7-16.1,13.8-21.1c4.1-3,8.8-4.5,13.8-3.1l0.2,0.8c5.2-1.6,11.2-0.7,12.9,2.9c1.3,2.5,0,9.3,0,9.3v0c-5-1.3-8.4-2.2-9-2.3&#10;&#9;c-0.1,0-0.1,0-0.1,0c-0.2,0.2-0.4,0.4-0.5,0.7c0,0.1-0.1,0.1-0.1,0.2c-0.1,0.1-0.1,0.2-0.2,0.3c0,0,0,0,0,0&#10;&#9;c-5.1,7.1-12.8,21.9-8.9,41.1c0,0,4,1,10,2.5l-0.1,0.4c0,0-1.6,8.5-8.6,7.5C848.9,573.8,846.8,572.7,845.2,571.1z"/>
<path fill="#2C60BD" d="M827.6,540.4c-1.4,8.4-1,15.9,1,21.7h0c0.5,1.7,1.2,3.2,2.1,4.6c4.3,7.2,14.6,4.5,14.6,4.5&#10;&#9;c1.6,1.5,3.6,2.7,6.7,3.1c7,1,8.6-7.5,8.6-7.5l0.1-0.4c-6-1.5-10-2.5-10-2.5c-1-5.1-1.2-10-0.9-14.4&#10;&#9;C836.9,548.9,829.3,542.1,827.6,540.4z"/>
<path fill="#EFC5B5" d="M923,534.5c3.5-6,8-11.5,10.2-15.7c4.6-8.9,13.7-27.7,17.1-34.8c0.9-1.8,1.4-2.8,1.4-2.8l0.2-0.2&#10;&#9;c3.8,3.5,9.4,4.4,19.2,1.7c4.6-1.2,8.2-3.2,10.9-5.7l0.4,0.4c-4.7,24.7-19.9,64.9-29.5,83c-9.6,18.2-27.4,21.1-39.7,18.4&#10;&#9;c-8.8-1.9-37.2-8.8-52.5-12.6c-6-1.5-10-2.5-10-2.5c-3.9-19.2,3.8-34,8.9-41.1c0,0,0,0,0,0c0,0,0.1-0.1,0.2-0.3c0,0,0.1-0.1,0.1-0.2&#10;&#9;c0.2-0.2,0.4-0.4,0.6-0.7c0.6,0.2,3.9,1.1,9,2.3C882.4,527.2,906.4,532.9,923,534.5z"/>
<path fill="#EFC5B5" d="M985,447.5c1.3,2.7,2.3,5.3,2.8,7.7c1.6,8.9-0.2,16.6-5.8,21.8c-2.7,2.5-6.3,4.5-10.9,5.7&#10;&#9;c-9.8,2.7-15.3,1.8-19.2-1.7c-1.7-1.5-3-3.5-4.3-5.9c-4.1-7.9-8.2-24.6,0-30.5c0,0-11.4-21.4,18.8-22c0,0,4.3,4.4,9.1,10.4&#10;&#9;C978.9,437.4,982.5,442.5,985,447.5z"/>
<path fill="#E0AE9B" d="M982.4,443.1l-2.8-4.5c-1.4-1.9-2.8-3.8-4.1-5.5c-4.8-6-9.1-10.4-9.1-10.4c-30.2,0.6-18.8,22-18.8,22&#10;&#9;c-8.2,5.9-4.1,22.6,0,30.5c0.7,1.3,1.4,2.4,2.1,3.5c18.6,0.1,14.4-15.4,14.4-15.4C977.8,462.3,982.4,443.1,982.4,443.1z"/>
<path fill="#BCBEC0" d="M941.6,381.9c2.4,1.3,3.7,2.2,3.7,2.2c-0.8,0.6-1.6,1.2-2.5,1.8l-0.2,0.5c-27.3-12.3-56.1-4.7-67.6-0.7&#10;&#9;l0.9-7.7c6.6-2.6,13-4.1,19-4.9c19-2.4,34.4,2.9,43,6.9C939.4,380.8,940.6,381.4,941.6,381.9z"/>
<path fill="#BCBEC0" d="M985.1,378.2c-6.9-3.6-20.9-7.3-39.8,6c0,0-1.3-0.9-3.7-2.2c0,0,15.6-15.3,38.4-11.1c2.1,0.4,4.3,1,6.6,1.7&#10;&#9;L985.1,378.2z"/>
<path fill="#BCBEC0" d="M938.2,379.7c0,0,17-19.1,42.8-13.2l-1,4.3c-22.8-4.3-38.4,11.1-38.4,11.1c-1-0.5-2.2-1.2-3.6-1.8&#10;&#9;L938.2,379.7z"/>
<path fill="#D3D2D2" d="M947.6,475.2c1.2,2.4,2.6,4.4,4.3,5.9l-0.2,0.2c0,0-0.5,1.1-1.4,2.8c-13.9-3.6-26.8,2.7-27.5,3l24.7-98.1&#10;&#9;c-1.6-0.9-3.3-1.7-5-2.5l0.2-0.5c0.8-0.6,1.7-1.2,2.5-1.8c18.9-13.3,32.9-9.5,39.8-6c3,1.6,4.7,3.1,4.7,3.1l-10.3,37l-4.1,14.8&#10;&#9;c-4.8-6-9.1-10.4-9.1-10.4c-30.2,0.6-18.8,22-18.8,22C939.4,450.5,943.5,467.3,947.6,475.2z"/>
<path fill="#8D8D8C" d="M922.8,487.1l-0.8,3.1c0,0-33.2-12.7-61.5,11.7l8.2-97.9l1.2-15v-1.2c0,0,1.8-0.8,5.1-2&#10;&#9;c11.4-4,40.3-11.6,67.6,0.7c1.7,0.8,3.3,1.6,5,2.5L922.8,487.1z"/>
<path fill="#787877" d="M911.5,487.6C911.5,487.6,911.5,487.6,911.5,487.6c-35.8-32.9-27.2-104-27.2-104s-0.2-0.2-0.5-0.4&#10;&#9;c-3.5,0.9-6.4,1.8-8.7,2.6c-3.3,1.1-5.1,2-5.1,2v1.2l-1.2,15l-8.2,97.9C879,486,899.4,485.8,911.5,487.6z"/>
<path fill="#EFC5B5" d="M992,224.4c0,0-12.9-5.3-15.8-7.4c-1.5-1.1-3.9-2.4-6.2-2.5c-2.3-0.1-4.6,1-5.9,4.6c-0.4,1.1-0.4,2.1-0.2,3&#10;&#9;c0.8,3.7,5.7,6.4,11.2,8.5l2.5,8c0,0,2.1,12.7-11.7,15.1c-4.7,0.8-8.7,1.5-11.9,2.1c-6.3,1.2-9.8,1.9-9.8,1.9l-0.2,0&#10;&#9;c-0.3-2.4-1-4.1-1-4.1h-5.7c10.7-0.3,15.4-9.4,15.4-9.4s-8.2-3.2-16.3-1.8c-2.1,0.4-4.3,1.1-6.3,2.2v0c-2.1,1.2-4,2.9-5.5,5.3&#10;&#9;c-5.8,8.8-0.8,16.1,3.3,20l-1.6,1.6c-37.9,70.6-101.8,114.1-101.8,114.1v0c10.3,5.5,22.9,17.3,25,36.9l0.4,0l19.1-18.7l1.2-15v-1.2&#10;&#9;c0,0,1.8-0.8,5.1-2l0.9-7.7c6.6-2.6,13-4.1,19-4.9c16.3-11.2,56.6-84,58.7-87.9c5.6,1,11.2-1,14.5-3.3c6.1-4.1,14.7-19.9,18.2-26&#10;&#9;c3.5-6.1-1.6-13.9-1.6-13.9s1.2-0.8,7-4.3C997.8,234.3,995.7,225.9,992,224.4z"/>
<path fill="#E0AE9B" d="M943.4,253.3c0,0-14.7,3.7-5.4,15.5c9.3,11.9,23.3,14.1,29.2,4.1c5.9-10,22.7-20.6,10.4-33&#10;&#9;c0,0,0.8,10.1-11.8,13.8c-12.6,3.7-20.4,4.1-20.4,4.1L943.4,253.3z"/>
<path fill="#3675E5" d="M801.9,389.3c0,0,5.3-2.9,8.6-6.7c1.2-1.4,7-0.5,13.8,3.2c10.3,5.5,22.9,17.3,25,36.9&#10;&#9;c0.3,2.7,0.4,5.4,0.3,8.4c0,0-7.3,7.4-8.9,9.7c-1.6,2.3-7.2,7.8-13,1.3c3.9-3,6.4-4.9,6.4-4.9l0.3,0c-3.4-29-21.5-37.1-30.2-39.4&#10;&#9;l0,0.2c-1.8,1.8-4.7,3.9-8.1,5.9c0,0-3.8-12.6,5.9-14.4V389.3z"/>
<path fill="#2C60BD" d="M832.7,428.5L832.7,428.5c0.7,2.7,1.3,5.5,1.6,8.7l-0.3,0c0,0-2.4,1.8-6.4,4.9c5.8,6.5,11.4,1.1,13-1.3&#10;&#9;c1.5-2.3,8.9-9.7,8.9-9.7c0.1-2.9,0-5.7-0.3-8.4c-0.3-2.7-0.8-5.3-1.5-7.8l-0.8,0.5C846.9,415.4,852.3,430.8,832.7,428.5z"/>
<path fill="#609CCE" d="M774.7,478.4c2.2-4.9-3.1-7.5-3.1-7.5c0.4-17.7-3.5-36.9-8.6-46.7c-2-3.9-4.2-6.8-6.2-8.8&#10;&#9;c0.8-0.3,5.8-1.9,14.8-1.8c5.4,0.1,16.3-4.7,24.4-9.6c3.4-2,6.3-4.1,8.1-5.9l0-0.2c8.7,2.3,26.7,10.4,30.2,39.4l-0.3,0&#10;&#9;c0,0-2.4,1.8-6.4,4.9c-13.1,10-42.6,33.2-52.7,45l-0.3,0c-0.4-4.3-0.7-7.4-0.7-7.4C774.3,479.3,774.5,478.9,774.7,478.4z"/>
<path fill="#3675E5" d="M771.6,470.9c0,0,5.3,2.6,3.1,7.5c-0.2,0.5-0.4,0.9-0.7,1.3c-2.4,3.7-7,4.3-11.6,4.4c-6.1,0-15-2.7-18.8-6.6&#10;&#9;h0c-0.8-0.8-1.4-1.7-1.7-2.6C741.8,474.9,763.3,472.8,771.6,470.9z"/>
<path fill="#609CCE" d="M776.9,504.4c1,5.5,1.2,12-4.1,17.2v0c-1.3,1.3-2.9,2.4-4.9,3.5c-12.8,6.9-29.5,4.3-31.5-10.2&#10;&#9;c-1.9-14.5,1.9-37.5,1.9-37.5h5.2h0c3.8,3.8,12.7,6.6,18.8,6.6c4.6,0,9.2-0.7,11.6-4.4c0,0,0.2,3.1,0.7,7.4c0.3,2.7,0.6,5.9,1,9&#10;&#9;C776,499.1,776.4,502,776.9,504.4z"/>
<path fill="#EA4139" d="M754.7,633.6c12.5,0,22.9-2.7,24.1-6.3l-0.4,5.6l-0.2,2.4c-2.7,3-12.2,5.3-23.5,5.3&#10;&#9;c-11.5,0-21.1-2.3-23.6-5.4l0,0l-0.6-8.2C731.2,630.6,741.8,633.6,754.7,633.6z"/>
<path fill="#C4785F" d="M778.9,626.2l-0.1,1l0,0c-1.2,3.5-11.6,6.3-24.1,6.3c-12.9,0-23.5-2.9-24.2-6.6l0-0.4c0-3.9,10.8-7,24.2-7&#10;&#9;C767.7,619.6,778.2,622.5,778.9,626.2z"/>
<path fill="#FFE3CF" d="M733.8,630.1c4.2,2.1,12,3.5,20.9,3.5c9,0,16.8-1.4,21-3.5c-4.2-2.1-12-3.5-21-3.5&#10;&#9;C745.8,626.6,737.9,628,733.8,630.1z"/>
<path fill="#609CCE" d="M842.5,514c-6.9,5-12.1,14.1-13.8,21.1c-2.7,10.6-2.6,20-0.1,27l0,0L775,543.8c-0.8-7-1.6-14.6-2.2-22.2v0&#10;&#9;c5.3-5.2,5.1-11.7,4.1-17.2c-0.4-2.4-0.9-5.3-1.2-8.3h0C775.6,496.1,832.8,510.8,842.5,514z"/>
<path fill="#3675E5" d="M868.4,595.6c4.6,5.3,3,9.4,3,9.4c-8.6-1.8-15.1-3.2-15.1-3.2s-13.8,11.5-6.7,31.8v0.2&#10;&#9;c-6.4-0.4-12.5-0.9-17.9-1.5c-5-12.6,0.7-28.1,6.7-35.8c0.7-0.9,1.4-1.7,2.1-2.3c7-6.5,13.7-1.8,14.6-1.1&#10;&#9;C861,590.6,866.8,593.7,868.4,595.6z"/>
<path fill="#2C60BD" d="M849.5,633.7v-0.2c-2.5-7.1-2.4-13-1.2-17.9c-8.2-0.7-13.6-2.3-17.2-4c-1.7,6.6-2,14,0.5,20.6&#10;&#9;C837,632.8,843.1,633.4,849.5,633.7z"/>
<path fill="#609CCE" d="M840.4,594.1c-0.7,0.7-1.4,1.4-2.1,2.3c-6,7.7-11.6,23.2-6.7,35.8c-12.3-1.3-20.9-2.8-20.9-2.8&#10;&#9;c-6.5-5.7-11.2-8.1-15.6-7.3c-4.5-13.5-12.6-35.3-16.4-53c0,0,11.2,3.5,16.4,8.2C800.3,581.9,819.8,592,840.4,594.1z"/>
<path fill="#EFC5B5" d="M831.7,632.2c5.4,0.6,11.5,1.1,17.9,1.5v-0.2c-7.1-20.2,6.7-31.8,6.7-31.8s6.5,1.4,15.1,3.2&#10;&#9;c11.7,2.5,27.2,5.8,34.7,7.6c13.7,3.3,25,9.4,26,21.4c0.6,7.5-0.2,29.3-36.7,31.7c-36.5,2.4-84.9-7.9-84.9-7.9h0&#10;&#9;c-9.6,12.9-33.3,8-33.3,8l-1.5-0.1l2.4-30.3l0.2-2.4l0.6,0c0,0,7.2,2.3,14.8,1c-1.5-3.8-4.8-5.5-7.8-6.2c3.3-3.3,6.2-5.2,9.2-5.6&#10;&#9;c4.5-0.8,9.1,1.6,15.6,7.3C810.7,629.4,819.3,630.9,831.7,632.2z"/>
<path fill="#E0AE9B" d="M791.4,628.5c0,0,9.4-3.3,11.4,0.8c2,4.1-7.6,5-7.6,5L791.4,628.5z"/>
<path fill="#E0AE9B" d="M791.4,636.5c0,0,5.1,22.3-1.5,29.5l-14.1,0.6l2.6-33L791.4,636.5z"/>
<path fill="#BCBEC0" d="M705.2,716.3c2.8-6.5-3.4-6.6-3.4-6.6l-0.1-0.4c3.8-1.1,5.7-5.1,5.1-8.1l7,17.7v13.9l-9.7-9.4l-1.4-4.3&#10;&#9;C703.8,718.3,704.7,717.4,705.2,716.3z"/>
<path fill="#E0AE9B" d="M704,694.3l-8.3-20.8c12.5,6.7,18,14.6,18,14.6S714.3,694.6,704,694.3z"/>
<path fill="#BCBEC0" d="M695.8,673.5l8.3,20.8l1.9,4.9c-0.2-0.3-0.5-0.6-0.8-0.9c-2.1-1.5-7.8-5.9-12.7-9.7v0l-6-17.9l-4.5-13.4&#10;&#9;c0.4-6.6,6.1-3.1,6.1-3.1L695.8,673.5z"/>
<path fill="#8D5039" d="M778.2,635.3l-2.4,30.3l-0.1,1.8l0.3,0.9c0,3.4-9.5,6.1-21.2,6.1c-11.7,0-21.2-2.7-21.2-6.1l-1.7-23.4&#10;&#9;l-0.7-9.7c2.5,3.1,12.1,5.4,23.6,5.4C766,640.6,775.5,638.3,778.2,635.3z"/>
<path fill="#B3322B" d="M750.3,633.6l-0.1-0.1c-10.8-0.6-19.1-3.2-19.7-6.5l0.6,8.2l0,0c2.2,2.7,9.8,4.8,19.4,5.3&#10;&#9;C750.2,636.3,750.3,633.6,750.3,633.6z"/>
<path fill="#6E3E2C" d="M761.5,674c-8-11.1-10.3-25.3-11-33.6c-9.6-0.5-17.3-2.6-19.4-5.3l0.7,9.7l1.7,23.4c0,3.4,9.5,6.1,21.2,6.1&#10;&#9;C757.1,674.4,759.4,674.2,761.5,674z"/>
<path fill="#EFC5B5" d="M653.1,704.1c0,0-33.2-14.2-43.1-18.9c-10-4.7-82.2-22-84.2-47.5c-1.6-19.7,13.6-31.6,32.3-38.9&#10;&#9;c5.5-2.2,11.2-3.9,17-5.4l0.4-0.9c7.1,4,16.7,13.4,14.9,34.7c2.3,1.2,4.7,2.6,7.1,4.3c2.1,1.4,4.2,2.9,6.4,4.6&#10;&#9;c0.2,0.1,0.4,0.3,0.6,0.5c1,0.8,1.9,1.5,2.9,2.2c3.3,2.5,6.6,4.9,9.9,7.1h0c22.5,15.1,43.6,22.6,50.8,25.6l0.1,0.6&#10;&#9;c4.7-1,11.7-2,18.4-1.2l6,17.9v0c4.9,3.8,10.6,8.1,12.7,9.7c0.3,0.2,0.6,0.5,0.8,0.9l0.8,2c0.5,3-1.3,7-5.1,8.1l0.1,0.4&#10;&#9;c0,0,6.2,0.1,3.4,6.6c-0.5,1.1-1.3,2.1-2.5,2.9c-5.5,3.9-17.9,4.5-28.8,1.8C663.8,718.5,656.9,712.2,653.1,704.1z"/>
<path fill="#E0AE9B" d="M688.9,679.5c0,0-9-8-8.6,1.4c0,0-8.2,4.3,8.6,19.4c0,0,6.2,19.4-5.3,22.3c0,0,19,1.7,21.5-6.2l-0.4-5.5&#10;&#9;c0,0,3.6-6.3,3-8.6c-0.6-2.3-15.2-13.4-15.2-13.4L688.9,679.5z"/>
<path fill="#3675E5" d="M585.6,583.8c1.2,0,2.4,0.2,3.8,0.8c5.3,2.3,22.7,22.9,15.2,50.6l-0.6,0.8c-2.2-1.7-4.3-3.3-6.4-4.6&#10;&#9;c-2.5-1.6-4.8-3.1-7.1-4.3c1.8-21.3-7.9-30.7-14.9-34.7l-0.4,0.9c-5.8,1.5-11.5,3.2-17,5.4v0c0,0,3.1-17.9,12.9-15.1&#10;&#9;c3.2,0.9,6,1.9,8.3,2.8l0.2-0.6C579.5,585.8,582.1,583.8,585.6,583.8z"/>
<path fill="#2C60BD" d="M590.3,627.1c2.3,1.2,4.7,2.6,7.1,4.3c2.1,1.4,4.2,2.9,6.4,4.6l0.6-0.8c2.8-10.4,2.1-19.8-0.1-27.6&#10;&#9;c-0.6,1.9-4.7,11.8-16.4-0.6c0,0,0,0,0,0C589.9,612.1,591.1,618.7,590.3,627.1z"/>
<path fill="#609CCE" d="M604.5,635.2c7.5-27.8-9.9-48.3-15.2-50.6c-1.3-0.6-2.6-0.8-3.8-0.8h5c4.2-1.3,13.3-6.2,20.4-10.7v0&#10;&#9;c2.4-1.5,4.6-3,6.3-4.3c6.6-5.1,18-7,24.2,6.3c6.3,13.3,4.7,43.6-4.7,48.5c-2.5,1.3-5.7,3-9.1,4.7c-9.3,4.8-19.9,10.3-20.4,10.5&#10;&#9;c-1-0.7-1.9-1.5-2.9-2.2c-0.2-0.2-0.4-0.3-0.6-0.5L604.5,635.2z"/>
<path fill="#609CCE" d="M629.4,483.3c13.7,3.9,16.2,22.5,16.2,36.2c0,9.7-8.7,20.6-30.9,30.9c-9.1,4.2-20.4,8.3-34.4,12.2l-0.1-0.1&#10;&#9;c4.5-12.8-5.9-37.3-13.4-45.1c-1.2-1.3-2.4-2.2-3.5-2.8c4.1-0.8,36.9-12.8,45-20c6.7-6.1,13.5-10.9,18.5-11.3&#10;&#9;C627.7,483,628.6,483,629.4,483.3z"/>
<path fill="#3675E5" d="M556.1,571.9c5.3-2.2,8.5-3.9,8.5-3.9c3.5-20.7-13.9-43.6-13.9-43.6c-2.7,1.2-6.2,2.6-9.7,3.7l-0.5-1.1&#10;&#9;c0.2-0.6-1.2-7.6,5.7-9.2c0.5-0.1,0.9-0.2,1.4-0.4c0,0,0,0,0,0c5.2-1.8,9.8-6.2,15.6-2.8c1.1,0.6,2.3,1.5,3.5,2.8&#10;&#9;c7.5,7.8,17.8,32.2,13.4,45.1c-0.4,1.3-1,2.5-1.8,3.5c-8.4,11.3-18.8,10.3-21.9,6.8L556.1,571.9z"/>
<path fill="#2C60BD" d="M578.4,565.9c0.8-1,1.4-2.2,1.8-3.5c1.1-3.2,1.3-7.2,0.8-11.5c0,0-0.1,7.7-16.4,4.8c0.6,4,0.8,8.2,0.1,12.3&#10;&#9;c0,0-3.2,1.7-8.5,3.9l0.3,0.8C559.6,576.2,570,577.1,578.4,565.9z"/>
<path fill="#774F40" d="M463.1,400.2l7.8,12c-3.1,0.4-5.6,1.8-6.9,4.6l-8.3-12.8c2.6-0.6,4.9-1.7,6.9-3.4&#10;&#9;C462.8,400.5,463,400.4,463.1,400.2z"/>
<path fill="#EFC5B5" d="M463.4,424.1c-0.6-2.5-0.5-5.1,0.5-7.3c1.3-2.8,3.8-4.2,6.9-4.6c6.4-0.9,15.3,2.3,21,4.6&#10;&#9;c8.2,3.4,14,17.2,14.3,18.1c10.4,7.5,13.9,40.7,15,50.5c1,9.4,5.2,33,7.4,46.2l1.4-0.2c0,0,5.4-1.5,11.1-3.4c3.4-1.1,7-2.4,9.7-3.7&#10;&#9;c0,0,17.4,22.9,13.9,43.6c0,0-3.2,1.7-8.5,3.9c-9,3.7-23.9,9-39,10.4c-24.1,2.2-26.6-14.9-27.6-35.4c-1-20.5-0.8-56.5-3.3-72.4&#10;&#9;l0-0.6c-16.2,1-27.7-17.9-31.3-29.1c-4.5-14.3,8.1-20.5,8.1-20.5L463.4,424.1z"/>
<path fill="#E0AE9B" d="M478.2,426.9c0,0,18.5-5,21.4,7.3c2.9,12.3,0,1.3,0,1.3s18.3,19-1.4,24c0,0-12.7-0.4-20.3-16.8&#10;&#9;C477.9,442.7,482.1,433,478.2,426.9z"/>
<path d="M 465.2 302.899994 A 11.2 11.2 0 0 1 454 314.099994 A 11.2 11.2 0 0 1 442.8 302.899994 A 11.2 11.2 0 0 1 454 291.699994 A 11.2 11.2 0 0 1 465.2 302.899994 Z" fill="#D72F0C"/>
<path fill="#A6725B" d="M454,351.1c1.9,1.7,3.7,3.6,5.3,5.7c12.3,15.3,14,34.6,3.8,43.4c-0.2,0.2-0.4,0.3-0.5,0.4&#10;&#9;c-2,1.7-4.4,2.8-6.9,3.4c-10.8,2.7-25-3.4-35.2-16c-12.5-15.6-14-35.2-3.3-43.9C426.5,336.7,441.9,339.9,454,351.1z"/>
<path fill="#C98A6E" d="M452.4,350c1.6,1.5,3.2,3.2,4.7,5.1c10.9,13.6,12.4,30.7,3.4,38.5c-0.1,0.1-0.3,0.3-0.5,0.4&#10;&#9;c-1.8,1.5-3.9,2.5-6.2,3c-9.6,2.4-22.2-3-31.2-14.2c-11.1-13.8-12.4-31.3-2.9-38.9C428,337.3,441.7,340.2,452.4,350z"/>
<path fill="#452B1F" d="M664.4,333.5c-1.5,5.7-2.2,11.3-2.2,16.7c-8.6-7.1-5-21.1-4.8-21.8C659.2,330.7,661.5,332.5,664.4,333.5z"/>
<path fill="#BCBEC0" d="M753.5,302.9c-0.4-4.5-0.9-8.8-1.4-12.7c6.4,0.9,11.4,7.5,11.4,15.4c0,6.7-3.5,12.5-8.5,14.6&#10;&#9;C754.6,314.3,754.1,308.4,753.5,302.9z"/>
<path fill="#C3C5D6" d="M737.9,305.6c0-8.6,5.7-15.5,12.8-15.5c0.5,0,1,0,1.5,0.1c0.5,3.9,0.9,8.2,1.4,12.7&#10;&#9;c0.6,5.6,1.1,11.5,1.5,17.4c-1.4,0.6-2.8,0.9-4.4,0.9C743.6,321.2,737.9,314.2,737.9,305.6z M748.7,302.4c-1.8,0-3.3,1.9-3.3,4.2&#10;&#9;c0,2.3,1.5,4.2,3.3,4.2c1.8,0,3.3-1.9,3.3-4.2C752,304.2,750.5,302.4,748.7,302.4z"/>
<path fill="#C3C5D6" d="M717.4,302.6c-0.3-0.2-0.7-0.2-1.1-0.2c-0.1,0-0.1,0-0.2,0c-1.7,0.1-3.1,1.9-3.1,4.2c0,2.3,1.5,4.2,3.3,4.2&#10;&#9;c1.8,0,3.3-1.9,3.3-4.2C719.6,304.7,718.7,303.1,717.4,302.6z M732.2,305c0,0.2,0,0.4,0,0.7c0,9.9-8,17.9-17.9,17.9&#10;&#9;c-9.9,0-17.9-8-17.9-17.9c0-0.2,0-0.4,0-0.6c0.3-9.6,8.2-17.3,17.9-17.3c1.3,0,2.6,0.1,3.8,0.4C726,289.8,732,296.7,732.2,305z"/>
<path fill="#EFC5B5" d="M755,320.2c-1.4,0.6-2.8,0.9-4.4,0.9c-7.1,0-12.8-7-12.8-15.6c0-8.6,5.7-15.5,12.8-15.5c0.5,0,1,0,1.5,0.1&#10;&#9;c-0.3-2.8-0.6-5.4-0.9-7.7c-0.9-7.3-1.6-12-1.6-12c-10.6,1.9-25.8,2.8-39,3.2c-15.7,0.5-28.7,0.3-28.7,0.3s2.9,23.6-10.9,30.2&#10;&#9;c-2.2-3.4-6.3-8.3-11.2-7.7c-1.5,0.2-3.2,0.9-4.9,2.4c-4.2,3.8-4.8,20.4,2.5,29.5c0,0,0,0,0,0c1.8,2.3,4.2,4.1,7.1,5.1&#10;&#9;c-1.5,5.7-2.2,11.3-2.2,16.7c0,17.5,7.6,33,20.8,41.9c4.6,3.1,9.9,5.4,15.8,6.7c12.5,2.7,24.1,0.2,33.6-5.7&#10;&#9;c5.7-3.6,10.7-8.4,14.5-14.1c4.1-6,6.8-12.8,8-20.1C756.4,349.6,756,334.9,755,320.2z M714.4,323.5c-9.9,0-17.9-8-17.9-17.9&#10;&#9;c0-0.2,0-0.4,0-0.6c0.3-9.6,8.2-17.3,17.9-17.3c1.3,0,2.6,0.1,3.8,0.4c7.9,1.7,13.8,8.5,14.1,16.8c0,0.2,0,0.4,0,0.7&#10;&#9;C732.3,315.5,724.3,323.5,714.4,323.5z"/>
<path fill="#ED9788" d="M755,344.8c0,0-13,0.9-17.2,0c-4.1-0.9-1.8,6.6,5.5,6.7C750.7,351.5,754.4,349.2,755,344.8z"/>
<path fill="#ED9788" d="M668.6,311.3c0,0-9.2-10.6-10.8-5.3c-1.5,5.4,0.5,29.3,10.8,17.8C668.6,323.8,663.5,313.1,668.6,311.3z"/>
<path fill="#E0AE9B" d="M696.7,308.2c-0.1-0.7-0.2-1.3-0.2-2c0,0,0-0.1,0-0.1c-3.1-5.9,3.8-32,3.8-32l-0.8-0.2&#10;&#9;c-10.3,0.2-17.7,0.1-17.7,0.1s2.8,22.7-10.2,29.8l-0.2,1.3c5.4,10-1.5,8.6-1.5,8.6c-4.9,1-1,11.3-1,11.3c5.5,7.8-4.6,8.6-4.6,8.6&#10;&#9;c-1.5,5.7-2.2,11.3-2.2,16.7c0,17.5,7.6,33,20.8,41.9c0.6,0.4,1.3,0.8,2,1.2c7.4,3.7,17.5,7.2,27.8,6.4c0.1,0,0.1,0,0.2,0&#10;&#9;C673.5,381.9,695.9,321.2,696.7,308.2z"/>
<path fill="#C29074" d="M732.4,397v5.9c-6.4,3.3-16.3,9.1-16.3,9.1v0c-2.9,0.2-4.8,3.4-4.8,3.4c-1-2.3-3.7-3.9-3.7-3.9&#10;&#9;s-18.2-6.7-25.5-9.8l0.8,0V397v-4.8v0c4.6,3.1,9.9,5.4,15.8,6.7c12.5,2.7,24.1,0.2,33.6-5.7V397z"/>
<path fill="#3675E5" d="M682.1,401.8c7.3,3,25.5,9.8,25.5,9.8c-4.3,0.6-17.4,19.5-17.4,19.5l-25.1-18.6c0,0,1.2-11,6.2-14.5&#10;&#9;c5.1-3.5,10.8-1.1,10.8-1.1h0.8v4.8L682.1,401.8z"/>
<path fill="#3675E5" d="M733.3,397c9.6-2.5,12.4,11.1,12.4,11.1l-1.4,1.8l-16.5,21.1c0,0-2.3-16.8-10.3-18.9&#10;&#9;c-0.4-0.1-0.9-0.2-1.3-0.1v0c0,0,9.8-5.7,16.3-9.1V397H733.3z"/>
<path fill="#E5B8E8" d="M730.5,626.9l0.6,8.2l0,0l0.7,9.7c-2.7-0.1-5.3-0.2-8-0.3v0c-0.1-26.4-12.2-95.1-14.9-124.9&#10;&#9;c-3.1-35.6,2.3-104.2,2.3-104.2s1.9-3.2,4.8-3.4c0.4,0,0.8,0,1.3,0.1c8,2.1,10.3,18.9,10.3,18.9l16.5-21.1c0,0,5.8-1.5,12.5,5.4&#10;&#9;c2,2.1,4.2,5,6.2,8.8c5.1,9.7,9,28.9,8.6,46.7c-8.2,1.9-29.7,4-29.7,4c0.3,0.9,0.9,1.8,1.7,2.6h-5.2c0,0-3.9,23-1.9,37.5&#10;&#9;c1.9,14.5,18.7,17,31.5,10.2c2-1.1,3.6-2.3,4.9-3.5c0.6,7.6,1.4,15.2,2.2,22.2c0.8,7.1,1.7,13.5,2.5,18.7c0.3,2.1,0.8,4.3,1.3,6.6&#10;&#9;c3.8,17.7,11.9,39.5,16.4,53c-3,0.5-5.8,2.4-9.2,5.6c3,0.7,6.3,2.3,7.8,6.2c-7.6,1.4-14.8-1-14.8-1l-0.6,0l0.4-5.6l0,0&#10;&#9;c0-0.2,0.1-0.4,0.1-0.7c0-0.1,0-0.2,0-0.4c-0.7-3.7-11.2-6.6-24.2-6.6c-13.4,0-24.2,3.1-24.2,7L730.5,626.9z"/>
<path fill="#E5B8E8" d="M704,554c2,0,3.6-1.6,3.6-3.6c0-2-1.6-3.6-3.6-3.6c-2,0-3.6,1.6-3.6,3.6C700.4,552.3,702,554,704,554z&#10;&#9; M708.1,587.4c2,0,3.6-1.6,3.6-3.6c0-2-1.6-3.6-3.6-3.6c-2,0-3.6,1.6-3.6,3.6C704.4,585.8,706.1,587.4,708.1,587.4z M716.3,619.6&#10;&#9;c0-2-1.6-3.6-3.6-3.6c-2,0-3.6,1.6-3.6,3.6c0,2,1.6,3.6,3.6,3.6C714.7,623.2,716.3,621.6,716.3,619.6z M702.4,486.7&#10;&#9;c0-2-1.6-3.6-3.6-3.6c-2,0-3.6,1.6-3.6,3.6c0,2,1.6,3.6,3.6,3.6C700.8,490.3,702.4,488.7,702.4,486.7z M704,520.9&#10;&#9;c0-2-1.6-3.6-3.6-3.6c-2,0-3.6,1.6-3.6,3.6c0,2,1.6,3.6,3.6,3.6C702.4,524.5,704,522.9,704,520.9z M704,450.9c0-2-1.6-3.6-3.6-3.6&#10;&#9;c-2,0-3.6,1.6-3.6,3.6c0,2,1.6,3.6,3.6,3.6C702.4,454.5,704,452.9,704,450.9z M626.8,483c4.6-4.7,4.3-13.4,4.3-13.4&#10;&#9;c8.2,4.1,17.4-2,27-15.6c9.9-13.9,9.9-28.2,1.3-39.1v0c0.9-6,5.8-2.4,5.8-2.4l25.1,18.6c0,0,13.1-19,17.4-19.5c0,0,2.7,1.6,3.7,3.9&#10;&#9;c0,0-5.4,68.6-2.3,104.2c2.7,29.8,14.8,98.5,14.9,124.9v0c-13-0.5-26.2-0.7-39.5-0.7c-23,0-45.4,0.7-67.1,2h0&#10;&#9;c-3.3-2.2-6.6-4.6-9.9-7.1c0.4-0.2,11.1-5.7,20.4-10.5c3.4-1.8,6.6-3.4,9.1-4.7c9.4-4.9,11-35.2,4.7-48.5&#10;&#9;c-6.2-13.3-17.6-11.4-24.2-6.3c-1.7,1.3-3.9,2.8-6.3,4.3c1.7-6.1,3.7-22.7,3.7-22.7v0c22.2-10.2,30.9-21.1,30.9-30.9&#10;&#9;c0-13.7-2.5-32.3-16.2-36.2C628.6,483,627.7,483,626.8,483L626.8,483z"/>
<path fill="#D99BC8" d="M786,627.7c3.3-3.3,6.2-5.2,9.2-5.6c-2.3-7-5.6-16.3-8.8-26c-32.2-10.5-56.1-27.6-73.8-47.2&#10;&#9;c-32.3-35.8-43.9-80-48.1-107.9c-1.2,4.3-3.3,8.7-6.4,13.1c-9.6,13.5-18.8,19.6-27,15.6c0,0,0.4,8.7-4.3,13.4v0&#10;&#9;c0.9-0.1,1.8,0,2.6,0.2c13.7,3.9,16.2,22.5,16.2,36.2c0,9.7-8.7,20.6-30.9,30.9v0c0,0-2,16.6-3.7,22.7c2.4-1.5,4.6-3,6.3-4.3&#10;&#9;c6.6-5.1,18-7,24.2,6.3c6.3,13.3,4.7,43.6-4.7,48.5c-2.5,1.3-5.7,3-9.1,4.7c-9.3,4.8-19.9,10.3-20.4,10.5c3.3,2.5,6.6,4.9,9.9,7.1h0&#10;&#9;c21.7-1.3,44.1-2,67.1-2c13.4,0,26.5,0.2,39.5,0.7c2.7,0.1,5.3,0.2,8,0.3l-0.7-9.7l0,0l-0.6-8.2l0-0.4c0-3.9,10.8-7,24.2-7&#10;&#9;c13,0,23.5,2.9,24.2,6.6c0,0.1,0,0.2,0,0.4c0,0.2,0,0.4-0.1,0.7l0,0l-0.4,5.6l0.6,0c0,0,7.2,2.3,14.8,1&#10;&#9;C792.3,630.1,789,628.4,786,627.7z M700.4,550.3c0-2,1.6-3.6,3.6-3.6c2,0,3.6,1.6,3.6,3.6c0,2-1.6,3.6-3.6,3.6&#10;&#9;C702,554,700.4,552.3,700.4,550.3z M704.4,583.8c0-2,1.6-3.6,3.6-3.6c2,0,3.6,1.6,3.6,3.6c0,2-1.6,3.6-3.6,3.6&#10;&#9;C706.1,587.4,704.4,585.8,704.4,583.8z M712.7,623.2c-2,0-3.6-1.6-3.6-3.6c0-2,1.6-3.6,3.6-3.6c2,0,3.6,1.6,3.6,3.6&#10;&#9;C716.3,621.6,714.7,623.2,712.7,623.2z"/>
<path fill="#3675E5" d="M623.4,361.7c4.5,2.8,5.1,7.5,4.1,12c-0.5,2.3-1.5,4.5-2.6,6.4c-3.2,5.5-16.4,18-26.6,21.7&#10;&#9;c-2.8,1-6.7,1.9-10.4,2.1c-4.7,0.3-9.1-0.6-10.2-3.8c-1-3-7.4-10-11.9-14.7c-4.5-4.7,7-13.7,7-13.7h0c1.6,4.4,3.4,8.7,5.4,12.7&#10;&#9;c1.1-0.1,2.3-0.3,3.6-0.6c10.4-2.3,27.5-11.2,31.9-20.8l-1.1-0.4c0,0-0.8-4.5-1.8-11l1.8,0C612.8,351.5,623.4,352.5,623.4,361.7z"/>
<path fill="#2C60BD" d="M594.1,379.3c-4.3,2.1-8.6,3.6-12.2,4.4c-1.3,0.3-2.5,0.5-3.6,0.6c-2-4.1-3.8-8.3-5.4-12.7h0&#10;&#9;c0,0-11.5,9-7,13.7c4.5,4.7,10.9,11.7,11.9,14.7c1.1,3.2,5.4,4.1,10.2,3.8c3.7-0.2,7.6-1.1,10.4-2.1c1.6-0.6,3.3-1.4,5-2.4&#10;&#9;C593.2,396.3,593.9,381.3,594.1,379.3z"/>
<path fill="#609CCE" d="M659.4,415c8.6,10.8,8.6,25.2-1.3,39.1c-9.6,13.5-18.8,19.6-27,15.6c-1.6-0.8-3.1-1.9-4.7-3.5&#10;&#9;c-9.4-9.7-38.4-62.2-38.4-62.2v0c3.7-0.2,7.6-1.1,10.4-2.1c10.2-3.7,23.4-16.2,26.6-21.7c1.1-1.9,2.1-4.1,2.6-6.4&#10;&#9;c2.5,3.7,21,31.3,27.1,36.4C656.4,411.6,658,413.2,659.4,415L659.4,415z"/>
<path fill="#4D7EA6" d="M657.4,454.5c-32.8-3.8-49.5-38.4-55.5-54.4c-1.2,0.6-2.4,1.2-3.5,1.6c-2.8,1-6.7,1.9-10.4,2.1v0&#10;&#9;c0,0,29.1,52.5,38.4,62.2c1.5,1.6,3.1,2.7,4.7,3.5c8.1,4,17.2-1.9,26.6-15C657.6,454.6,657.5,454.5,657.4,454.5z"/>
<path fill="#4D7EA6" d="M642.2,527.3L581,550.9c0.5,4.3,0.3,8.2-0.8,11.5l0.1,0.1c14-3.8,25.3-8,34.4-12.2&#10;&#9;c14.5-6.7,23.2-13.6,27.5-20.3V527.3z"/>
<path fill="#4D7EA6" d="M606.4,610.7c-0.4,0.2-0.7,0.4-1,0.7c1.4,7,1.6,15.1-0.8,23.8l-0.6,0.8c0.2,0.1,0.4,0.3,0.6,0.5&#10;&#9;c1,0.8,1.9,1.5,2.9,2.2c0.4-0.2,11.1-5.7,20.4-10.5c3.4-1.8,6.6-3.4,9.1-4.7c7.9-4.1,10.2-26.1,7.1-40.9l-1.7-1.5&#10;&#9;C642.2,581.1,628.1,598.7,606.4,610.7z"/>
<path fill="#4D7EA6" d="M827.6,442.1c3.9-3,6.4-4.9,6.4-4.9l0.3,0c-0.4-3.1-0.9-6-1.6-8.7c-0.1,0-0.3,0-0.4,0&#10;&#9;c-28.9,3.9-58.7,38.7-58.7,38.7l-2,0.3c0,1.1,0,2.2,0,3.3c0,0,5.3,2.6,3.1,7.5c-0.2,0.5-0.4,0.9-0.7,1.3c0,0,0.2,3.1,0.7,7.4l0.3,0&#10;&#9;C785,475.2,814.6,452.1,827.6,442.1z"/>
<path fill="#4D7EA6" d="M828.6,562.1c-2-5.8-2.4-13.2-1-21.6l-0.4-0.5c-45.4,10.2-49.8-22.7-49.8-22.7l-1.4-0.4&#10;&#9;c-0.7,1.6-1.8,3.2-3.3,4.7v0c0.6,7.6,1.4,15.2,2.2,22.2L828.6,562.1L828.6,562.1z"/>
<path fill="#4D7EA6" d="M832.3,607.6c-31.4-1.9-49-21.8-49-21.8s-0.1,0.1-0.2,0.2c4,13.3,8.8,26.7,12,36.1c4.5-0.8,9.1,1.6,15.6,7.3&#10;&#9;c0,0,8.6,1.5,20.9,2.8C828.5,624.3,829.6,615.2,832.3,607.6z"/>
<path fill="#4D7EA6" d="M767.9,525.1c2-1.1,3.6-2.3,4.9-3.5v0c2.2-2.2,3.4-4.6,4.1-7c-36,33-33.7-34.9-33.7-34.9s0.1-0.9,0.3-2.2&#10;&#9;h-5.1c0,0-3.9,23-1.9,37.5C738.3,529.4,755.1,532,767.9,525.1z"/>
<path fill="#FFC03E" d="M694.7,103.8c0,4.4-1.1,8.5-2.9,12.1c-3.5,6.8-9.9,11.9-17.6,13.6c-1.9,0.4-3.9,0.7-5.9,0.7&#10;&#9;c-14.6,0-26.4-11.8-26.4-26.4c0-14.6,11.8-26.4,26.4-26.4C682.9,77.4,694.7,89.3,694.7,103.8z"/>
<path fill="#FFCF6E" d="M668.3,77.4c-5.5,0-10.6,1.7-14.8,4.5c-3.6,4.5-5.7,10.2-5.7,16.4c0,14.6,11.8,26.4,26.4,26.4&#10;&#9;c2,0,4-0.2,5.9-0.7c3.2-0.7,6.2-2.1,8.9-3.9c1-1.3,2-2.7,2.7-4.2c1.9-3.6,2.9-7.7,2.9-12.1C694.7,89.3,682.9,77.4,668.3,77.4z"/>
<path d="M 683.100012 103.599998 A 12.4 12.4 0 0 1 670.700012 115.999998 A 12.4 12.4 0 0 1 658.300013 103.599998 A 12.4 12.4 0 0 1 670.700012 91.199999 A 12.4 12.4 0 0 1 683.100012 103.599998 Z" fill="#FFE4AD"/>
<g>
	<path fill="#B8954F" d="M680.8,128.3c-0.3,0-0.5-0.1-0.7-0.3c-0.5-0.4-13.1-10.7-15.9-15.2c-0.4-0.7-1.5-2.4-0.5-3.6&#10;&#9;&#9;c0.7-0.7,1.9-0.7,3.7,0c0.3-1.8,1-3,2.2-3.8c1.1-0.7,2.4-0.7,3.4-0.5c0.1-1.6,1-2.7,2.1-3.2c1.9-0.9,4.4-0.2,5.3,1.3&#10;&#9;&#9;c1,1.9,9.6,16.9,9.6,16.9l-2,1.2c0,0-8.6-15-9.6-16.9c-0.2-0.4-1.4-0.7-2.3-0.3c-0.3,0.1-1.2,0.5-0.5,2.3c0.2,0.5,0,0.9-0.3,1.3&#10;&#9;&#9;c-0.4,0.3-0.9,0.4-1.3,0.2c-0.5-0.3-2.1-0.8-3.1-0.2c-1,0.6-1.2,2.3-1.2,3.5c0,0.4-0.2,0.8-0.6,1c-0.4,0.2-0.8,0.2-1.2,0&#10;&#9;&#9;c-0.6-0.3-1.4-0.6-1.9-0.8c0.1,0.1,0.1,0.2,0.2,0.3c2.7,4.2,15.3,14.6,15.4,14.7c0.5,0.4,0.6,1.2,0.2,1.7&#10;&#9;&#9;C681.4,128.2,681.1,128.3,680.8,128.3z"/>
</g>
<path fill="#BCBEC0" d="M691.8,115.9l14,15l0.9,0.1c-0.6,0.5-0.9,0.9-0.9,0.9c-4.6-2.5-8.9-3.9-11.9-3.8c-4.7,0.2-10.8,2.6-15.4,6.8&#10;&#9;l-4-4.8l-0.1-0.7C681.9,127.8,688.3,122.7,691.8,115.9z"/>
<path fill="#E0AE9B" d="M715.8,128.2c5.9,1.5,13.2,14.2,7.8,22.3c-3.5-8.2-10.9-14.8-17.8-18.6c0,0,0.3-0.4,0.9-0.9&#10;&#9;C708.2,129.5,711.6,127.1,715.8,128.2z"/>
<path fill="#EFC5B5" d="M696.5,194c0,0-80.2,96.6-86.1,111c-4,9.7-1.5,32.7,0.5,46.5c1,6.5,1.8,11,1.8,11l1.1,0.4&#10;&#9;c-4.5,9.6-21.6,18.4-31.9,20.8c-1.3,0.3-2.5,0.5-3.6,0.6c-2-4.1-3.8-8.3-5.4-12.7c-6.1-16.6-9.7-36-10.9-59.1&#10;&#9;c-1.6-29.3,14.1-39.9,27.8-52.7c13.7-12.8,73.1-68.1,78.6-76.4c5.5-8.2,4.5-24.6,4.5-24.6c-0.8-2.1-1.3-4.9-1.4-8.4&#10;&#9;c-0.1-6.5,2.9-11.7,7-15.5c4.6-4.2,10.7-6.7,15.4-6.8c3-0.1,7.4,1.2,11.9,3.8c6.9,3.8,14.3,10.4,17.8,18.6v0&#10;&#9;c1.1,2.6,1.9,5.3,2.1,8.1c0.5,6.2-9.5,12.5-16.7,16.1c0,12.8-6.7,17.4-12.6,19L696.5,194z"/>
<path fill="#E0AE9B" d="M683,134.3c0,0,35.7,8.2,34.4,35.6c0,0,11.8-0.3,8-13.1c-3.8-12.8-15.6-28.5-27.8-28.1&#10;&#9;C685.4,129,683.7,129.1,683,134.3z"/>
<path fill="#C29074" d="M611.3,353.6c-3.6,1.4-21.2,8-41.3,9.2c0.9,3,1.9,6,2.9,8.9c1.6,4.4,3.4,8.7,5.4,12.7&#10;&#9;c1.1-0.1,2.3-0.3,3.6-0.6c10.4-2.3,27.5-11.2,31.9-20.8l-1.1-0.4C612.8,362.5,612.1,359,611.3,353.6z"/>
<path fill="#C29074" d="M556.1,571.9c5.3-2.2,8.5-3.9,8.5-3.9c3.5-20.7-13.9-43.6-13.9-43.6c-2.7,1.2-6.2,2.6-9.7,3.7&#10;&#9;c-0.6,0.2-1.2,0.4-1.9,0.6l0,0c0,0,16.8,24.6,11.7,45.3C552.9,573.2,554.6,572.5,556.1,571.9z"/>
<path fill="#C29074" d="M567.3,595.8c0,0,12.1,9.4,9,26.2l15.1,5.7c0,0-1.9-30.3-15.1-33.8L567.3,595.8z"/>
<path fill="#C29074" d="M866.7,604c0,0-7.8,18.9-1.4,31.2l-15.8-1.6c0,0-5.3-19,7.2-30.6L866.7,604z"/>
<path fill="#C29074" d="M871.6,524.5c0,0-15.5,18.5-4.9,43.3l-15.1-3.1c0,0-6.6-23.5,10-42.4L871.6,524.5z"/>
<path fill="#C29074" d="M828.2,384.4c0,0,28.3,10.7,28.8,31.1l-7.4,7.2c0,0-5.4-30.3-24.4-35.4L828.2,384.4z"/>
<path d="M 589.900024 299 A 11.5 15.2 0 0 1 578.400024 314.2 A 11.5 15.2 0 0 1 566.900024 299 A 11.5 15.2 0 0 1 578.400024 283.8 A 11.5 15.2 0 0 1 589.900024 299 Z" fill="#ED9788"/>
<path d="M 521.100006 567.799988 A 11.5 11.1 0 0 1 509.600006 578.899988 A 11.5 11.1 0 0 1 498.100006 567.799988 A 11.5 11.1 0 0 1 509.600006 556.699987 A 11.5 11.1 0 0 1 521.100006 567.799988 Z" transform="matrix(0.7609 -0.6489 0.6489 0.7609 -246.5921 466.4298)" fill="#ED9788"/>
<path d="M 550.799988 630.299988 A 11.5 11.1 0 0 1 539.299988 641.399988 A 11.5 11.1 0 0 1 527.799988 630.299988 A 11.5 11.1 0 0 1 539.299988 619.199987 A 11.5 11.1 0 0 1 550.799988 630.299988 Z" transform="matrix(0.7609 -0.6488 0.6488 0.7609 -280.0565 500.5813)" fill="#ED9788"/>
<path fill="#ED9788" d="M931.6,626.7c4,4.6,3.2,11.8-1.6,15.9c-4.8,4.1-12,3.7-16-0.9c-4-4.6-3.2-11.8,1.6-15.9&#10;&#9;C920.5,621.7,927.7,622.1,931.6,626.7z"/>
<path d="M 945.700012 567.799988 A 11.5 11.1 0 0 1 934.200012 578.899988 A 11.5 11.1 0 0 1 922.700012 567.799988 A 11.5 11.1 0 0 1 934.200012 556.699987 A 11.5 11.1 0 0 1 945.700012 567.799988 Z" transform="matrix(0.7609 -0.6488 0.6488 0.7609 -145.0769 741.8492)" fill="#ED9788"/>
<path d="M 904.200012 360.5 A 11.5 11.1 0 0 1 892.700012 371.6 A 11.5 11.1 0 0 1 881.200012 360.5 A 11.5 11.1 0 0 1 892.700012 349.4 A 11.5 11.1 0 0 1 904.200012 360.5 Z" transform="matrix(0.7609 -0.6488 0.6488 0.7609 -20.5037 665.4152)" fill="#ED9788"/>
<path fill="#6F4532" d="M669.5,246.1c8-28.2,55.1-26.1,65.4-26.1c11.7,0,48.1,2.1,48.1,6.2c0,4.1-4.4,7.1-4.4,7.1&#10;&#9;c5.4,0,11.9,1,12.9,5.5c1.7,7.7-9.9,11.1-10.5,11.3l10.5,2.5c-5.6,10-18.8,13.8-41.9,17.9c-10.6,1.9-25.8,2.8-39,3.2&#10;&#9;c-15.7,0.5-28.7,0.3-28.7,0.3s2.9,23.6-10.9,30.2c-2.2-3.4-6.3-8.3-11.2-7.7C648,253.1,669.5,246.1,669.5,246.1z"/>
<path fill="#452B1F" d="M702.5,273.8c-0.1-0.4-0.3-0.9-0.5-1.3c-40.4-9.6-21.8-38.5-21.8-38.5l-6.8,4c-1.7,2.4-3,5.1-3.9,8.1&#10;&#9;c0,0-21.5,7.1-9.8,50.4c4.9-0.6,9,4.3,11.2,7.7c13.8-6.6,10.9-30.2,10.9-30.2S690.6,274,702.5,273.8z"/>
<path fill="#231F20" d="M748.7,302.4c1.8,0,3.3,1.9,3.3,4.2c0,2.3-1.5,4.2-3.3,4.2c-1.8,0-3.3-1.9-3.3-4.2&#10;&#9;C745.4,304.2,746.9,302.4,748.7,302.4z"/>
<path fill="#231F20" d="M717.4,302.6c1.3,0.5,2.2,2.1,2.2,4c0,2.3-1.5,4.2-3.3,4.2c-1.8,0-3.3-1.9-3.3-4.2c0-2.3,1.4-4.1,3.1-4.2&#10;&#9;C716.6,302.4,717,302.5,717.4,302.6z"/>
<path fill="#231F20" d="M716.4,302.4c0.4,0,0.7,0.1,1.1,0.2c-0.4-0.1-0.8-0.2-1.2-0.2C716.2,302.4,716.3,302.4,716.4,302.4z"/>
<path fill="#D72F0C" d="M712.7,616c2,0,3.6,1.6,3.6,3.6c0,2-1.6,3.6-3.6,3.6c-2,0-3.6-1.6-3.6-3.6C709,617.6,710.7,616,712.7,616z"/>
<path fill="#D72F0C" d="M708.1,580.2c2,0,3.6,1.6,3.6,3.6c0,2-1.6,3.6-3.6,3.6c-2,0-3.6-1.6-3.6-3.6&#10;&#9;C704.4,581.8,706.1,580.2,708.1,580.2z"/>
<path d="M 707.6 550.299988 A 3.6 3.6 0 0 1 704 553.899988 A 3.6 3.6 0 0 1 700.4 550.299988 A 3.6 3.6 0 0 1 704 546.699988 A 3.6 3.6 0 0 1 707.6 550.299988 Z" fill="#D72F0C"/>
<path d="M 704.000024 520.900024 A 3.6 3.6 0 0 1 700.400024 524.500024 A 3.6 3.6 0 0 1 696.800025 520.900024 A 3.6 3.6 0 0 1 700.400024 517.300025 A 3.6 3.6 0 0 1 704.000024 520.900024 Z" fill="#D72F0C"/>
<path d="M 704.000024 450.899994 A 3.6 3.6 0 0 1 700.400024 454.499994 A 3.6 3.6 0 0 1 696.800025 450.899994 A 3.6 3.6 0 0 1 700.400024 447.299994 A 3.6 3.6 0 0 1 704.000024 450.899994 Z" fill="#D72F0C"/>
<path d="M 702.399988 486.700012 A 3.6 3.6 0 0 1 698.799988 490.300012 A 3.6 3.6 0 0 1 695.199988 486.700012 A 3.6 3.6 0 0 1 698.799988 483.100012 A 3.6 3.6 0 0 1 702.399988 486.700012 Z" fill="#D72F0C"/>
<g>
	<path fill="#231F5C" d="M659,303.8c-0.9,0.3-1.5,1.2-1.2,2.2c0.3,0.9,1.2,1.5,2.2,1.2c0,0,3.5-0.6,7.5,6.1c-0.7,0.8-1.6,1.9-2,3.6&#10;&#9;&#9;c-0.6,2.4-0.2,5,1.3,7.9c-0.7,0.8-1.9,1.7-3.6,0.9c-0.9-0.4-1.9-0.1-2.4,0.8c-0.4,0.9-0.1,1.9,0.8,2.4c1,0.5,2,0.7,2.9,0.7&#10;&#9;&#9;c2.8,0,4.9-2,5.9-3.8c0.3-0.5,0.3-1.2,0-1.7c-3.6-6.1-0.1-8.5,0.2-8.7c0.8-0.5,1.1-1.5,0.7-2.3C665.7,302.2,659.7,303.6,659,303.8z&#10;&#9;&#9;"/>
	<path fill="#231F5C" d="M701.3,352.1c0.8-0.6,0.9-1.7,0.3-2.5c-0.6-0.8-1.7-0.9-2.5-0.4c-0.2,0.1-16.7,12.8-7.8,29.2&#10;&#9;&#9;c0.3,0.6,0.9,0.9,1.6,0.9c0.3,0,0.6-0.1,0.8-0.2c0.9-0.5,1.2-1.5,0.7-2.4C687.1,363.1,700.7,352.6,701.3,352.1z"/>
	<path fill="#231F5C" d="M699.1,281.5c-0.7,0.6-0.8,1.7-0.2,2.5c0.3,0.4,0.8,0.6,1.4,0.6c0.4,0,0.8-0.1,1.1-0.4&#10;&#9;&#9;c0.4-0.3,9.7-7.9,17.3-0.1c0.7,0.7,1.8,0.7,2.5,0c0.7-0.7,0.7-1.8,0-2.5C713.3,273.5,703.3,278,699.1,281.5z"/>
	<path fill="#231F5C" d="M704.5,303.9c-0.8,0.5-1,1.6-0.5,2.4c0.5,0.8,1.6,1,2.4,0.5c0,0,3.3-2.1,7.5-2.3c-0.4,0.7-0.7,1.6-0.7,2.5&#10;&#9;&#9;c0,2.3,1.5,4.2,3.3,4.2s3.3-1.9,3.3-4.2c0-0.5-0.1-1-0.2-1.4c1,0.4,1.9,1,2.9,1.8c0.3,0.3,0.7,0.4,1.1,0.4c0.5,0,1-0.2,1.4-0.6&#10;&#9;&#9;c0.6-0.7,0.5-1.9-0.2-2.5C717.2,298.4,708.2,301.5,704.5,303.9z"/>
	<path fill="#231F5C" d="M573.9,286.6c-0.2,0.1-5.1,2.7-6.6,7.8c-0.9,3-0.4,6.1,1.4,9.2c0.3,0.6,0.9,0.9,1.5,0.9&#10;&#9;&#9;c0.3,0,0.6-0.1,0.9-0.2c0.8-0.5,1.1-1.5,0.7-2.4c-1.3-2.3-1.7-4.5-1.1-6.5c1.1-3.6,4.8-5.7,4.9-5.7c0.9-0.5,1.2-1.5,0.7-2.4&#10;&#9;&#9;C575.8,286.5,574.7,286.2,573.9,286.6z"/>
	<path fill="#231F5C" d="M454.2,316.4c7.2,0,13-5.8,13-13c0-7.2-5.8-13-13-13c-7.2,0-13,5.8-13,13&#10;&#9;&#9;C441.2,310.5,447.1,316.4,454.2,316.4z M454.2,293.9c5.2,0,9.5,4.2,9.5,9.5c0,5.2-4.2,9.5-9.5,9.5s-9.5-4.2-9.5-9.5&#10;&#9;&#9;C444.8,298.2,449,293.9,454.2,293.9z"/>
	<path fill="#231F5C" d="M444.6,317.5v8.8c0,1,0.8,1.8,1.8,1.8c1,0,1.8-0.8,1.8-1.8v-8.8c0-1-0.8-1.8-1.8-1.8&#10;&#9;&#9;C445.4,315.7,444.6,316.5,444.6,317.5z"/>
	<path fill="#231F5C" d="M454.2,355.8c-1,0-1.8,0.8-1.8,1.8v5.9c0,1,0.8,1.8,1.8,1.8c1,0,1.8-0.8,1.8-1.8v-5.9&#10;&#9;&#9;C456,356.6,455.2,355.8,454.2,355.8z"/>
	<path fill="#231F5C" d="M463.8,318.3c0-1-0.8-1.8-1.8-1.8c-1,0-1.8,0.8-1.8,1.8v12.1c0,1,0.8,1.8,1.8,1.8c1,0,1.8-0.8,1.8-1.8&#10;&#9;&#9;V318.3z"/>
	<path fill="#231F5C" d="M462,335.3c-1,0-1.8,0.8-1.8,1.8v6.1c0,1,0.8,1.8,1.8,1.8c1,0,1.8-0.8,1.8-1.8v-6.1&#10;&#9;&#9;C463.8,336.1,463,335.3,462,335.3z"/>
	<path fill="#231F5C" d="M997.6,231c-0.2-3.5-2.2-6.7-4.7-7.8c-3.5-1.4-13.2-5.6-15.5-7.2c-0.9-0.6-3.2-2.2-5.9-2.7l-14.7-46.9&#10;&#9;&#9;c-0.3-0.9-1.2-1.4-2-1.2l-42.8,8.8c-0.4,0.1-0.8,0.3-1,0.6l-4.6,6c-0.4,0.5-0.5,1.1-0.3,1.7l22.1,62.2c-1.8,1.3-3.5,2.9-4.9,5&#10;&#9;&#9;c-2.6,4-3.5,8.1-2.6,12.2c0.8,3.6,2.8,6.6,4.9,8.9c-0.3,0.2-0.6,0.4-0.8,0.7c-34.9,65-92.7,107.4-100.4,112.9&#10;&#9;&#9;c-1.1-0.6-2.2-1.1-3.3-1.5c-2.7-1.1-9.3-3.4-11.6-0.8c-3.1,3.5-8.1,6.3-8.1,6.3c-0.1,0.1-0.2,0.2-0.3,0.2c-2,0.5-3.7,1.5-4.9,3&#10;&#9;&#9;c-3.1,3.8-2.4,9.5-1.9,12.1c-7.7,4.5-17.5,8.7-22.2,8.7c0,0-0.1,0-0.1,0c-7.5-0.1-12.2,0.9-14.4,1.5c-3.8-3.7-7.4-4.9-9.9-5.2&#10;&#9;&#9;c0-0.1,0-0.2,0-0.4c-0.1-0.3-1.7-8.2-7-11.5c-1.9-1.2-4-1.6-6.2-1.2v-1c0.2-0.1,0.4-0.3,0.7-0.4c4.9-3.3,9.1-7.6,12.6-12.3&#10;&#9;&#9;l26.9,13.9c0.3,0.1,0.5,0.2,0.8,0.2c0.6,0,1.3-0.3,1.6-1c0.4-0.9,0.1-1.9-0.8-2.4l-26.5-13.7c3.6-5.8,6.1-12.3,7.2-19.1&#10;&#9;&#9;c1.5-9.3,1.2-23.6,0.3-38c4.9-2.8,8.4-8.7,8.4-15.6c0-8.3-4.9-15.2-11.5-16.9c-0.9-7.9-1.8-14-2.2-16.9c23-4.2,35.8-8.3,41.5-18.5&#10;&#9;&#9;c0.3-0.5,0.3-1.1,0.1-1.6c-0.2-0.5-0.7-0.9-1.2-1l-5.3-1.2c3.7-2,7.8-5.6,6.6-11.2c-1-4.5-5.7-6.2-10.6-6.7&#10;&#9;&#9;c1.1-1.4,2.1-3.3,2.1-5.5c0-2.3-1.6-4.5-21.2-6.4c-10.3-1-22.5-1.5-28.6-1.5l-2,0c-12-0.1-44-0.4-58.9,16.1&#10;&#9;&#9;c-2.7,3.1-4.7,6.6-5.9,10.4c-4,1.8-20.4,11.9-10.5,50.4c-1.3,0.5-2.7,1.3-3.9,2.4c-4,3.6-4.9,15.1-1.9,24.2c0.9,2.7,2.2,5.1,3.6,7&#10;&#9;&#9;c-0.7,3.3-2.7,15.3,5,22.3c0.1,10.2,2.8,19.9,7.7,28c3.4,5.6,7.9,10.3,13.1,14v1.7c-2.3-0.6-6.7-1.1-10.8,1.8&#10;&#9;&#9;c-4.2,2.9-6,9.7-6.6,13.4c-1-0.3-2.2-0.4-3.3,0.1c-0.7,0.3-1.3,0.9-1.8,1.6c-1-1-2-2-3.1-2.9c-5.6-4.8-22.7-30.1-26.3-35.5&#10;&#9;&#9;c0.9-4.8-0.2-9.4-4.2-12.5c-0.1-1.7-0.6-3.2-1.4-4.6c-3.2-5.6-10.5-6.4-10.8-6.4c-0.2,0-0.3,0-0.5,0c-1.9-13.7-4.1-35-0.4-44.1&#10;&#9;&#9;c5.6-13.8,82.9-107.1,85.7-110.4c2.2-0.7,4.5-1.8,6.5-3.5c4.1-3.5,6.3-8.8,6.5-15.8c7.5-3.9,17.2-10.4,16.7-17.4&#10;&#9;&#9;c-0.2-2.7-0.9-5.3-1.9-7.8c2.2-3.8,2.3-8.8,0.4-13.8c-2-5.3-6-9.6-9.6-10.5c-4.4-1.1-7.9,0.9-9.9,2.5L694.1,116&#10;&#9;&#9;c1.7-3.6,2.6-7.6,2.6-11.8c0-15.5-12.6-28.2-28.2-28.2c-15.5,0-28.2,12.6-28.2,28.2c0,15.5,12.6,28.2,28.2,28.2&#10;&#9;&#9;c1.7,0,3.3-0.2,4.9-0.5l2.9,3.4c-3.8,4-6.5,9.3-6.4,15.6c0,3.6,0.6,6.5,1.4,8.7c0.1,1.7,0.6,16.1-4.2,23.3&#10;&#9;&#9;c-5,7.5-57.8,56.9-75.1,73.1l-3.2,3c-1.4,1.3-2.9,2.6-4.3,4c-12.5,11.3-25.4,23-24,50.1c1.2,22.6,4.7,41.9,10.6,58.4&#10;&#9;&#9;c-2.3,1.9-7.4,6.8-7.7,11.2c-0.1,1.6,0.4,3.1,1.5,4.3c9.4,9.8,11.2,13.1,11.5,14c0.6,1.7,1.8,2.9,3.6,3.8c1.9,0.9,4.3,1.3,6.8,1.3&#10;&#9;&#9;c0.1,0,0.3,0,0.4,0c4,7.2,29.3,52.5,38.2,61.7c1.3,1.4,2.7,2.5,4.2,3.3c-0.1,2.2-0.5,7.5-3.4,10.8c-4.8,0.8-10.9,4.6-18.7,11.7&#10;&#9;&#9;c-7.5,6.8-37.9,18-43.6,19.5c-4.9-2.4-9.1-0.4-12.6,1.4c-1.7,0.8-3.3,1.6-5,2c-4.8,1.1-7.2,4.6-7,10.3c0,0.1,0,0.2,0,0.3&#10;&#9;&#9;c0,0.1,0,0.2,0,0.3c-4,1.3-7.6,2.3-8.8,2.6c-0.5-3-1.1-6.5-1.7-10.2c-2.2-12.8-4.6-27.2-5.3-34.1c-3.1-28.8-8.1-45.8-15.3-51.4&#10;&#9;&#9;c-1.1-2.6-6.9-15.2-15.1-18.6c-8.8-3.7-15.7-5.3-20.9-4.9l-6.4-9.8c4.5-4.6,6.7-11.3,6.1-19.3c-0.6-8.6-4.5-17.7-10.7-25.5&#10;&#9;&#9;c-1.5-1.9-3.2-3.7-4.9-5.3v-31.3c0-1-0.8-1.8-1.8-1.8c-1,0-1.8,0.8-1.8,1.8v28.3c-7.2-5.6-15.3-8.9-22.8-8.9&#10;&#9;&#9;c-5.1,0-9.7,1.5-13.3,4.4c-5.7,4.5-8.4,11.9-7.7,20.8c0.6,8.6,4.5,17.7,10.7,25.5c8.6,10.7,20.6,17.3,31.3,17.3&#10;&#9;&#9;c1.5,0,3-0.2,4.5-0.4l7.2,11c-0.7,2-0.8,4-0.5,6.1c-2.9,1.8-12.4,8.8-8.2,22.2c2.6,8.2,11.1,24.8,24.9,29.3c2.1,0.7,4.3,1,6.4,1.1&#10;&#9;&#9;c1.6,10.8,2.1,30.3,2.5,47.6c0.2,8.7,0.4,16.9,0.7,23.6c0.6,13.1,1.8,25.4,9.6,32.2c3.9,3.4,9.1,5.1,15.8,5.1&#10;&#9;&#9;c1.3,0,2.7-0.1,4.1-0.2c14.7-1.3,29-6.2,38.1-9.9c1.7,1.7,4.4,2.7,7.6,2.7c0.2,0,0.4,0,0.6,0c3.4-0.1,10-1.6,16.1-9.8&#10;&#9;&#9;c0.7-0.9,1.2-1.9,1.6-2.9c12.5-3.5,22.8-7.1,31.2-10.7c-0.6,4.9-1.9,14.1-3.1,18.7c-7,4.4-15.6,9-19.4,10.1&#10;&#9;&#9;c-0.3,0.1-0.6,0.3-0.8,0.6c-5.3-1.9-9.8,1-10.7,1.6c-2.1-0.8-4.4-1.6-7.2-2.3c-2.5-0.7-4.8-0.4-6.9,1c-5.1,3.2-7.4,11.7-8,14.6&#10;&#9;&#9;c-23,9.2-33.9,22.8-32.5,40.3c1.7,21.7,48.4,36.8,73.4,44.9c5.6,1.8,10,3.2,11.8,4.1c9.2,4.3,38.1,16.8,42.6,18.7&#10;&#9;&#9;c4.3,8.6,12,14.9,21.7,17.2c4.5,1.1,9.4,1.7,14,1.7c5.5,0,10.6-0.8,14.2-2.6l0.7,2.2c0.1,0.3,0.2,0.5,0.4,0.7l9.7,9.4&#10;&#9;&#9;c0.3,0.3,0.8,0.5,1.2,0.5c0.2,0,0.5,0,0.7-0.1c0.7-0.3,1.1-0.9,1.1-1.6v-13.9c0-0.2,0-0.4-0.1-0.6l-6.9-17.4&#10;&#9;&#9;c-0.2-0.9-0.5-1.7-1-2.4l-1-2.5c3-0.3,5.4-1.2,7-2.9c2.1-2.2,2-4.8,2-5.1c0-0.3-0.1-0.6-0.3-0.9c-0.2-0.3-5.7-8-18-14.8l-7.4-18.7&#10;&#9;&#9;c-0.1-0.3-0.4-0.6-0.7-0.8c-0.4-0.2-3.5-2.1-6.1-0.7c-1.6,0.8-2.5,2.6-2.7,5.2c0,0.2,0,0.4,0.1,0.7l3.6,10.9&#10;&#9;&#9;c-5.5-0.3-10.9,0.4-15,1.2c-0.1-0.1-0.2-0.2-0.3-0.2c-0.9-0.4-2-0.8-3.2-1.3c-8.2-3.3-24.7-9.8-42.7-21.2&#10;&#9;&#9;c35.2-1.9,72-2.2,107.4-0.8l1.6,21.8c0,0,0,0.1,0,0.1c0.3,5.3,12,7.7,22.9,7.7c11,0,22.9-2.5,22.9-7.9c0-0.3-0.1-0.5-0.2-0.7&#10;&#9;&#9;c1.4,0.3,5.3,0.9,10.1,0.9c7.7,0,17.7-1.6,23.7-8.8c6.5,1.3,41.5,8.1,72.6,8.1c4,0,7.9-0.1,11.7-0.4c14.8-1,25.6-5.2,32-12.6&#10;&#9;&#9;c6.1-7,6.8-15.3,6.3-21c-0.9-11.2-9.9-18.7-27.3-22.9c-7.2-1.8-21.7-4.8-33.2-7.3c0.1-2-0.4-5.4-3.7-9.1c-1.6-1.9-5.4-3.8-9.4-4&#10;&#9;&#9;c-1.7-0.1-3.4,0.2-4.9,0.7c-1.5-1-4.5-2.5-8.3-2.1c-2.5,0.3-4.9,1.4-7.2,3.3c-19.4-2.2-38.3-11.6-43.6-16.4&#10;&#9;&#9;c-4.6-4.1-13.2-7.2-16.1-8.2c-0.4-1.9-0.8-3.7-1-5.5c-0.7-4.5-1.5-9.9-2.2-15.8l50.2,17.2c0.5,1.4,1.2,2.8,1.9,4&#10;&#9;&#9;c2.9,4.8,7.9,5.8,11.7,5.8c1.7,0,3.1-0.2,4-0.4c1.7,1.4,3.9,2.5,6.9,2.9c0.5,0.1,0.9,0.1,1.4,0.1c5.1,0,7.8-4.3,8.9-7.6&#10;&#9;&#9;c15.7,3.8,42.4,10.3,50.8,12.2c2.6,0.6,5.5,0.9,8.5,0.9c11.7,0,25.3-5.2,33.2-20.2c10-19,25.2-59.6,29.7-83.5c0-0.1,0-0.3,0-0.4&#10;&#9;&#9;c5.1-5.4,7-13.1,5.4-22.5c-0.4-2.4-1.4-5-2.6-7.5c4.9-15.4-4-29.1-4.4-29.7c-0.2-0.3-0.5-0.5-0.8-0.6l9.8-35.3&#10;&#9;&#9;c0.2-0.6,0-1.3-0.5-1.7c0,0-1.4-1.3-3.8-2.7l1.1-4.3c0.2-0.9-0.3-1.8-1.1-2.1c-1.7-0.6-3.4-1.1-5-1.4l0.6-2.5&#10;&#9;&#9;c0.1-0.5,0-0.9-0.2-1.3c-0.2-0.4-0.6-0.7-1.1-0.8c-24.2-5.5-40.7,9.8-44,13.1c-8.1-3.6-21.3-7.8-37.3-7&#10;&#9;&#9;c17.5-17.6,49.4-74.5,54.5-83.7c0.7,0.1,1.3,0.1,2,0.1c5,0,9.7-1.9,12.6-3.8c5.3-3.6,11.8-14.4,17.4-24.3l1.3-2.3&#10;&#9;&#9;c3-5.2,0.7-11.4-0.7-14.2c1-0.6,2.8-1.7,5.6-3.4C996.2,238,997.8,234.7,997.6,231z M909.6,182l3.6-4.7l40.6-8.3l14,44.4&#10;&#9;&#9;c-0.1,0-0.1,0-0.2,0c-2.3,0.7-4,2.6-5,5.5c-0.4,1.2-0.5,2.4-0.3,3.5L951,183.6c-0.3-0.9-1.2-1.4-2.1-1.2l-31.7,7&#10;&#9;&#9;c-0.5,0.1-0.9,0.4-1.2,0.9c-0.2,0.5-0.3,1-0.1,1.5l18.2,47.2c0.3,0.7,0.9,1.1,1.6,1.1c0.1,0,0.2,0,0.4,0l27.6-5.7&#10;&#9;&#9;c0.5-0.1,0.9-0.4,1.2-0.8c0.3-0.4,0.3-0.9,0.2-1.4l-2.3-7.9c0.1,0.2,0.1,0.4,0.2,0.5c1.7,3.2,5.8,5.7,10.8,7.7l2.2,7.1&#10;&#9;&#9;c0.2,1.2,1,11-10.3,12.9c-4.7,0.8-8.7,1.5-11.9,2.1c0,0,0,0,0,0c-3.8,0.7-6.6,1.3-8.2,1.6c-0.2-0.8-0.4-1.5-0.5-1.9&#10;&#9;&#9;c6.4-2.9,9.3-8.4,9.4-8.7c0.2-0.4,0.3-1,0.1-1.4c-0.2-0.5-0.5-0.8-1-1c-0.2-0.1-12.3-4.7-22.3-0.4L909.6,182z M961.1,231.3l-24.2,5&#10;&#9;&#9;L920,192.4l28.1-6.2L961.1,231.3z M798.8,393.7c1.4-1.8,4-2.5,7.7-2.1c1,0.1,1.8-0.6,1.9-1.6c0.1-0.7-0.3-1.4-0.9-1.7&#10;&#9;&#9;c1.5-1.1,3.1-2.5,4.4-4c0.9-0.5,5.5,0.1,11.7,3.4c0,0,0,0,0,0c0.9,0.5,1.9,1.1,2.9,1.7c6.7,4.3,22.2,16.8,21.4,41.3&#10;&#9;&#9;c-1.8,1.8-7.2,7.4-8.6,9.5c-0.8,1.2-2.9,3.4-5.4,3.6c-1.1,0.1-2.3-0.3-3.4-1.2c1-0.7,1.8-1.4,2.5-1.9c0,0.1,0,0.1,0,0.2&#10;&#9;&#9;c0.1,0.9,0.8,1.6,1.8,1.6c0,0,0.1,0,0.1,0c1-0.1,1.7-0.9,1.6-1.9c-3.3-42.6-36.5-45-36.9-45c-1-0.1-1.8,0.7-1.9,1.7&#10;&#9;&#9;c-0.1,1,0.7,1.8,1.7,1.9c0,0,0.4,0,1.1,0.1c-1,0.7-2.1,1.5-3.2,2.3C797.1,399.1,797.1,395.8,798.8,393.7z M851.3,424.1l15.5-15.1&#10;&#9;&#9;l-7.8,93.2c-0.1,0.7,0.3,1.4,1,1.7c0.3,0.1,0.5,0.2,0.8,0.2c0.4,0,0.8-0.1,1.1-0.4c11.2-9.7,24.5-14.6,39.5-14.6&#10;&#9;&#9;c11.7,0,20.1,3.1,20.2,3.2c0.5,0.2,1,0.1,1.4-0.1c0.4-0.2,0.8-0.6,0.9-1.1l0.6-2.2c2.7-1.2,12.6-5,23.4-3c-4,8.2-12,24.6-16.1,32.8&#10;&#9;&#9;c-1,2-2.7,4.4-4.5,7c-1.7,2.4-3.4,4.9-5,7.6c-15.7-1.7-37.8-6.8-50.7-10c0.3-2.4,0.7-6.6-0.4-8.8c-1.1-2.2-3.4-3.8-6.5-4.4&#10;&#9;&#9;c-2.3-0.4-4.7-0.3-7,0.2c-0.2-0.2-0.4-0.3-0.7-0.4c-4.3-1.2-8.8-0.5-13.1,2c-0.5,0.3-0.9,0.6-1.4,0.9c-10.8-3.4-56.9-15.3-65-17.4&#10;&#9;&#9;c-0.3-2.3-0.5-4.6-0.7-6.7c9.8-11.4,37.5-33.2,51-43.6c1.9,1.7,3.8,2.5,6,2.5c0.2,0,0.4,0,0.6,0c4.7-0.3,7.7-4.6,8-5.1&#10;&#9;&#9;c1.2-1.8,6.7-7.4,8.7-9.5c0.3-0.3,0.5-0.7,0.5-1.2C851.6,429,851.5,426.5,851.3,424.1z M870.7,404.4&#10;&#9;&#9;C870.7,404.4,870.7,404.4,870.7,404.4l1.3-15.1v0c4-1.7,19.5-7.4,38.2-7.4c13.1,0,25.1,2.8,35.6,8.3l-24.7,98&#10;&#9;&#9;c-3.2-1-10.4-2.8-19.6-2.8c-14.2,0-27.5,4.4-38.6,12.8L870.7,404.4z M771.8,415.8c0.1,0,0.1,0,0.2,0c8.4,0,26.3-9.5,33-15.5&#10;&#9;&#9;c8.4,2.5,24.1,10.6,27.7,36.4c-4.2,3.1-29.7,22.5-46.8,37.8c6.1-12.5,15.2-28.3,15.3-28.5c0.5-0.8,0.2-1.9-0.6-2.4&#10;&#9;&#9;c-0.8-0.5-1.9-0.2-2.4,0.6c-0.6,1-13.9,24.1-19,36.6c-1,1-2,2-2.8,2.9c-0.1-1.5-0.2-2.6-0.3-3.2c0.2-0.3,0.4-0.6,0.5-0.9&#10;&#9;&#9;c1.9-4.4-0.7-7.7-3-9.2c0.2-17.1-3.3-36.1-8.8-46.5c-1.5-2.9-3.1-5.1-4.6-7.1C762.5,416.3,766.3,415.7,771.8,415.8z M745.1,476.8&#10;&#9;&#9;c6-0.6,19.6-2.1,26.4-3.6c1,0.6,3,2.3,1.8,4.9c-1.7,3.8-5.5,4.6-10.7,4.6l-0.2,1.8v-1.8C756.2,482.8,748.3,479.9,745.1,476.8z&#10;&#9;&#9; M762.4,486.3c0,0,0.2,0,0.2,0c3.5,0,7.3-0.4,10.2-2.3c0.5,5.3,1.4,14.9,2.6,21.2c1.2,6.5,1.2,13.9-8.1,18.9&#10;&#9;&#9;c-7.3,3.9-15.9,4.5-21.8,1.5c-4-2.1-6.5-5.6-7.1-10.4c-1.6-12,0.9-30.2,1.7-35.5h3.1C747.7,483.7,756.6,486.3,762.4,486.3z&#10;&#9;&#9; M738.7,399.8c3.1,1.9,4.7,6.6,5.2,8.4L729,427.4c-1.1-4.7-3.5-12.2-8.4-15.3c4.2-2.4,11.2-6.4,15.2-8.2c0.9-0.4,1.3-1.5,0.8-2.3&#10;&#9;&#9;c-0.4-0.9-1.4-1.2-2.3-0.9v-1.5C736,398.8,737.4,399,738.7,399.8z M715.7,410.8c-1.6,0.2-3,1.1-4,2.1c-1.3-1.5-2.8-2.3-3-2.5&#10;&#9;&#9;c0,0-0.1,0-0.1,0c-0.1,0-0.1-0.1-0.1-0.1c-0.2-0.1-15.4-5.7-23.5-9v-5.6c4.2,2.4,8.8,4.2,13.7,5.3c3.4,0.7,6.8,1.1,10.2,1.1&#10;&#9;&#9;c7.7,0,15.1-1.9,21.9-5.6v5.7C725,405.4,717.3,409.9,715.7,410.8z M762,306.1c0,4.9-2.1,9.2-5.2,11.6c-0.3-4.7-0.8-9.3-1.2-13.7&#10;&#9;&#9;c0.2-0.5,0.1-1.1-0.2-1.5c-0.3-3.3-0.7-6.5-1-9.5C758.8,294.9,762,300,762,306.1z M752.1,304.6c0.5,4.8,0.9,9.8,1.3,14.9&#10;&#9;&#9;c-0.8,0.2-1.6,0.4-2.5,0.4c-6.1,0-11.1-6.2-11.1-13.8c0,0,0,0,0,0c0-7.6,4.9-13.7,10.9-13.8c0.3,2.7,0.6,5.6,0.9,8.5&#10;&#9;&#9;c-5.5-1.2-8.8,1-8.9,1.1c-0.8,0.6-0.9,1.6-0.4,2.4c0.6,0.8,1.7,1,2.4,0.4c0.1,0,0.6-0.4,1.6-0.6c-0.5,0.8-0.9,1.7-0.9,2.8&#10;&#9;&#9;c0,2.3,1.5,4.2,3.3,4.2c1.8,0,3.3-1.9,3.3-4.2c0-1-0.3-1.9-0.7-2.6C751.6,304.4,751.9,304.5,752.1,304.6z M714.6,286.4&#10;&#9;&#9;c-10,0-18.3,7.6-19.5,17.3h-19.5c8.7-7.4,8.7-22.2,8.3-27.6c8.6,0.1,43.7,0,64.3-3.3c0.2,1.3,0.5,3.4,0.8,5.9&#10;&#9;&#9;c-1.1-0.5-2.2-0.9-3.4-0.9c-4.8-0.2-8.8,3.6-8.9,3.8c-0.7,0.7-0.7,1.8,0,2.5c0.7,0.7,1.8,0.7,2.5,0c0,0,3-2.9,6.3-2.7&#10;&#9;&#9;c1.5,0.1,2.9,0.8,4.2,2.3c0.2,1.6,0.4,3.3,0.6,5.1c-7.4,0.3-13.5,7.3-14,16c-1.4,0.4-2,0.2-2.1,0.2c0-0.1-0.1-0.2-0.1-0.3&#10;&#9;&#9;C733.5,294.5,725,286.4,714.6,286.4z M730.7,306.1c0,8.9-7.2,16.1-16.1,16.1c-8.9,0-16.1-7.2-16.1-16.1c0-8.9,7.2-16.1,16.1-16.1&#10;&#9;&#9;C723.5,289.9,730.7,297.2,730.7,306.1z M667.2,250c-0.5,3.3-0.5,6.8-0.1,10.5c0.1,0.9,0.9,1.6,1.7,1.6c0.1,0,0.1,0,0.2,0&#10;&#9;&#9;c1-0.1,1.7-1,1.5-2c-1.1-9.4,1-17.1,6.3-23c13.8-15.3,45.7-15,56.2-14.9l2,0c13.8,0,42.6,2.2,46.3,4.8c-0.2,2.3-2.3,4.2-3.2,4.9&#10;&#9;&#9;c-3.4,0-6.3,0.5-7,0.6c-1,0.2-1.6,1.1-1.5,2c0.1,1,1.1,1.6,2,1.5c4.4-0.7,17.1-1.5,18.2,3.6c1.2,5.5-7,8.5-8.9,9.1l-5.1-1.2&#10;&#9;&#9;c-0.9-0.2-1.9,0.4-2.1,1.3c-0.2,0.9,0.4,1.9,1.3,2.1l13.7,3.2c-5.8,7.8-18.2,11.3-39.4,15c-22.7,4-67,3.5-67.4,3.5&#10;&#9;&#9;c-0.5,0-1,0.2-1.3,0.6c-0.3,0.4-0.5,0.9-0.4,1.4c0,0.2,2.4,20.8-8.7,27.7c-2.3-3.2-5.9-6.9-10.3-7.2&#10;&#9;&#9;C653.5,265.1,662.1,253.8,667.2,250z M660.8,346.2c-2.7-4.5-2.6-10.1-2.1-13.7c1.2,1,2.5,1.8,3.9,2.5&#10;&#9;&#9;C661.6,338.8,661.1,342.5,660.8,346.2z M671.4,377.7c-7.1-11.6-9-26.7-5.5-41.5c0.8,0.2,1.6,0.3,2.5,0.4c0,0,0.1,0,0.1,0&#10;&#9;&#9;c0.9,0,1.7-0.7,1.8-1.6c0.1-1-0.6-1.8-1.6-1.9c-7.9-0.6-11.6-6.9-13.3-12c-2.9-8.7-1.5-18.3,0.9-20.4c1.3-1.2,2.6-1.9,3.9-2&#10;&#9;&#9;c5-0.6,9.8,7,11.2,10c0.4,0.9,1.5,1.3,2.3,0.8c0.8-0.4,1.2-1.3,0.9-2.2H695c0.6,10.3,9.2,18.5,19.6,18.5c10,0,18.3-7.5,19.5-17.2&#10;&#9;&#9;c0.3,0,0.5,0.1,0.8,0.1c0.5,0,1-0.1,1.6-0.2c1,8.4,7.1,15,14.4,15c0.9,0,1.8-0.1,2.7-0.3c0.4,6.5,0.7,13,0.7,18.9&#10;&#9;&#9;c-0.6-0.7-1.6-1.4-2.9-1.8c-10.5-3.4-11.6-16.1-11.6-16.3c-0.1-1-0.9-1.7-1.9-1.6c-1,0.1-1.7,0.9-1.6,1.9c0,0.6,1.3,15.2,14,19.3&#10;&#9;&#9;c1.8,0.6,1.6,1.3,1.4,1.8c-0.7,2.3-5.2,5.6-8.5,4.8c-0.9-0.2-1.9,0.3-2.1,1.3c-0.2,0.9,0.3,1.9,1.3,2.1c0.6,0.2,1.3,0.2,1.9,0.2&#10;&#9;&#9;c3.9,0,8-2.6,9.9-5.6c-0.1,4.2-0.4,8-0.9,11.1c-1.1,6.5-3.4,12.6-6.9,18.1l-12-6.2c1.1-0.7,2.1-1.1,2.2-1.2c0.4-0.2,0.8-0.5,1-0.9&#10;&#9;&#9;c0.2-0.4,0.2-0.9,0-1.3l-2.1-5.3c-0.4-0.9-1.4-1.4-2.3-1c-0.9,0.4-1.4,1.4-1,2.3l1.5,3.8c-2.5,1.4-7,4.7-6.3,10.5&#10;&#9;&#9;c0.1,0.9,0.9,1.5,1.7,1.5c0.1,0,0.2,0,0.2,0c1-0.1,1.6-1,1.5-2c-0.2-1.5,0.2-2.7,0.8-3.7l12.6,6.5c-3.2,4.3-7,8-11.4,11&#10;&#9;&#9;c-9.9,6.7-21.8,9-33.6,6.4C687.4,395,677.7,388.1,671.4,377.7z M672.7,399.9c3.7-2.5,7.7-1.4,8.8-1v1c-0.1,0-0.2-0.1-0.3-0.1&#10;&#9;&#9;c-0.9-0.4-1.9,0-2.3,0.9c-0.4,0.9,0,1.9,0.9,2.3c4.1,1.8,17.7,7,24.1,9.4c-4.6,3.9-10.7,12.3-13.8,16.7l-22.8-16.9&#10;&#9;&#9;C667.8,408.8,669.4,402.2,672.7,399.9z M715.6,130.3c2.5,0.6,5.6,4.2,7.2,8.3c1.1,2.9,1.4,5.8,0.8,8.3c-3.6-6.2-9.1-11.3-14.8-14.9&#10;&#9;&#9;C710.3,130.9,712.7,129.6,715.6,130.3z M700.4,128c-2.2-0.7-4.3-1.1-6-1.1c-0.1,0-0.3,0-0.4,0c-4.8,0.2-10.5,2.4-15.1,6.1l-1.6-1.9&#10;&#9;&#9;c6.3-2,11.6-6.3,15.1-11.8L700.4,128z M668.5,128.9c-13.6,0-24.6-11.1-24.6-24.6s11.1-24.6,24.6-24.6c13.6,0,24.6,11.1,24.6,24.6&#10;&#9;&#9;S682.1,128.9,668.5,128.9z M563.9,312.9c-1.4-25.4,10.4-36.1,22.9-47.3c1.5-1.3,2.9-2.6,4.4-4l3.2-3c30.2-28.3,71-66.6,75.7-73.7&#10;&#9;&#9;c3.5-5.3,4.6-13.6,4.8-19.4c1.1,1.1,2,1.6,2.1,1.6c0.9,0.4,1.9,0,2.3-0.8c0.4-0.9,0-1.9-0.8-2.3c-0.2-0.1-4.8-2.6-5-13.1&#10;&#9;&#9;c-0.1-6,2.6-10.7,6.3-14.1c0,0,0,0,0,0c0,0,0,0,0,0c4.4-4,10.2-6.2,14.3-6.4c7.9-0.3,28.7,11.9,30,28.9c0.4,4.6-7.7,10.3-15.5,14.4&#10;&#9;&#9;c-0.1,0-0.1,0.1-0.2,0.1c-2.4,1.2-4.7,2.3-6.8,3.1c-0.9,0.4-1.3,1.4-1,2.3c0.3,0.7,0.9,1.1,1.6,1.1c0.2,0,0.4,0,0.7-0.1&#10;&#9;&#9;c0.6-0.2,2.2-0.9,4.4-1.9c-0.5,5-2.2,8.8-5.1,11.3c-5.6,4.8-14,3.7-14.1,3.7c-0.9-0.1-1.9,0.5-2,1.5c-0.1,1,0.5,1.9,1.5,2&#10;&#9;&#9;c0.1,0,1.3,0.2,2.9,0.2c0.6,0,1.3,0,2-0.1c-14.4,17.5-78.2,95-83.5,108.1c-6,14.7,1.9,56.7,2.2,58.5c0.1,0.3,0.2,0.6,0.4,0.8&#10;&#9;&#9;c-5.1,8.3-20.2,16.2-30,18.4c-0.8,0.2-1.5,0.3-2.2,0.4C570.6,364.2,565.4,341.3,563.9,312.9z M581.4,401.6c-0.9-0.4-1.5-1-1.8-1.8&#10;&#9;&#9;c-0.3-1-1.3-3.9-12.3-15.3c-0.4-0.4-0.6-0.9-0.5-1.6c0.2-2.3,3-5.6,5.5-7.9c1.1,2.8,2.2,5.5,3.5,8.1c-2.7-0.1-3.7-0.9-3.9-1.4&#10;&#9;&#9;c-0.2-0.9-1-1.6-2-1.4c-1,0.1-1.6,1-1.5,2c0,0.3,0.3,1.8,2,3c1.4,1,3.3,1.5,5.8,1.5c0.5,0,1.2-0.1,1.8-0.1c0.2,0.1,0.4,0.1,0.6,0.1&#10;&#9;&#9;c0.3,0,0.5-0.1,0.8-0.2c0,0,0.1-0.1,0.1-0.1c1-0.1,2-0.3,3-0.5c11-2.5,31.8-12.9,34.2-24.8c0.2-1-0.4-1.9-1.4-2.1&#10;&#9;&#9;c-0.4-0.1-0.8,0-1.2,0.2c-0.3-1.5-0.6-3.3-0.9-5.5c1.3,0.2,5.8,1.2,7.7,4.6c1.5,2.7,1.2,6.5-1.1,11.3c-0.4,0.9,0,1.9,0.8,2.3&#10;&#9;&#9;c0.2,0.1,0.5,0.2,0.8,0.2c0.7,0,1.3-0.4,1.6-1c0.9-1.9,1.5-3.7,1.9-5.4c1.5,2,1.6,4.5,1.3,6.7c-0.5,0.5-0.6,1.2-0.4,1.9&#10;&#9;&#9;c-0.7,2.7-1.9,4.8-2.2,5.3c-3,5.1-15.9,17.4-25.7,20.9C592.8,402.4,585,403.3,581.4,401.6z M627.9,465.3&#10;&#9;&#9;c-8-8.3-31.1-49.3-36.9-59.5c3.1-0.4,6-1.2,8.1-1.9c10.7-3.9,24.2-16.9,27.5-22.5c0.6-1.1,1.2-2.2,1.6-3.3&#10;&#9;&#9;c5.6,8.4,19.9,29.2,25.3,33.8c1.6,1.3,3,2.7,4.2,4.2c0.1,0.7,0.5,1.2,1.1,1.4c7.4,10.2,6.9,23.4-2,36c-7.2,10.2-13.8,15.6-19.6,16&#10;&#9;&#9;C633.9,469.8,630.9,468.4,627.9,465.3z M450.6,403.3c-9.7,0-20.6-6.1-28.5-16c-5.8-7.3-9.4-15.6-10-23.6c-0.6-7.7,1.7-14,6.4-17.8&#10;&#9;&#9;c3-2.4,6.8-3.7,11.1-3.7c9.7,0,20.6,6.1,28.5,16c5.8,7.3,9.4,15.6,10,23.6c0.5,7.3-1.5,13.4-5.8,17.2c0,0,0,0,0,0&#10;&#9;&#9;c-0.1,0-0.1,0.1-0.2,0.2c-0.2,0.1-0.3,0.3-0.4,0.4C458.7,402.1,454.9,403.3,450.6,403.3z M458.6,405.4c1.5-0.6,3-1.3,4.3-2.2&#10;&#9;&#9;l5.4,8.2c-1.6,0.6-3,1.4-4,2.6L458.6,405.4z M517.2,580.9c-7.7,0.7-13.4-0.6-17.3-4c-6.7-5.8-7.8-17.4-8.4-29.7&#10;&#9;&#9;c-0.3-6.6-0.5-14.8-0.7-23.5c-0.4-17.2-0.9-36.7-2.5-47.8c4.4-0.6,8.8-2.6,13.2-5.8c0.8-0.6,0.9-1.7,0.4-2.5&#10;&#9;&#9;c-0.6-0.8-1.7-0.9-2.5-0.4c-6.8,5-13.5,6.5-20,4.4c-11.6-3.8-19.9-18.2-22.7-27c-3.1-9.9,2.7-15.4,5.7-17.5&#10;&#9;&#9;c1.6,4.7,4.6,9.1,6.8,12.4c0.9,1.4,1.7,2.6,2.1,3.3c0.6,1.2,1.6,1.9,2.8,1.9c0.3,0,0.6,0,0.9-0.1c2.3-0.6,4.5-3.5,5.2-7.2&#10;&#9;&#9;c0.8,0.1,1.6,0.2,2.4,0.2c2,0,3.8-0.3,5.2-0.7c2.4,2.3,10.2,10.2,10.2,16.8c0,2.1-0.9,3.9-2.6,5.3c-0.7,0.6-0.8,1.7-0.2,2.5&#10;&#9;&#9;c0.3,0.4,0.8,0.6,1.3,0.6c0.4,0,0.8-0.1,1.1-0.4c2.5-2.2,3.8-4.8,3.8-8c0-7.1-6.6-14.7-10-18.2c0.9-0.5,1.2-1.5,0.7-2.4&#10;&#9;&#9;c-0.4-0.9-1.5-1.2-2.4-0.7c-0.1,0-4.6,2.3-9.4,1.5c0,0,0,0,0-0.1c-0.3-2.9-1.4-5.8-3.4-8.5c-0.6-0.8-1.7-1-2.5-0.4&#10;&#9;&#9;c-0.8,0.6-1,1.7-0.4,2.5c1.6,2.2,2.5,4.5,2.7,6.8c0.4,4.1-1.7,6.6-2.6,7.1c-0.5-0.9-1.2-2-2.2-3.5c-3.5-5.1-9.3-13.6-6.5-19.6&#10;&#9;&#9;c3.4-7.2,17.5-2.5,25.7,0.9c5.1,2.1,9.3,8.9,11.5,13.3c-0.1,0-0.1,0-0.2,0c-0.9-0.1-1.8,0.6-1.9,1.6c-0.1,1,0.6,1.8,1.6,1.9&#10;&#9;&#9;c4.4,0.4,12.6,7.5,17.2,50.5c0.8,7,3.2,21.5,5.4,34.3c1.2,7.3,2.3,13.5,2.9,17.4c1.4,9.5-3.1,14.8-3.3,15h0&#10;&#9;&#9;c-0.6,0.7-0.6,1.8,0.1,2.5c0.3,0.3,0.8,0.5,1.2,0.5c0.5,0,1-0.2,1.3-0.6c0.2-0.3,5.9-6.6,4.2-17.9c-0.2-1.1-0.4-2.3-0.6-3.7&#10;&#9;&#9;c1.2-0.3,12.5-3.4,19.6-6.5c3.3,4.7,15.2,23.3,12.9,40.2C559,569.3,538.2,579,517.2,580.9z M577.2,565.3&#10;&#9;&#9;c-5.3,7.1-10.7,8.3-13.5,8.4c-1.8,0.1-3.2-0.3-4.3-0.8c3.7-1.6,6-2.8,6.3-2.9c0.5-0.3,0.8-0.7,0.9-1.3c3.6-21.2-13.5-44-14.2-45&#10;&#9;&#9;c-0.5-0.7-1.4-0.9-2.2-0.5c-2.1,1-4.9,2-7.6,3c0-2.7,0.6-5.5,4.3-6.3c0.4-0.1,0.8-0.2,1.3-0.4c1.4,0,8.2,0.6,11.6,7.3&#10;&#9;&#9;c0.3,0.6,0.9,1,1.6,1c0.3,0,0.5-0.1,0.8-0.2c0.9-0.4,1.2-1.5,0.8-2.4c-2.4-4.7-6.1-7-9.2-8.1c4.1-2,7.4-3,12.1,1.9&#10;&#9;&#9;C574.1,527.6,584.8,555.1,577.2,565.3z M582.8,560.5c2.7-14.3-7.4-36.6-14.5-43.9c-0.3-0.3-0.6-0.6-0.9-0.9&#10;&#9;&#9;c9.8-3.2,35.2-13,42.3-19.4c11.4-10.2,16.8-11.5,19.5-10.8c12.4,3.5,15,20.7,15,34.5c0,5.7-3.4,14.7-20.6,24.5&#10;&#9;&#9;c-0.1,0.1-0.3,0.1-0.4,0.2c-2.6,1.5-5.5,2.9-8.7,4.4c-0.1,0-0.1,0.1-0.2,0.1C606.1,552.9,595.8,556.7,582.8,560.5z M612.2,574.9&#10;&#9;&#9;C612.3,574.9,612.3,574.9,612.2,574.9c2.5-1.6,4.7-3.1,6.3-4.3c3.8-2.9,8.4-4.1,12.3-3.2c3.9,0.9,7,3.9,9.3,8.8&#10;&#9;&#9;c6.4,13.6,4,42-3.9,46.2c-8.1,4.2-24.3,12.6-28.5,14.7c-0.5-0.4-0.9-0.7-1.4-1.1c6.7-24.9-5.8-44.4-13.4-50.8&#10;&#9;&#9;C598,583.3,605.9,578.9,612.2,574.9z M566.6,586.3c1.3-0.8,2.6-1,4.1-0.6c9.4,2.6,15,5.9,15,5.9c0.8,0.5,1.9,0.2,2.4-0.6&#10;&#9;&#9;c0.5-0.8,0.2-1.9-0.6-2.4c-0.1-0.1-1.6-1-4.4-2.2c1.5-0.5,3.5-0.8,5.7,0.2c4.1,1.8,21,20.4,14.5,47.1c-1.3-1-2.5-1.8-3.7-2.7&#10;&#9;&#9;c0.6-3.4,1.9-13.5-0.2-21.5c-0.3-0.9-1.2-1.5-2.2-1.2c-0.9,0.3-1.5,1.2-1.2,2.2c1.7,6.3,0.9,14.4,0.4,18.5c-1.4-0.9-2.7-1.6-4-2.4&#10;&#9;&#9;c2.2-33.1-23.2-38.1-23.4-38.1c-1-0.2-1.9,0.5-2,1.4c-0.2,1,0.5,1.9,1.4,2c0.2,0,1.6,0.3,3.5,1.1c-4,1.1-7.7,2.2-11.1,3.5&#10;&#9;&#9;C561.7,592.9,563.7,588.1,566.6,586.3z M707.4,707.6l4.8,12.1v9.4l-6.4-6.2l-0.9-2.7c0.9-0.8,1.6-1.7,2-2.8&#10;&#9;&#9;c1.1-2.6,1.2-4.8,0.1-6.5c-0.4-0.6-0.8-1-1.3-1.4C706.4,709,707,708.3,707.4,707.6z M712.2,689.1c-0.1,0.5-0.3,1.2-1,2&#10;&#9;&#9;c-1.1,1.2-3.1,1.8-5.8,1.9l-5.9-14.8C706.9,682.9,711.1,687.7,712.2,689.1z M684,657.6c0.1-1,0.4-1.8,0.8-2c0.5-0.2,1.4,0,2.2,0.3&#10;&#9;&#9;l7.1,18c0,0.4,0.2,0.8,0.4,1.1l7.6,19.1c-2.4-1.8-5.2-4-7.9-6.1l-5.8-17.3l0,0L684,657.6z M663.5,671.8c-0.8,0.2-1.2,0.4-1.3,0.4&#10;&#9;&#9;c-0.9,0.3-1.4,1.3-1.1,2.2c0.2,0.7,0.9,1.2,1.7,1.2c0.2,0,0.4,0,0.5-0.1c0.1,0,11.5-3.7,22.2-2.7l3.8,11.4&#10;&#9;&#9;c-2.1-1.6-3.5-2.7-3.6-2.8c-0.8-0.6-1.9-0.5-2.5,0.3c-0.6,0.8-0.5,1.9,0.3,2.5c0.2,0.1,16.9,13.1,20.8,16c0.2,0.1,0.3,0.3,0.4,0.5&#10;&#9;&#9;l0.6,1.5c0.1,0.8,0,1.8-0.4,2.7c-0.4,0.9-2,3.9-6.2,3.4l-9.1-9c-0.7-0.7-1.8-0.7-2.5,0c-0.7,0.7-0.7,1.8,0,2.5l9.5,9.4&#10;&#9;&#9;c0.3,0.3,0.6,0.4,0.9,0.5c0.7,0.1,1.4,0.2,2,0.2c0.6,0,1.2-0.1,1.7-0.2c0.2,0.1,0.4,0.1,0.6,0.1c0.4,0,1.7,0.2,2.2,1&#10;&#9;&#9;c0.4,0.6,0.3,1.7-0.4,3.2c-2.2,5.1-16.2,6.9-29.2,3.7c-9-2.2-15.8-7.8-19.6-15.8c0,0,0-0.1,0-0.1c-1.1-2.4-2-4.9-2.5-7.7&#10;&#9;&#9;c-0.2-1-1.1-1.6-2.1-1.4c-1,0.2-1.6,1.1-1.4,2.1c0.3,1.5,0.7,3,1.2,4.4c-9.1-3.9-31.4-13.5-39.2-17.2c-2.1-1-6.3-2.3-12.2-4.2&#10;&#9;&#9;c-22.6-7.3-69.5-22.5-71-41.8c-1.5-19.7,14.6-34,48-42.4c0.2-0.1,0.4-0.2,0.6-0.3c6.1,4,13.4,12.3,12.7,29.5&#10;&#9;&#9;c-18.3-9-30.5-6.1-31.1-5.9c-0.9,0.2-1.5,1.2-1.3,2.1c0.2,0.9,1.2,1.5,2.1,1.3c0.2,0,19.2-4.4,44.9,16.1&#10;&#9;&#9;C627.3,657.2,652.1,667.3,663.5,671.8z M618,644.5c-2.4-1.6-4.7-3.3-7.1-5c3.6-1.9,10.7-5.5,17.2-8.9c2,0.7,3.9,1,5.8,1&#10;&#9;&#9;c10.5,0,18.1-10.1,21-16.5c0.4-0.9,0-1.9-0.9-2.3c-0.9-0.4-1.9,0-2.3,0.9c-0.3,0.7-7.2,15.2-18.7,14.4c1.8-0.9,3.5-1.8,4.9-2.5&#10;&#9;&#9;c10.9-5.7,11.6-37.7,5.5-50.8c-3.5-7.4-8.3-9.9-11.7-10.7c-4.9-1.2-10.6,0.2-15.2,3.8c-0.8,0.6-1.6,1.2-2.5,1.8&#10;&#9;&#9;c1.2-6.1,2.3-14.7,2.7-17.6c2.9-1.4,5.6-2.7,8-4.1c0.7,0.1,1.7,0.2,3,0.2c4.4,0,11.9-1.4,19.6-9.4c0.7-0.7,0.6-1.8-0.1-2.5&#10;&#9;&#9;c-0.7-0.7-1.8-0.6-2.5,0.1c-5.4,5.6-10.5,7.6-14.3,8.1c13.5-9,17.3-17.7,17.3-24.5c0-21.4-6-34.5-17.4-37.8&#10;&#9;&#9;c1.9-3.3,2.5-7.1,2.7-9.5c1.2,0.3,2.3,0.5,3.5,0.5c0.3,0,0.7,0,1,0c0.1,0,0.2,0,0.3,0c0.1,0,0.2,0.1,0.3,0.1c0.6,0,1.3,0,1.9,0&#10;&#9;&#9;c20.7,0,29.6-17.1,29.7-17.3c0.4-0.9,0.1-1.9-0.8-2.4c-0.9-0.4-1.9-0.1-2.4,0.8c-0.1,0.1-5.8,11.1-18.8,14.4&#10;&#9;&#9;c3.8-2.9,7.8-7.2,11.9-13.1c10-14.1,10.4-29,1.7-40.5c0.2-0.8,0.5-1.2,0.7-1.3c0.5-0.2,1.6,0.2,2.2,0.6l25.1,18.6&#10;&#9;&#9;c0.3,0.2,0.7,0.3,1,0.3c0.1,0,0.2,0,0.3,0c0.5-0.1,0.9-0.3,1.2-0.7c5.7-8.2,12.9-17.2,15.6-18.6c0.7,0.5,1.7,1.4,2.2,2.4&#10;&#9;&#9;c-0.5,6.2-5.3,70.2-2.3,103.9c1,11.9,3.6,29.8,6.3,48.9c3.8,27.1,8.2,57.7,8.5,74.1C687.7,642,652.1,642.4,618,644.5z M774.3,668.6&#10;&#9;&#9;C774.3,668.7,774.3,668.7,774.3,668.6c0,1.3-6.8,4.4-19.4,4.4c-12.6,0-19.4-3.1-19.4-4.4c0,0,0,0,0-0.1c0,0,0,0,0-0.1l-2.1-29.4&#10;&#9;&#9;c5.1,2.5,13.8,3.6,21.5,3.6c7.6,0,16.3-1.1,21.4-3.5l-2.3,28.4C774.1,668,774.2,668.3,774.3,668.6z M776.7,634.9&#10;&#9;&#9;c-2.5,2.2-10.7,4.3-21.8,4.3c-11,0-19.5-2.2-21.9-4.4l-0.2-2.9c4.9,2.6,13.7,3.9,22.1,3.9c8.3,0,17.1-1.2,22-3.8L776.7,634.9z&#10;&#9;&#9; M777.3,627.3c-0.8,1.7-8.4,5-22.4,5c-14.7,0-22.4-3.6-22.4-5.2l0,0c0-1.6,7.7-5.2,22.4-5.2c14.3,0,21.9,3.4,22.4,5.1L777.3,627.3z&#10;&#9;&#9; M905.9,614.7c15.8,3.8,23.9,10.3,24.7,19.8c0.4,5-0.2,12.2-5.5,18.4c-5.7,6.7-15.7,10.5-29.5,11.4c-31.2,2-71.6-5.3-81.9-7.4&#10;&#9;&#9;c0.2-0.3,0.4-0.6,0.5-1c0.4-0.9,0.1-1.9-0.8-2.4c-0.9-0.4-1.9-0.1-2.4,0.8c-7.3,15-32.3,10.2-33.1,10l0.7-8.3&#10;&#9;&#9;c1.1,0.3,3.6,0.8,6.9,0.8c2.2,0,4.8-0.2,7.7-1c0.9-0.2,1.5-1.2,1.3-2.1c-0.2-0.9-1.2-1.5-2.1-1.3c-7.3,1.9-13.2,0-13.2,0&#10;&#9;&#9;c0,0-0.1,0-0.1,0l0.5-6.8c1.5,0.4,4.2,0.9,7.2,0.9c2.5,0,5.2-0.3,8-1.3c0.9-0.3,1.4-1.3,1.1-2.2c-0.3-0.9-1.3-1.4-2.2-1.1&#10;&#9;&#9;c-5.6,2-11.7,0.7-13.7,0.2l0.5-6.7c1.8,0.4,5,1.1,8.7,1.1c4.6,0,9.9-0.9,14.5-4.2c0.8-0.6,1-1.7,0.4-2.5c-0.6-0.8-1.7-1-2.5-0.4&#10;&#9;&#9;c-2,1.4-4.1,2.3-6.3,2.8c-1.3-2.4-3.3-3.9-5.3-4.9c5.9-5,10.5-4.8,20.2,3.7c0.2,0.2,0.5,0.3,0.8,0.4c0.2,0,8.5,1.5,20.3,2.8&#10;&#9;&#9;c0.3,0.2,0.6,0.3,1,0.3c0.2,0,0.4,0,0.6-0.1c9.4,1,20.9,1.8,32.3,1.8c8.6,0,17.2-0.5,24.9-1.7c1-0.2,1.6-1.1,1.5-2&#10;&#9;&#9;c-0.2-1-1.1-1.6-2-1.5c-11.7,1.9-25.5,2-38.1,1.3c-5.2-16,3.4-25.9,5.9-28.3C862.7,605.3,894.1,611.8,905.9,614.7z M780.5,632&#10;&#9;&#9;l0.2-2.4c1.6-0.1,7.4-0.3,10.5,3.4C786.4,633.3,782.1,632.4,780.5,632z M847.5,593c1.6-0.2,3,0.1,4.1,0.6c-0.7,0.5-1.5,1.1-2.2,1.8&#10;&#9;&#9;c-0.7,0.7-0.7,1.8,0,2.5c0.7,0.7,1.8,0.7,2.5,0c1.1-1.1,2.4-1.9,3.6-2.5c0.3,0,0.5-0.1,0.8-0.3c1.3-0.5,2.6-0.7,4-0.7&#10;&#9;&#9;c3.6,0.1,6.2,1.9,6.9,2.8c2.2,2.6,2.8,4.7,2.8,6.1c-3.8-0.8-7-1.5-9.4-2c1.2-0.8,2.5-1.5,3.2-1.8c0.9-0.5,1.2-1.5,0.7-2.4&#10;&#9;&#9;c-0.4-0.9-1.5-1.2-2.4-0.7c-0.5,0.3-4.9,2.6-6.8,4.5c0,0,0,0,0,0c-0.1,0.1-13.6,11.7-8,31.4c-5-0.3-9.8-0.7-14.2-1.2&#10;&#9;&#9;c-4.2-12.3,1.8-26.7,6.8-33.1C842.3,595,844.8,593.3,847.5,593z M794.1,579c5,4.5,22.9,14,42.9,16.9c-5.2,6.8-11.4,21.6-7.8,34.7&#10;&#9;&#9;c-9.2-1-15.8-2.1-17.6-2.4c-6.1-5.2-10.8-7.7-15.2-7.6c-0.8-2.5-1.7-5.1-2.7-8c-4.1-11.8-9.3-27.1-12.5-40.4&#10;&#9;&#9;C784.9,573.6,790.9,576.1,794.1,579z M790.5,613.8c0.9,2.7,1.8,5.2,2.6,7.5c-2.4,0.9-4.8,2.5-7.4,5c-2-0.3-3.8-0.3-4.8-0.3&#10;&#9;&#9;c-0.1-0.3-0.2-0.6-0.4-0.8c-2.4-4.8-14.3-6.9-25.5-6.9c-12.5,0-26,2.7-26,8.8c0,0,0,0.1,0,0.1c0,0,0,0,0,0l1.2,16.3&#10;&#9;&#9;c-1.4-0.1-2.9-0.1-4.3-0.2c-0.3-16.4-4.5-46-8.6-74.7c-2.7-19-5.2-36.9-6.3-48.7c-3-33.6,1.8-97.6,2.3-103.4&#10;&#9;&#9;c0.5-0.7,2.1-2.6,3.9-2.2c5.6,1.5,8.4,13.1,9.1,17.5c0.1,0.7,0.6,1.3,1.3,1.5c0.2,0,0.3,0.1,0.5,0.1c0.5,0,1-0.2,1.4-0.7l16-20.5&#10;&#9;&#9;c1.4-0.1,5.3,0.1,9.8,4.5c0.2,0.4,0.5,0.7,0.9,0.9c1.8,1.9,3.7,4.5,5.5,8.1c5.1,9.7,8.6,28.1,8.4,44.4c-8.8,1.8-27.9,3.6-28.1,3.7&#10;&#9;&#9;c-0.5,0.1-1,0.3-1.3,0.8c-0.3,0.4-0.4,1-0.2,1.5c0,0.1,0.1,0.2,0.1,0.3h-2c-0.9,0-1.6,0.6-1.7,1.5c-0.2,1-3.9,23.4-2,38&#10;&#9;&#9;c0.8,5.9,3.9,10.4,9,13c3,1.5,6.5,2.3,10.2,2.3c4.9,0,10.1-1.3,14.8-3.8c1-0.5,1.8-1.1,2.6-1.6c1.2,14,2.8,27.9,4.4,37.7&#10;&#9;&#9;C778.4,578.6,785.4,598.9,790.5,613.8z M827.2,535.1c-2.3,9.2-2.6,17.7-1,24.7L776.8,543c-0.7-6.5-1.4-13.4-2-20.3&#10;&#9;&#9;c5.4-5.8,5-12.9,4-18.2c-0.3-1.7-0.6-3.6-0.9-5.7c10.1,2.6,48.2,12.5,61.2,16.3C833.2,520.6,828.8,528.7,827.2,535.1z M852.4,572.9&#10;&#9;&#9;c-5.3-0.7-7.1-3.9-9.3-7.8c-0.3-0.6-0.6-1.1-0.9-1.7c-0.5-0.8-1.6-1.1-2.4-0.6c-0.8,0.5-1.1,1.6-0.6,2.4c0.3,0.5,0.6,1.1,0.9,1.6&#10;&#9;&#9;c0.7,1.2,1.3,2.4,2.1,3.5c-3,0.2-7.5-0.2-9.8-4.1c-4.2-7-4.9-18-1.8-30.2c1.8-7.2,7.7-17.1,15-21.3c2-1.2,4-1.8,6-2&#10;&#9;&#9;c-0.5,0.3-0.9,0.7-1.3,1c-0.7,0.6-0.8,1.8-0.1,2.5c0.6,0.7,1.8,0.8,2.5,0.1c2.8-2.5,7.5-3.8,11.4-3c2,0.4,3.5,1.3,4.1,2.5&#10;&#9;&#9;c0.5,1.1,0.4,4,0.1,6.4c-1.4-0.4-2.6-0.7-3.6-0.9c0.2-0.1,0.4-0.2,0.5-0.3c0.9-0.3,1.4-1.3,1.1-2.2c-0.3-0.9-1.3-1.4-2.2-1.1&#10;&#9;&#9;c-1.7,0.6-3.2,1.9-4.2,2.9c-0.2,0.1-0.3,0.2-0.5,0.4c-0.2,0.3-0.5,0.6-0.8,1c-0.1,0.1-0.1,0.2-0.1,0.2c0,0,0,0,0,0&#10;&#9;&#9;c-4.2,5.8-13.4,21.4-9.2,42.4c0,0.1,0,0.1,0.1,0.1c0,0,0,0.1,0,0.1c0.4,1.1,1.8,5,3.2,6.3c0.3,0.3,0.8,0.5,1.2,0.5&#10;&#9;&#9;c0.5,0,0.9-0.2,1.2-0.5c0.7-0.7,0.7-1.8,0-2.5c-0.3-0.3-0.7-1-1.1-1.9c1.3,0.3,3,0.7,5,1.2C858.1,570,856.3,573.4,852.4,572.9z&#10;&#9;&#9; M951.5,560.2c-9,17.1-25.4,20.2-37.8,17.5c-11.2-2.5-54-13-61.4-14.8c-3.5-19.2,5-33.4,8.8-38.7c0,0,0.1-0.1,0.1-0.2&#10;&#9;&#9;c6.4,1.7,37.8,9.9,59.2,12.4c-3,5.9-4.8,12.2-2.5,18.6c0.3,0.7,0.9,1.2,1.7,1.2c0.2,0,0.4,0,0.6-0.1c0.9-0.3,1.4-1.3,1.1-2.3&#10;&#9;&#9;c-3.2-8.9,3.5-18.5,8.9-26.3c1.9-2.7,3.6-5.2,4.8-7.4c4.9-9.4,14.8-30,17.7-36c2.2,1.4,5,2.4,8.8,2.4c2.9,0,6.3-0.5,10.2-1.6&#10;&#9;&#9;c3.2-0.9,6-2.1,8.4-3.7C974.9,505.2,960.9,542.3,951.5,560.2z M970.8,481.5c-3.7,1-6.7,1.5-9.3,1.5c-5.7,0-9-2.2-12.1-8.2&#10;&#9;&#9;c-3.7-7.1-7.7-23.1-0.5-28.3c0.7-0.5,0.9-1.5,0.5-2.3c0-0.1-3.8-7.4-0.6-12.8c2.4-4.1,8.2-6.3,17.1-6.6c3,3.2,18.4,19.8,20.4,31.1&#10;&#9;&#9;C988.6,469.1,983.1,478.2,970.8,481.5z M984.6,443.2c-2.1-3.5-4.6-7-7-10.1l3.1-11.3C982.6,425.3,986.2,433.7,984.6,443.2z&#10;&#9;&#9; M988,382.4l-13.1,47.4c-3.7-4.5-6.8-7.6-7.1-7.9c-0.3-0.3-0.8-0.5-1.3-0.5c-10.7,0.2-17.7,3-20.9,8.4c-3.3,5.6-1.2,12.1,0,14.9&#10;&#9;&#9;c-8,7.5-3.1,24.7,0.6,31.8c1,1.9,2.1,3.8,3.7,5.4c-0.1,0.2-0.2,0.4-0.3,0.7c-10-2.2-19.2,0.3-24,2l23.9-94.7c0.2-0.8-0.2-1.6-0.9-2&#10;&#9;&#9;c-0.9-0.5-1.8-0.9-2.7-1.4c18.3-13.2,31.7-9.8,38.3-6.5c0.2,0.1,0.4,0.2,0.6,0.3C986.3,381.1,987.4,381.8,988,382.4z M984.7,374.2&#10;&#9;&#9;l-0.5,2c-7.7-3.3-21.3-5.5-38.7,6.3c-0.2-0.1-0.4-0.3-0.7-0.4C949.9,378.1,965,368.2,984.7,374.2z M979.1,368.3l-0.2,1&#10;&#9;&#9;c-19.4-2.9-33.6,7.8-37.3,11c-0.2-0.1-0.3-0.2-0.5-0.2C945.3,376.1,959.5,364.7,979.1,368.3z M942.4,384.7&#10;&#9;&#9;C942.4,384.8,942.3,384.8,942.4,384.7c-9.9-4.1-20.7-6.3-32.3-6.3c-13.6,0-25.4,2.9-32.7,5.2l0.5-3.9&#10;&#9;&#9;C909.2,368,935,380.5,942.4,384.7z M991.3,236.8c-5.8,3.5-7.1,4.3-7.1,4.3c-0.8,0.5-1,1.6-0.5,2.4c0,0.1,4.4,7,1.5,12.1l-1.3,2.3&#10;&#9;&#9;c-3.7,6.4-11.3,19.7-16.3,23.1c-2.8,1.9-7.7,3.7-12.6,3.1c0,0,0,0-0.1,0c-0.4-0.2-0.8-0.2-1.2-0.2c-0.1,0-0.2,0-0.3-0.1&#10;&#9;&#9;c-4.2-1-7.5-3.8-10-8.3c-0.5-0.8-1.5-1.2-2.4-0.7c-0.9,0.5-1.2,1.5-0.7,2.4c2.7,5,6.4,8.2,11,9.6c-6.9,12.4-42.1,74.5-56.8,85.1&#10;&#9;&#9;c-6,0.8-12.3,2.3-18.9,4.9c-0.6,0.2-1,0.8-1.1,1.4l-0.8,6.6c-2.5,0.9-4,1.6-4.2,1.7c-0.6,0.3-1,0.9-1,1.6l0,1l-1.2,14.4l-16.5,16.1&#10;&#9;&#9;c-2.8-16.1-12.6-27.4-23-33.7c11.7-8.5,66.4-50.4,100.1-113.1c0,0,0-0.1,0-0.1c1.7,1.5,3,2.3,3.2,2.4c0.3,0.2,0.6,0.3,0.9,0.3&#10;&#9;&#9;c0.6,0,1.2-0.3,1.5-0.8c0.5-0.8,0.3-1.9-0.6-2.4c-0.1,0-7.3-4.6-8.8-11.4c-0.7-3.1,0-6.3,2.1-9.5c6.3-9.5,18.9-7.1,23.9-5.7&#10;&#9;&#9;c-1.8,2.4-5.9,6.5-12.7,6.7c-1,0-1.7,0.8-1.7,1.8c0,1,0.8,1.7,1.8,1.7c1.5,0,2.9-0.2,4.2-0.5c0.6,1.9,2.2,8.1-1.1,12&#10;&#9;&#9;c-0.6,0.7-0.5,1.9,0.2,2.5c0.3,0.3,0.7,0.4,1.1,0.4c0.5,0,1-0.2,1.4-0.6c2.5-3.1,3-6.9,2.8-10c1.1-0.2,2.7-0.6,5-1&#10;&#9;&#9;c-1.3,3.4-2.2,9,1.7,14.5c0.3,0.5,0.9,0.8,1.4,0.8c0.3,0,0.7-0.1,1-0.3c0.8-0.6,1-1.7,0.4-2.5c-4-5.7-1.4-11.4-0.3-13.3&#10;&#9;&#9;c3.1-0.6,6.8-1.2,11.1-2c15.3-2.6,13.2-16.9,13.2-17.1c0-0.1,0-0.2-0.1-0.2l-1.5-4.7c1.7,0.6,3.4,1.1,5.2,1.6&#10;&#9;&#9;c0.9,0.3,1.9-0.3,2.2-1.2c0.3-0.9-0.3-1.9-1.2-2.2c-4.7-1.4-15.7-4.6-18-9c-0.5-1-0.6-1.9-0.2-3c0.6-1.8,1.5-2.9,2.8-3.3&#10;&#9;&#9;c2-0.6,4.9,0.7,6.7,2c3,2.2,14.9,7.1,16.2,7.6c1.1,0.5,2.4,2.4,2.5,4.8C994.1,232.6,993.9,235.2,991.3,236.8z"/>
</g>
<g>
	<path fill="#FFC03E" d="M668.3,63.6c-1.3,0-2.3-1.1-2.3-2.3V45.3c0-1.3,1-2.3,2.3-2.3c1.3,0,2.3,1.1,2.3,2.3v15.9&#10;&#9;&#9;C670.7,62.5,669.6,63.6,668.3,63.6z"/>
	<path fill="#FFC03E" d="M655.8,65.4c-1.2,0.4-2.6-0.3-3-1.5L648,48.8c-0.4-1.2,0.3-2.6,1.5-3c1.2-0.4,2.6,0.3,3,1.5l4.9,15.2&#10;&#9;&#9;C657.7,63.7,657.1,65,655.8,65.4z"/>
	<path fill="#FFC03E" d="M644.5,71.1c-1,0.8-2.5,0.5-3.3-0.5l-9.4-12.9c-0.8-1-0.5-2.5,0.5-3.3c1-0.8,2.5-0.5,3.3,0.5l9.4,12.9&#10;&#9;&#9;C645.8,68.9,645.6,70.3,644.5,71.1z"/>
	<path fill="#FFC03E" d="M635.5,80c-0.8,1-2.2,1.3-3.3,0.5l-12.9-9.4c-1-0.8-1.3-2.2-0.5-3.3c0.8-1,2.2-1.3,3.3-0.5l12.9,9.4&#10;&#9;&#9;C636.1,77.4,636.3,78.9,635.5,80z"/>
	<path fill="#FFC03E" d="M629.7,91.2c-0.4,1.2-1.7,1.9-3,1.5l-15.2-4.9c-1.2-0.4-1.9-1.7-1.5-3c0.4-1.2,1.7-1.9,3-1.5l15.2,4.9&#10;&#9;&#9;C629.4,88.6,630.1,89.9,629.7,91.2z"/>
	<path fill="#FFC03E" d="M627.6,103.6c0,1.3-1.1,2.3-2.3,2.3l-15.9,0c-1.3,0-2.3-1.1-2.3-2.3c0-1.3,1.1-2.3,2.3-2.3h15.9&#10;&#9;&#9;C626.6,101.3,627.6,102.3,627.6,103.6z"/>
	<path fill="#FFC03E" d="M629.5,116.1c0.4,1.2-0.3,2.6-1.5,3l-15.2,4.9c-1.2,0.4-2.6-0.3-3-1.5c-0.4-1.2,0.3-2.6,1.5-3l15.2-4.9&#10;&#9;&#9;C627.8,114.2,629.1,114.9,629.5,116.1z"/>
	<path fill="#FFC03E" d="M635.1,127.4c0.8,1,0.5,2.5-0.5,3.3l-12.9,9.4c-1,0.8-2.5,0.5-3.3-0.5c-0.8-1.1-0.5-2.5,0.5-3.3l12.9-9.4&#10;&#9;&#9;C632.9,126.1,634.4,126.4,635.1,127.4z"/>
	<path fill="#FFC03E" d="M644,136.4c1,0.8,1.3,2.2,0.5,3.3l-9.4,12.9c-0.8,1-2.2,1.3-3.3,0.5c-1-0.8-1.3-2.2-0.5-3.3l9.4-12.9&#10;&#9;&#9;C641.5,135.9,643,135.7,644,136.4z"/>
	<path fill="#FFC03E" d="M706.5,91.8c-0.4-1.2,0.3-2.6,1.5-3l15.2-4.9c1.2-0.4,2.6,0.3,3,1.5c0.4,1.2-0.3,2.6-1.5,3l-15.2,4.9&#10;&#9;&#9;C708.2,93.7,706.9,93,706.5,91.8z"/>
	<path fill="#FFC03E" d="M700.9,80.5c-0.8-1.1-0.5-2.5,0.5-3.3l12.9-9.4c1-0.8,2.5-0.5,3.3,0.5c0.8,1.1,0.5,2.5-0.5,3.3L704.1,81&#10;&#9;&#9;C703.1,81.8,701.6,81.5,700.9,80.5z"/>
	<path fill="#FFC03E" d="M692,71.5c-1-0.8-1.3-2.2-0.5-3.3l9.4-12.9c0.8-1,2.2-1.3,3.3-0.5c1,0.8,1.3,2.2,0.5,3.3l-9.4,12.9&#10;&#9;&#9;C694.5,72,693.1,72.2,692,71.5z"/>
	<path fill="#FFC03E" d="M680.8,65.6c-1.2-0.4-1.9-1.7-1.5-3l4.9-15.2c0.4-1.2,1.7-1.9,3-1.5c1.2,0.4,1.9,1.7,1.5,3l-4.9,15.2&#10;&#9;&#9;C683.3,65.4,682,66,680.8,65.6z"/>
</g>
<path d="M 920.899988 184.5 A 2.6 2.5 0 0 1 918.299988 187 A 2.6 2.5 0 0 1 915.699988 184.5 A 2.6 2.5 0 0 1 918.299988 182 A 2.6 2.5 0 0 1 920.899988 184.5 Z" fill="#231F20"/>
<path fill="#FFE3CF" d="M752.1,584.8c0,0-0.1,0.3-0.2,0.9c-0.1,0.3-0.2,0.6-0.1,0.9c0,0.3-0.1,0.6,0,1c0,1.6,0.5,3.8,1.2,6.2&#10;&#9;c0.4,1.2,0.7,2.5,1,3.7c0.3,1.3,0.3,2.5,0.3,3.7c0,1.1-0.4,2.1-0.6,2.7c-0.3,0.6-0.4,0.9-0.4,0.9c-0.4,0.6-1.1,0.9-1.8,0.5&#10;&#9;c-0.4-0.2-0.7-0.7-0.7-1.2l0-0.3c0,0,0-0.3,0.1-0.7c0.1-0.5,0.1-1.1,0-1.9c0-0.8-0.3-1.7-0.5-2.8c-0.2-1.1-0.7-2.2-1-3.5&#10;&#9;c-0.3-1.2-0.6-2.6-0.8-3.9c-0.1-1.3-0.1-2.6,0.1-3.7c0-0.5,0.3-1.1,0.4-1.5c0.1-0.5,0.3-0.8,0.4-1c0.3-0.5,0.4-0.8,0.4-0.8&#10;&#9;c0.3-0.6,1.1-0.8,1.7-0.5C751.9,583.7,752.2,584.3,752.1,584.8z"/>
<path fill="#FFE3CF" d="M763.2,590.8c0,0-0.1,0.3-0.2,0.9c-0.1,0.3-0.2,0.6-0.1,0.9c0,0.3-0.1,0.6,0,1c0,1.6,0.5,3.8,1.2,6.2&#10;&#9;c0.4,1.2,0.7,2.5,1,3.7c0.3,1.3,0.3,2.5,0.3,3.7c0,1.1-0.4,2.1-0.6,2.7c-0.3,0.6-0.4,0.9-0.4,0.9c-0.3,0.6-1.1,0.9-1.8,0.5&#10;&#9;c-0.5-0.2-0.7-0.7-0.7-1.2l0-0.3c0,0,0-0.3,0.1-0.7c0.1-0.5,0.1-1.1,0-1.9c0-0.8-0.3-1.7-0.5-2.8c-0.2-1.1-0.7-2.2-1-3.5&#10;&#9;c-0.3-1.2-0.6-2.6-0.8-3.9c-0.1-1.3-0.1-2.6,0.1-3.7c0-0.5,0.3-1.1,0.4-1.5c0.1-0.5,0.3-0.8,0.4-1c0.3-0.5,0.4-0.8,0.4-0.8&#10;&#9;c0.3-0.6,1.1-0.8,1.7-0.5C763,589.7,763.3,590.3,763.2,590.8z"/>
<path fill="#FFE3CF" d="M743.6,593.2c0,0-0.1,0.3-0.2,0.9c-0.1,0.3-0.2,0.6-0.1,0.9c0,0.3-0.1,0.6,0,1c0,1.6,0.5,3.8,1.2,6.2&#10;&#9;c0.4,1.2,0.7,2.5,1,3.7c0.3,1.3,0.3,2.5,0.3,3.7c0,1.1-0.4,2.1-0.6,2.7c-0.3,0.6-0.4,0.9-0.4,0.9c-0.4,0.6-1.1,0.9-1.8,0.5&#10;&#9;c-0.5-0.2-0.7-0.7-0.7-1.2l0-0.3c0,0,0-0.3,0.1-0.7c0.1-0.5,0.1-1.1,0-1.9c0-0.8-0.3-1.7-0.5-2.8c-0.2-1.1-0.7-2.2-1-3.5&#10;&#9;c-0.3-1.2-0.6-2.6-0.8-3.9c-0.1-1.3-0.1-2.6,0.1-3.7c0-0.5,0.3-1.1,0.4-1.5c0.1-0.5,0.3-0.8,0.4-1c0.3-0.5,0.4-0.8,0.4-0.8&#10;&#9;c0.3-0.6,1.1-0.8,1.7-0.5C743.4,592.1,743.7,592.7,743.6,593.2z"/>
<g>
	<path d="M 537 727 L 608.0999755859375 743.9000244140625 L 610 753.5999755859375 L 558.5999755859375 806.2000122070312 L 554.7999877929688 803.7999877929688 Z" fill="#9EB0B0"/>
	<path d="M 557.2000122070312 791.5 L 608.2000122070312 745.9000244140625 L 610 753.5999755859375 L 559.4000244140625 805.4000244140625 L 556 804.4000244140625 Z" fill="#698787"/>
	<path d="M 544.5999755859375 744.9000244140625 L 573.5 751.9000244140625 L 551.2999877929688 775.0999755859375 Z" fill="#C1D6D6"/>
	<path fill="#C1D6D6" d="M382.5,635.5l136.9,23.1l37.5,136.1c0,0,2.9,11.1-7.5,11.5c-10.4,0.4-144.2-37.9-144.2-37.9L375,644.8&#10;&#9;&#9;L382.5,635.5z"/>
	<path fill="#9EB0B0" d="M553.1,805.4c5.8-2.6,3.7-10.6,3.7-10.6l-37.5-136.1l-136.9-23.1l-6.5,8.1l134.3,25.1L553.1,805.4z"/>
	<path fill="#ADC9C9" d="M375.9,643.6l-0.9,1.2l30.2,123.5c0,0,133.8,38.3,144.2,37.9c1.1,0,2.1-0.2,2.9-0.5L375.9,643.6z"/>
	<g>
		<path fill="#231F5C" d="M440,652.7l-6.3-1.1c-1-0.2-1.9,0.5-2,1.4c-0.2,1,0.5,1.9,1.4,2l6.3,1.1c0.1,0,0.2,0,0.3,0&#10;&#9;&#9;&#9;c0.8,0,1.6-0.6,1.7-1.5C441.6,653.8,441,652.9,440,652.7z"/>
		<path fill="#231F5C" d="M514.4,660.4l-4.8,4.7l-11.1-2c-1-0.2-1.9,0.5-2,1.4c-0.2,1,0.5,1.9,1.4,2l12,2.1c0.1,0,0.2,0,0.3,0&#10;&#9;&#9;&#9;c0,0,0,0,0,0c0,0,0,0,0,0c0,0,0,0,0,0c0.2,0,0.4,0,0.6-0.1c0.1,0,0.1-0.1,0.2-0.1c0.1-0.1,0.3-0.1,0.4-0.3c0,0,0,0,0.1,0l5.4-5.3&#10;&#9;&#9;&#9;c0.7-0.7,0.7-1.8,0-2.5C516.2,659.7,515.1,659.7,514.4,660.4z"/>
		<path fill="#231F5C" d="M611.6,744c0,0,0-0.1-0.1-0.1c-0.1-0.2-0.2-0.3-0.3-0.4c0,0,0,0,0-0.1c0,0-0.1-0.1-0.1-0.1&#10;&#9;&#9;&#9;c-0.1-0.1-0.2-0.2-0.3-0.2c-0.1,0-0.1-0.1-0.2-0.1c0,0-0.1,0-0.1-0.1l-71.5-19.1L521,657.6c-0.2-0.7-0.7-1.2-1.4-1.3l-135.8-21.1&#10;&#9;&#9;&#9;c-0.5-0.1-0.9,0-1.3,0.3l-8.2,6.2c-0.2,0.1-0.3,0.3-0.4,0.4c0,0,0,0.1-0.1,0.1c-0.1,0.1-0.1,0.3-0.2,0.5c0,0,0,0.1,0,0.1&#10;&#9;&#9;&#9;c0,0,0,0.1,0,0.1c0,0.2,0,0.4,0,0.6c0,0,0,0,0,0c0,0,0,0,0,0l29.3,125c0.1,0.6,0.6,1.1,1.2,1.3c5.5,1.6,134.4,38.8,145.7,38.8&#10;&#9;&#9;&#9;c0.2,0,0.4,0,0.5,0c1.9-0.2,3.5-0.8,4.8-1.8l2.3,1.5c0.3,0.2,0.7,0.3,1,0.3c0.5,0,0.9-0.2,1.2-0.5l51.6-51.9&#10;&#9;&#9;&#9;c0.3-0.3,0.5-0.8,0.5-1.2v-10.3C611.7,744.4,611.7,744.2,611.6,744z M549.9,805l-0.1,0c-8.6,0-97.1-24.9-143.7-38.4l-28.5-121.4&#10;&#9;&#9;&#9;l48,8.5c0.1,0,0.2,0,0.3,0c0.8,0,1.6-0.6,1.7-1.5c0.2-1-0.5-1.9-1.4-2l-46.6-8.2l4.4-3.3l133.9,20.8l36.9,136.7&#10;&#9;&#9;&#9;c0,0,0.8,4.3-1.1,6.8c0,0,0,0,0,0l-5.7-18.6c-0.3-0.9-1.3-1.4-2.2-1.2c-0.9,0.3-1.4,1.3-1.2,2.2l5.9,19.3&#10;&#9;&#9;&#9;C550.4,804.9,550.2,805,549.9,805z M558.1,804.5l-0.8-0.5c1.9-3.7,1-8.2,0.9-8.5L540,727.7l66.5,17.7l-29.3,27.8&#10;&#9;&#9;&#9;c-0.7,0.7-0.7,1.8-0.1,2.5c0.3,0.4,0.8,0.5,1.3,0.5c0.4,0,0.9-0.2,1.2-0.5l28.6-27.1v5.4L558.1,804.5z"/>
	</g>
	<path fill="#FFFFFF" d="M465.5,716.6c3,9.9-0.8,19.8-8.5,22.1c-7.7,2.4-16.4-3.7-19.4-13.6c-3-9.9,0.8-19.8,8.5-22.1&#10;&#9;&#9;C453.8,700.6,462.5,706.7,465.5,716.6z"/>
</g>
<g>
	<g>
		<path fill="#6E6E48" d="M992.8,636.4c2.5,4.6,0.8,10.3-3.8,12.8c-1.4,0.8-3,1.2-4.5,1.2c-0.6,0-1.1,0-1.7-0.2&#10;&#9;&#9;&#9;c-2.7-0.5-5.2-2.2-6.7-4.8l-5.8-10.7v0L937.9,575l-1.8-1.2l12.4-17.9l0.9,0.6L992.8,636.4z"/>
		<path fill="#575739" d="M992.8,636.4l-43.5-80l-0.9-0.6l-8.9,12.9l34.7,63.3v0l5.7,10.4c1.4,2.6,3.8,4.2,6.5,4.7&#10;&#9;&#9;&#9;c0.5,0.1,1.1,0.2,1.6,0.2c1.4,0,2.9-0.3,4.2-1.1C994.2,643.4,994.6,639.6,992.8,636.4z"/>
		<path fill="#47472F" d="M987.2,723.1c1.3,12.2-24.2,25-57,28.6c-32.8,3.6-60.5-3.3-61.8-15.5c-1.3-11.4,21-23.3,50.8-27.8&#10;&#9;&#9;&#9;c-6,4.7-9.9,11.6-10.3,19.4c0.3,2,1.8,5.9,8.1,9.2c8.9,4.7,41.7,4.7,49.8-10.4c-0.8-7.9-5.2-14.9-11.7-19.4&#10;&#9;&#9;&#9;C973.4,709,986.3,714.9,987.2,723.1z"/>
		<path fill="#2E2E1E" d="M982.8,650.2l0,0.2l-29.3,55.9c-4.5-2.7-9.9-4.3-15.6-4.3c-1.2,0-2.4,0.1-3.5,0.2l36-67.5l5.8,10.7&#10;&#9;&#9;&#9;C977.6,648,980.1,649.7,982.8,650.2z"/>
		<path fill="#575739" d="M955.1,707.2c6.5,4.5,10.9,11.5,11.7,19.4c-8.1,15.1-41,15.1-49.8,10.4c-6.3-3.3-7.8-7.2-8.1-9.2&#10;&#9;&#9;&#9;c0.4-7.8,4.3-14.7,10.3-19.4c4.2-3.4,9.4-5.6,15.2-6.2c1.2-0.1,2.3-0.2,3.5-0.2c5.8,0,11.1,1.6,15.6,4.3&#10;&#9;&#9;&#9;C954.1,706.6,954.6,706.9,955.1,707.2z"/>
		<path fill="#575739" d="M937.4,527.4c0,0,19.7,2.2,13.9,24.2l-2.8,4.1l-12.4,17.9l-20.2,29.4c3.5-8-0.1-22.4-9.8-35.7&#10;&#9;&#9;&#9;c-9.3-12.8-21.4-20.7-30.1-20.4L937.4,527.4z"/>
		<path fill="#6E6E48" d="M906.1,567.4c9.6,13.3,13.3,27.7,9.8,35.7l-2.4,3.5c-0.3,0.3-0.6,0.5-0.9,0.8c-8.1,5.9-24.2-2.4-36-18.5&#10;&#9;&#9;&#9;c-11.7-16.1-14.6-34-6.5-39.9l5.9-1.9C884.7,546.7,896.7,554.5,906.1,567.4z M907.2,599.9c6.1-4.4,3.9-17.7-4.9-29.8&#10;&#9;&#9;&#9;c-8.8-12-20.7-18.2-26.8-13.8c-6.1,4.4-3.9,17.7,4.9,29.8C889.1,598.1,901.1,604.3,907.2,599.9z"/>
		<path fill="#F5F5D3" d="M902.3,570.1c8.8,12,10.9,25.3,4.9,29.8c-6.1,4.4-18.1-1.8-26.8-13.8c-8.7-12-10.9-25.3-4.9-29.8&#10;&#9;&#9;&#9;C881.6,551.9,893.6,558.1,902.3,570.1z"/>
		<path fill="#2E2E1E" d="M890.7,580c-6.5-9-9.4-18.7-7.9-24.8c-2.8-0.6-5.4-0.3-7.3,1.1c-6.1,4.4-3.9,17.7,4.9,29.8&#10;&#9;&#9;&#9;c8.8,12,20.8,18.2,26.8,13.8c1.5-1.1,2.5-2.8,3-4.9C904.2,593.7,896.7,588.2,890.7,580z"/>
		<path fill="#47472F" d="M974.7,642.6l-4.3-7.9l-36,67.5c1.2-0.1,2.3-0.2,3.5-0.2c1.6,0,3.2,0.1,4.7,0.4L974.7,642.6z"/>
		<path fill="#2E2E1E" d="M966.8,726.6c-3.1,5.8-9.9,9.4-17.6,11.3l30.2-2.2c5.3-4,8.2-8.4,7.7-12.7c-0.5-4.7-4.9-8.6-12-11.4&#10;&#9;&#9;&#9;l-14.8,0.4C964,716.1,966.3,721.1,966.8,726.6z"/>
		<path fill="#47472F" d="M915.9,603.1l20.2-29.4l12.4-17.9l2.8-4.1c1.1-4.1,1.3-7.4,0.9-10.2l-43.3,30.1&#10;&#9;&#9;&#9;C916.4,583.6,919,595.9,915.9,603.1z"/>
		<path fill="#6E6E48" d="M934.4,702.2c-5.8,0.6-11,2.9-15.2,6.2c-6,4.7-9.9,11.6-10.3,19.4c0.3,2,1.8,5.9,8.1,9.2&#10;&#9;&#9;&#9;c0.7,0.4,1.6,0.7,2.6,1C911.8,714.5,934.4,702.2,934.4,702.2z"/>
	</g>
	<g>
		<path fill="#231F5C" d="M912.2,581.9c0.3,0.7,0.9,1.1,1.6,1.1c0.2,0,0.5,0,0.7-0.1c0.9-0.4,1.3-1.4,0.9-2.3&#10;&#9;&#9;&#9;c-0.9-2.1-1.9-4.3-3.1-6.4c-0.5-0.8-1.5-1.2-2.4-0.7c-0.8,0.5-1.2,1.5-0.7,2.4C910.3,577.9,911.3,579.9,912.2,581.9z"/>
		<path fill="#231F5C" d="M904.8,568.9c0.3,0.5,0.9,0.7,1.4,0.7c0.4,0,0.7-0.1,1-0.3c0.8-0.6,1-1.7,0.4-2.5&#10;&#9;&#9;&#9;c-3.8-5.2-8.3-9.9-12.9-13.5c-0.8-0.6-1.9-0.5-2.5,0.3c-0.6,0.8-0.5,1.9,0.3,2.5C897,559.6,901.2,564,904.8,568.9z"/>
		<path fill="#231F5C" d="M903.9,569.6c-4.4-6-9.7-10.9-15-13.6c-5.7-2.9-10.7-3.1-14.2-0.6c-3.4,2.5-4.8,7.3-3.9,13.4&#10;&#9;&#9;&#9;c0.1,1,1,1.6,2,1.5c1-0.1,1.6-1,1.5-2c-0.7-4.8,0.2-8.3,2.5-10c2.3-1.7,6.2-1.4,10.6,0.9c4.8,2.5,9.7,6.9,13.8,12.5&#10;&#9;&#9;&#9;c8,11,10.4,23.5,5.2,27.3c-0.9,0.7-2.1,1-3.4,1.1c-1,0-1.7,0.8-1.7,1.8c0,1,0.8,1.7,1.8,1.7c0,0,0,0,0.1,0&#10;&#9;&#9;&#9;c2.1-0.1,3.9-0.7,5.4-1.8C915.3,596.8,913.4,582.6,903.9,569.6z"/>
		<path fill="#231F5C" d="M994.5,636.1l-43.5-80c0,0,0,0-0.1-0.1l1.9-2.8c0.1-0.2,0.2-0.4,0.3-0.6c2-7.5,1.3-13.8-1.9-18.5&#10;&#9;&#9;&#9;c-4.7-6.9-13.2-7.9-13.5-7.9c-0.2,0-0.5,0-0.7,0.1l-59.3,18.9c-0.3,0.1-0.6,0.3-0.8,0.6c-2.9,0-5.5,0.7-7.7,2.2&#10;&#9;&#9;&#9;c-9.1,6.6-6.4,25.2,6.1,42.4c9.6,13.2,21.8,21.1,31,21.1c2.8,0,5.3-0.7,7.4-2.3c1.6-1.2,2.9-2.8,3.8-4.8l19.1-27.8l31.8,58.5&#10;&#9;&#9;&#9;l-35.1,65.9c-5.6,0.8-10.6,3-14.8,6.1c-31.4,4.8-53.2,17.2-51.8,29.7c1.2,11,20.5,18,46.4,18c5.5,0,11.3-0.3,17.3-1&#10;&#9;&#9;&#9;c16.1-1.8,30.9-5.8,41.9-11.3c11.5-5.8,17.4-12.6,16.6-19.3c-1-8.8-13.3-15.3-33-17.3l28-53.5c0.2,0,0.4,0,0.6,0&#10;&#9;&#9;&#9;c1.9,0,3.7-0.5,5.3-1.4c2.6-1.4,4.6-3.8,5.4-6.7C996.2,641.7,995.9,638.7,994.5,636.1z M878.2,588.3c-11-15.1-14.1-32.2-6.9-37.5&#10;&#9;&#9;&#9;c3.4-2.5,8.6-2.1,14.8,1.1c0.9,0.4,1.9,0.1,2.4-0.8c0.4-0.9,0.1-1.9-0.8-2.4c-1.4-0.7-2.8-1.3-4.2-1.8l54.2-17.3&#10;&#9;&#9;&#9;c1.5,0.2,7.3,1.5,10.7,6.4c2.6,3.8,3.1,8.9,1.5,15.3l-31.6,45.8c-0.2-0.2-0.5-0.3-0.9-0.3c-1-0.1-1.8,0.6-1.9,1.6&#10;&#9;&#9;&#9;c-0.1,1.3-0.4,2.8-1,4.2l-2.2,3.1c-0.2,0.2-0.4,0.4-0.6,0.5C904.5,611.7,889.1,603.4,878.2,588.3z M952.7,708.2&#10;&#9;&#9;&#9;c0.1,0,0.1,0.1,0.2,0.1c0,0,0.1,0,0.1,0c0.4,0.2,0.8,0.5,1.2,0.8c0.1,0.1,0.2,0.2,0.3,0.2c5.8,4.1,9.8,10.2,10.7,17.4&#10;&#9;&#9;&#9;c-5.1,8.7-19.5,11.8-31.5,11.8c-6.6,0-12.8-1-15.7-2.6c-5.4-2.9-6.8-6-7.1-7.8c0.8-13.4,12.7-24,27.2-24&#10;&#9;&#9;&#9;C943.4,704.3,948.5,705.7,952.7,708.2z M985.6,723.8c0.6,5-4.8,10.8-14.7,15.7c-10.6,5.3-25,9.2-40.7,10.9&#10;&#9;&#9;&#9;c-34.5,3.8-58.8-4.1-59.9-13.9c-1.1-9.5,17.8-20.1,43.7-24.9c-3.9,4.6-6.4,10.3-6.7,16.6c0,0.1,0,0.2,0,0.4c0.4,2.3,2,6.8,9,10.5&#10;&#9;&#9;&#9;c3.5,1.9,10,3,17.4,3h0c13.2,0,29.2-3.7,34.8-14.1c0.2-0.3,0.2-0.7,0.2-1c-0.6-6.5-3.5-12.2-7.8-16.7&#10;&#9;&#9;&#9;C975.4,712.6,984.9,717.7,985.6,723.8z M953,704.4c-4.4-2.3-9.5-3.6-14.9-3.6c-0.2,0-0.3,0-0.5,0l32.9-61.9l4.3,7.9&#10;&#9;&#9;&#9;c1.3,2.3,3.3,4.1,5.7,5L953,704.4z M992,643.6c-0.6,2-1.9,3.6-3.7,4.6c-1.1,0.6-2.4,0.9-3.7,0.9c-2.8,0-5.4-1.5-6.8-4l-38.3-70.4&#10;&#9;&#9;&#9;c-0.2-0.4-0.6-0.7-0.9-0.8l10.1-14.6l42.7,78.5C992.4,639.6,992.6,641.6,992,643.6z"/>
	</g>
</g>
</svg>